<svg width="26" height="12" viewBox="0 0 26 12" fill="none" xmlns="http://www.w3.org/2000/svg">
<g clip-path="url(#clip0_2_635)">
<path fill-rule="evenodd" clip-rule="evenodd" d="M6.6567 10.8333H12.3234L14.9067 1.16663H6.6567C3.99003 1.16663 1.82336 3.33329 1.82336 5.99996C1.82336 8.66663 3.99003 10.8333 6.6567 10.8333Z" fill="white"/>
<path fill-rule="evenodd" clip-rule="evenodd" d="M19.3234 0.166626H6.6567C3.4067 0.166626 0.823364 2.74996 0.823364 5.99996C0.823364 9.24996 3.4067 11.8333 6.6567 11.8333H19.3234C22.5734 11.8333 25.1567 9.24996 25.1567 5.99996C25.1567 2.74996 22.49 0.166626 19.3234 0.166626ZM1.82336 5.99996C1.82336 3.33329 3.99003 1.16663 6.6567 1.16663H14.9067L12.3234 10.8333H6.6567C3.99003 10.8333 1.82336 8.66663 1.82336 5.99996Z" fill="#0066FF"/>
<path d="M20.99 3.5C21.1567 3.66667 21.1567 4 20.99 4.16667L19.24 6L21.0733 7.83333C21.24 8 21.24 8.33333 21.0733 8.5C20.9067 8.66667 20.5733 8.66667 20.4067 8.5L18.5733 6.66667L16.74 8.5C16.5733 8.66667 16.24 8.66667 16.0733 8.5C15.9067 8.33333 15.9067 8 16.0733 7.83333L17.8233 6L15.99 4.16667C15.8233 4 15.8233 3.66667 15.99 3.5C16.1567 3.33333 16.49 3.33333 16.6567 3.5L18.49 5.33333L20.3233 3.5C20.49 3.33333 20.8233 3.33333 20.99 3.5Z" fill="white"/>
<path d="M11.0733 3.58337C11.24 3.75004 11.3233 4.08337 11.1567 4.25004L7.65666 8.33337C7.57332 8.41671 7.48999 8.50004 7.40666 8.50004C7.23999 8.58337 6.98999 8.58337 6.82332 8.41671L4.98999 6.58337C4.82332 6.41671 4.82332 6.08337 4.98999 5.91671C5.15666 5.75004 5.48999 5.75004 5.65666 5.91671L7.15666 7.33337L10.3233 3.58337C10.49 3.41671 10.8233 3.41671 11.0733 3.58337Z" fill="#0066FF"/>
</g>
<defs>
<clipPath id="clip0_2_635">
<rect width="25" height="12" fill="white" transform="translate(0.48999)"/>
</clipPath>
</defs>
</svg>
