<svg width="80" height="79" viewBox="0 0 80 79" fill="none" xmlns="http://www.w3.org/2000/svg">
<path d="M20.6086 33.7296C20.6086 27.2378 16.322 21.9666 11.0645 21.9666C5.80699 21.9666 1.52039 27.2378 1.52039 33.7284C1.52039 40.2202 5.80699 45.4731 11.0645 45.4731C16.322 45.4731 20.6086 40.203 20.6086 33.7296ZM11.0645 42.1814C7.58392 42.1814 4.76282 38.3894 4.76282 33.7101C4.76282 29.0308 7.58392 25.2399 11.0645 25.2399C14.5451 25.2399 17.3295 29.0491 17.3295 33.7284C17.3295 38.4077 14.5451 42.1814 11.0645 42.1814ZM78.9358 33.7101C78.9358 27.2367 74.6492 21.9666 69.3917 21.9666C64.1342 21.9666 59.8476 27.2378 59.8476 33.7284C59.7812 34.3547 60.0754 34.9649 60.6032 35.2993C60.862 35.4631 61.1619 35.5501 61.4682 35.5501C61.7745 35.5501 62.0745 35.4631 62.3332 35.2993C62.5934 35.1342 62.802 34.8995 62.9356 34.6219C63.0692 34.3442 63.1223 34.0347 63.0889 33.7284C63.0889 29.0686 65.9111 25.2583 69.3917 25.2583C72.8723 25.2583 75.6934 29.0491 75.6934 33.7284C75.6934 38.3894 72.8723 42.1814 69.3917 42.1814C69.1765 42.1823 68.9636 42.2256 68.7651 42.3089C68.5667 42.3922 68.3866 42.5137 68.2352 42.6666C68.0837 42.8195 67.964 43.0008 67.8826 43.2001C67.8013 43.3993 67.7601 43.6126 67.7613 43.8278C67.7603 44.0429 67.8016 44.2561 67.883 44.4553C67.9644 44.6544 68.0842 44.8355 68.2356 44.9883C68.387 45.1411 68.567 45.2625 68.7654 45.3457C68.9638 45.4289 69.1766 45.4722 69.3917 45.4731C74.6492 45.4731 78.9358 40.2018 78.9358 33.7101ZM52.1353 24.7591C57.3928 24.7591 61.6795 19.4878 61.6795 12.9961C61.6795 6.50434 57.3745 1.23309 52.1353 1.23309C46.8962 1.23309 42.5912 6.50434 42.5912 12.9961C42.5912 19.4878 46.8412 24.7591 52.1353 24.7591ZM52.1353 4.5259C55.6159 4.5259 58.437 8.31676 58.437 12.9961C58.437 17.6754 55.5793 21.4674 52.1353 21.4674C48.6914 21.4674 45.8337 17.6754 45.8337 12.9961C45.8337 8.31676 48.6364 4.5259 52.1353 4.5259ZM28.3208 24.7591C33.5784 24.7591 37.865 19.4878 37.865 12.9961C37.865 6.50434 33.615 1.23309 28.3208 1.23309C23.0267 1.23309 18.7767 6.50434 18.7767 12.9961C18.7767 19.4878 23.0817 24.7591 28.3208 24.7591ZM28.3208 4.5259C31.8014 4.5259 34.6225 8.31676 34.6225 12.9961C34.6225 17.6754 31.8197 21.4674 28.3208 21.4674C24.822 21.4674 22.0192 17.6754 22.0192 12.9961C22.0192 8.31676 24.8769 4.5259 28.3208 4.5259ZM63.1266 54.2215L53.0513 36.411C49.7173 30.5478 45.1559 27.3111 40.2281 27.3111C35.3003 27.3111 30.7389 30.5478 27.4049 36.411L17.3295 54.2032C16.6602 55.3789 16.108 56.6176 15.6808 57.9013C15.0595 59.5373 14.7488 61.2749 14.7649 63.0248C14.8416 70.3409 20.5342 76.3403 27.7713 76.7296H28.3208C30.1527 76.7365 31.9663 76.3644 33.6516 75.6385C34.8607 75.1576 36.8757 74.2325 38.9641 73.2342L39.7152 73.549C43.7795 75.4524 48.1824 76.527 52.6666 76.7101C59.914 76.3495 65.6386 70.3673 65.7462 63.042C65.7055 61.3291 65.4028 59.6325 64.8486 58.0112C64.403 56.6931 63.8261 55.4231 63.1266 54.2203V54.2215ZM52.6483 73.4379C49.323 73.3272 46.0455 72.6126 42.9759 71.329L43.5988 71.0153L45.4306 70.1635C45.5509 70.0925 45.6619 70.0055 45.7604 69.9047L49.3142 68.074C50.1088 67.6606 50.4248 66.6772 50.0241 65.8711C49.9297 65.6798 49.7986 65.509 49.6382 65.3684C49.4778 65.2278 49.2912 65.1201 49.0892 65.0517C48.8872 64.9832 48.6736 64.9552 48.4608 64.9693C48.2479 64.9834 48.04 65.0393 47.8487 65.1338L46.0168 66.0211C43.1774 67.482 38.4328 69.9425 36.4361 70.7748L36.2529 70.9042C34.7324 71.6255 33.3219 72.2541 32.4426 72.6056C31.0649 73.2311 29.5571 73.5165 28.0461 73.4379H27.8812C22.3798 73.1471 18.0405 68.6041 17.9524 63.0431C17.9566 63.0001 17.9566 62.9568 17.9524 62.9138C17.9593 61.5914 18.2077 60.2804 18.6851 59.0485C19.0492 57.9551 19.5209 56.9018 20.0957 55.9045L30.1527 38.0563C32.8822 33.2476 36.4361 30.6589 40.1731 30.6589C43.9102 30.6589 47.5007 33.3037 50.1935 38.0574L60.3239 55.8679C60.8963 56.8663 61.368 57.9196 61.7344 59.0119C62.1958 60.3068 62.4557 61.6681 62.5038 63.0431C62.4259 68.5812 58.1245 73.1185 52.6483 73.4379Z" fill="#F27629"/>
</svg>
