<svg width="23" height="22" viewBox="0 0 23 22" fill="none" xmlns="http://www.w3.org/2000/svg">
<path d="M22.2735 6.26143C22.2735 6.26143 22.0471 4.63096 21.4017 3.91197C21.1251 3.59663 20.7835 3.34483 20.4005 3.17382C20.0174 3.00282 19.6019 2.91665 19.1825 2.92123C16.131 2.69478 11.5 2.65515 11.5 2.65515C11.5 2.65515 6.87468 2.69478 3.80057 2.92123C3.38592 2.92778 2.97691 3.01847 2.59836 3.1878C2.2198 3.35713 1.87957 3.60157 1.5983 3.90631C0.91894 4.6253 0.726454 6.26143 0.726454 6.26143C0.585168 7.54563 0.509584 8.83622 0.5 10.1281L0.5 11.9115C0.508626 13.1921 0.584214 14.4714 0.726454 15.7442C0.726454 15.7442 0.952908 17.3747 1.5983 18.0936C2.43052 19.0448 3.53448 19.0051 4.02702 19.1184C5.77072 19.3108 11.5 19.3448 11.5 19.3448C11.5 19.3448 16.1253 19.3448 19.1994 19.0787C19.6141 19.0722 20.0231 18.9815 20.4016 18.8122C20.7802 18.6428 21.1204 18.3984 21.4017 18.0936C22.0471 17.3747 22.2735 15.7442 22.2735 15.7442C22.4141 14.4713 22.4896 13.1921 22.5 11.9115V10.1281C22.4904 8.83622 22.4148 7.54563 22.2735 6.26143ZM8.84483 15.3988V7.18423L16.0517 11.3963L8.84483 15.3988Z" fill="white"/>
</svg>
