<svg width="125" height="35" viewBox="0 0 125 35" fill="none" xmlns="http://www.w3.org/2000/svg">
<path d="M95.3514 15.9031C95.3514 15.4144 95.3526 14.9064 95.3526 14.3824C95.3526 11.4023 95.6185 8.12216 95.6185 5.258C95.6185 4.2635 94.8752 3.23263 93.6034 3.23263C92.6078 3.23263 91.6155 4.05892 91.6155 5.20344C91.6155 6.82647 91.7383 8.58929 91.8133 11.3273C91.095 10.8909 90.0664 10.534 88.4104 10.534C83.3743 10.534 80.6624 14.4779 80.6624 17.9115C80.6624 19.0344 80.8477 20.0039 81.1716 20.8313C80.6374 21.295 79.9543 21.7099 79.0803 21.7099C78.2063 21.7099 77.3277 20.9802 77.3277 18.2479C77.3277 17.6341 77.4254 15.2007 77.4254 14.3108C77.4254 11.9342 75.7104 10.526 73.1838 10.526C70.6572 10.526 69.1717 11.874 68.2033 13.4277C68.2283 13.0674 68.2453 12.7491 68.2453 12.4843C68.2453 11.2011 67.1656 10.526 66.1995 10.526C65.3596 10.526 64.2401 11.1886 64.2401 12.5252C64.2401 14.2278 64.3753 15.9645 64.4333 17.6796C64.4481 18.099 64.4572 18.5172 64.4583 18.9366C64.398 19.006 64.3412 19.0787 64.2923 19.1549C63.4286 20.4915 62.4738 21.5519 60.5144 21.5519C58.0867 21.5519 57.1695 20.1619 57.1695 17.908C57.1695 16.8579 57.9651 16.1123 57.9651 14.978C57.9651 14.6768 57.9025 14.3722 57.7877 14.0823C57.5883 14.2989 57.364 14.4912 57.1194 14.6552C57.0819 14.6745 57.0467 14.704 57.0115 14.7268C56.9751 14.7506 56.9376 14.7734 56.9001 14.795C56.8592 14.8188 56.8148 14.837 56.7728 14.8598C56.6989 14.9007 56.625 14.9382 56.5489 14.9746C56.4773 15.0087 56.4068 15.0416 56.3341 15.0723C56.2954 15.0893 56.2579 15.1098 56.2181 15.1257C56.167 15.1462 56.1147 15.161 56.0624 15.1791C56.0227 15.1939 55.984 15.211 55.9442 15.2257C55.834 15.2632 55.7215 15.2985 55.6055 15.3167C55.5544 15.3246 55.5055 15.3269 55.4566 15.3269C55.4078 15.3269 55.3589 15.3246 55.3077 15.3167C55.1918 15.2985 55.0793 15.2632 54.969 15.2257C54.9293 15.2121 54.8906 15.1939 54.8508 15.1803C54.7986 15.1621 54.7463 15.1473 54.6951 15.1269C54.6554 15.1109 54.6178 15.0905 54.5792 15.0734C54.5065 15.0427 54.436 15.0098 54.3644 14.9757C54.2882 14.9393 54.2144 14.9018 54.1405 14.8609C54.0984 14.8382 54.0541 14.82 54.0132 14.7961C53.9757 14.7745 53.9382 14.7506 53.9018 14.7279C53.8666 14.7052 53.8313 14.6745 53.7938 14.6563C53.5813 14.5142 53.3824 14.3494 53.2017 14.1676C53.1142 14.4233 53.0664 14.6972 53.0664 14.9814C53.0664 16.06 53.8586 16.8965 53.8586 17.891C53.8586 20.1448 52.8596 21.5519 50.5046 21.5519C48.6383 21.5519 47.5961 20.5244 46.7391 19.1549C46.6812 19.0644 46.6154 18.9792 46.5425 18.9003L46.547 18.898C49.2907 16.26 53.9052 11.2455 53.9052 6.91967C53.9052 3.5611 52.0742 1.2334 48.8327 1.2334C47.2801 1.2334 46.0208 1.67212 45.0547 2.38361C44.058 3.11783 43.3794 4.14643 43.0191 5.2921C42.8175 5.93316 42.7144 6.60112 42.7134 7.27314C42.7134 8.80751 42.7804 10.343 42.8202 11.8763C42.8236 12.0183 42.8293 12.1604 42.8327 12.3025C42.8566 13.4572 42.8702 14.6131 42.8805 15.769C42.8839 16.0634 42.8907 16.3578 42.893 16.6521C42.8987 17.5307 42.6304 17.6296 42.086 18.3081C41.6246 18.8821 40.9199 19.4811 40.5312 19.872C40.0743 20.3312 39.7617 21.2552 40.0061 21.9838C40.247 22.6987 41.4154 23.2477 42.2519 22.585C42.3565 22.5021 42.4554 22.4009 42.527 22.3316C42.6668 22.1963 42.8236 22.0668 42.9691 21.944C43.2078 23.417 42.9646 25.1355 42.9225 26.6301C42.8668 28.6202 42.6486 29.4317 42.6486 31.4196C42.5679 32.696 43.3567 33.9292 44.8752 33.7871C45.8901 33.6916 46.4982 32.9142 46.4891 31.5219C46.4868 31.2048 46.5255 26.5903 46.5107 22.9851C47.5597 23.7966 48.9429 24.4092 50.6035 24.4092C52.264 24.4092 54.2564 23.941 55.5169 22.0065C56.8887 24.1376 59.1425 24.4104 60.4553 24.4104C61.9521 24.4104 63.2513 23.8853 64.2764 23.159C64.4742 24.0978 65.3096 24.7366 66.2575 24.7366C67.2531 24.7366 68.2453 23.9307 68.2453 22.7555C68.2453 22.3816 68.1078 20.7495 68.0283 19.2424C68.0328 17.1863 70.1912 13.58 72.112 13.58C73.069 13.58 73.6918 14.412 73.6918 15.5894C73.6918 16.4942 73.585 18.2797 73.585 19.4629C73.585 22.2554 74.2896 24.7138 78.2335 24.7138C80.11 24.7138 81.5739 23.8603 82.6082 22.9794C83.8891 24.1808 85.6531 24.7275 87.442 24.7275C89.8072 24.7275 91.4007 23.6909 92.4225 22.7339C92.4191 22.8771 92.4168 23.0147 92.4168 23.1408C92.4168 24.1058 92.9306 24.7957 93.8262 24.7957C94.6491 24.7957 95.7345 24.1308 95.7345 23.159C95.7345 23.0033 95.6708 22.0804 95.5935 20.8529C95.5015 19.3754 95.3901 17.458 95.3514 15.9088V15.9031ZM48.7259 4.42376C49.9363 4.42376 50.4284 5.63534 50.4284 6.91853C50.4284 10.0646 48.1223 13.0799 46.4345 15.0155C46.4448 14.6131 46.4573 14.1869 46.4686 13.7505C46.5425 11.0511 46.6334 7.95168 46.6334 7.41521C46.6334 6.38434 47.0267 5.50009 47.5256 4.99204C47.8768 4.63516 48.2951 4.42376 48.7259 4.42376ZM91.869 17.4307C91.8622 19.3401 90.4369 21.836 87.8433 21.836C86.2464 21.836 84.6711 20.5779 84.6711 17.8728C84.6711 14.8154 86.7783 13.4334 88.6945 13.4334C90.1619 13.4334 91.1029 13.9891 91.8679 14.8041C91.8679 15.0314 91.8701 15.2621 91.8701 15.5008V17.4318L91.869 17.4307ZM8.49916 10.06C6.57267 10.06 5.14514 10.7317 4.11654 11.5012C3.85513 10.5499 2.93678 10.0521 2.09913 10.0521C1.26147 10.0521 0.0953501 10.7295 0.0953501 12.0968C0.0953501 13.3299 0.359035 16.7056 0.359035 21.1768C0.359035 25.6481 0.0839844 28.6191 0.0839844 30.3649C0.0839844 31.5594 0.720465 32.4141 1.82976 32.4141C2.84926 32.4141 4.19269 31.5901 4.19269 30.3876C4.19269 29.9478 4.00743 27.1552 3.93924 23.6409C5.6475 24.3888 7.58536 24.7707 10.1131 24.3433C12.3578 23.9637 14.0627 21.8906 14.0627 21.8906C15.0481 20.6063 15.4368 18.6946 15.4368 17.0272C15.4368 12.1138 12.0123 10.06 8.5003 10.06H8.49916ZM7.21938 21.478C6.04644 21.478 4.78712 21.0757 3.91764 20.1653C3.9256 19.2697 3.94265 18.424 3.96538 17.641C3.96879 17.6091 3.97106 17.5739 3.97106 17.5341C3.97106 15.5792 5.43042 13.0128 8.09 13.0128C9.72439 13.0128 11.3349 14.2994 11.3349 17.0681C11.3349 20.1971 9.17997 21.478 7.21938 21.478Z" fill="white"/>
<path d="M37.2863 16.3498C37.2863 15.9384 37.2908 15.5167 37.2908 15.0893V14.9666C37.2908 14.3403 37.3022 13.705 37.3215 13.0697C38.6229 13.089 39.5787 13.1208 40.3016 13.1208C40.5562 13.1208 40.9108 13.0322 41.22 12.8321C41.5814 12.598 41.8814 12.2104 41.8814 11.6012C41.8814 10.7056 41.2529 10.0725 40.263 10.0725C39.3503 10.0725 38.4501 10.0964 37.442 10.1157C37.4863 9.18372 37.5284 8.28697 37.5568 7.44022C37.575 6.8833 37.5886 6.34343 37.5886 5.84334C37.5886 4.77496 36.7544 3.78955 35.5019 3.78955C34.6983 3.78955 33.5674 4.39875 33.4935 5.75241C33.4913 5.79787 33.4799 5.83765 33.4799 5.88425C33.4799 6.21272 33.5538 7.58229 33.6242 9.15758C33.6333 9.46445 33.6413 9.77815 33.647 10.1021C33.2208 10.0873 32.2501 10.0737 31.8512 10.0737C31.2102 10.0737 30.26 10.4805 30.26 11.6194C30.26 12.5741 31.1147 13.1208 31.858 13.1208C32.1751 13.1208 33.1446 13.1026 33.672 13.0844C33.6674 14.1392 33.6481 15.1075 33.622 15.9918C33.5981 16.3737 33.5731 16.7635 33.5504 17.1431C33.5345 17.6932 33.514 18.324 33.5038 18.9173C33.4469 20.1073 33.3969 21.7667 33.3969 22.5021C33.3969 23.6966 33.9061 24.5513 35.5587 24.5081C36.7646 24.4763 37.5056 23.5693 37.5056 22.5248C37.5056 22.2441 37.4318 20.3039 37.3602 18.5343C37.3329 17.8728 37.3067 17.1375 37.284 16.3487L37.2863 16.3498ZM62.4773 8.92345C62.4773 10.113 61.513 11.0772 60.3235 11.0772C59.1339 11.0772 58.1696 10.113 58.1696 8.92345C58.1696 7.73391 59.1339 6.76964 60.3235 6.76964C61.513 6.76964 62.4773 7.73391 62.4773 8.92345ZM29.8736 20.0346C29.3212 20.0346 28.6551 20.5415 28.654 20.5415C28.1426 20.9302 27.5731 21.2621 26.9571 21.453C26.3218 21.6508 25.6785 21.619 25.0227 21.619C22.7541 21.619 21.7277 20.7643 21.2822 19.522C26.5661 19.4799 29.2496 17.3875 29.2496 14.2131C29.2496 11.7683 27.106 10.0373 24.0611 10.0373C20.1138 10.0373 16.8359 13.0162 16.8359 17.7307C16.8359 18.4752 16.9166 19.1617 17.0712 19.7913C17.0712 19.7913 17.3519 21.0404 18.1146 22.0156C19.3887 23.6727 21.5982 24.5547 24.6726 24.5547C26.3866 24.5547 28.1994 24.1251 29.7281 23.35C30.3236 23.0476 31.0204 22.7123 31.2352 22.0315C31.392 21.5337 31.3125 20.9461 30.9806 20.5347C30.7101 20.1994 30.2986 20.0368 29.8724 20.0368L29.8736 20.0346ZM24.0123 12.6491C25.3852 12.6491 25.8569 13.7311 25.8569 14.396C25.8569 16.002 24.8113 17.0261 20.9617 17.0863C20.9731 13.6414 22.8575 12.6491 24.0123 12.6491ZM121.005 10.1112C118.917 10.1112 117.305 11.5762 116.368 13.0015C116.393 12.6423 116.41 12.3263 116.41 12.0627C116.41 10.7795 115.33 10.1043 114.365 10.1043C113.525 10.1043 112.406 10.767 112.406 12.1036C112.406 13.3083 112.664 15.1837 112.664 17.1261C112.664 17.4489 112.655 17.7569 112.643 18.0581C112.598 19.3765 112.53 20.1357 112.415 21.5144C112.403 21.7758 112.396 22.0384 112.396 22.3066C112.396 23.475 113.339 24.3092 114.424 24.3092C115.421 24.3092 116.412 23.5034 116.412 22.3282C116.412 21.952 116.273 20.3051 116.194 18.79C116.212 16.3805 118.681 13.4538 119.899 13.4538C120.7 13.4538 120.523 14.5597 122.028 14.5597C123.026 14.5597 123.959 13.7584 123.959 12.615C123.959 11.6285 123.291 10.1089 121.007 10.1089L121.005 10.1112ZM109.842 19.9482C109.289 19.9482 108.623 20.4551 108.622 20.4551C108.111 20.8438 107.541 21.1757 106.925 21.3666C106.29 21.5644 105.647 21.5326 104.991 21.5326C102.722 21.5326 101.696 20.6779 101.25 19.4356C106.534 19.3935 109.218 17.3011 109.218 14.1267C109.218 11.6819 107.074 9.95091 104.029 9.95091C100.082 9.95091 96.804 12.9299 96.804 17.6432C96.804 18.3877 96.8847 19.0742 97.0393 19.7038C97.0393 19.7038 97.32 20.9529 98.0827 21.9281C99.3567 23.5852 101.566 24.4672 104.641 24.4672C106.355 24.4672 108.167 24.0376 109.696 23.2624C110.292 22.9601 110.988 22.6248 111.203 21.944C111.36 21.4462 111.281 20.8586 110.949 20.4471C110.678 20.1119 110.267 19.9493 109.84 19.9493L109.842 19.9482ZM103.98 12.5627C105.353 12.5627 105.825 13.6448 105.825 14.3097C105.825 15.9156 104.779 16.9397 100.93 16.9999C100.941 13.555 102.826 12.5627 103.98 12.5627Z" fill="white"/>
<path d="M58.3936 13.7629C58.3402 13.6299 58.2731 13.5015 58.1913 13.3833C57.9412 13.0196 57.5423 12.7991 57.1081 12.7298C57.0081 12.7138 56.9047 12.7048 56.799 12.7036C56.4841 12.7002 56.1591 12.7673 55.8965 12.9252C55.8079 12.9787 55.7272 13.04 55.6533 13.1105C55.5794 13.1798 55.5135 13.2583 55.4556 13.3412C55.3396 13.173 55.1893 13.0312 55.0146 12.9252C54.927 12.873 54.8327 12.8298 54.7338 12.7968C54.5361 12.7309 54.3224 12.7013 54.1121 12.7036C54.0076 12.7048 53.903 12.7138 53.803 12.7298C53.3688 12.7991 52.971 13.0196 52.7198 13.3833C52.638 13.5015 52.5709 13.6299 52.5175 13.7629C52.2402 14.4471 52.3573 15.2177 52.7732 15.8769C53.0324 16.2872 53.3893 16.6271 53.7916 16.8953C53.8291 16.9146 53.8644 16.9442 53.8996 16.9669C53.936 16.9908 53.9735 17.0135 54.011 17.0351C54.0519 17.059 54.0962 17.0771 54.1383 17.0999C54.2121 17.1408 54.2872 17.1783 54.3622 17.2147C54.4338 17.2488 54.5042 17.2817 54.577 17.3124C54.6156 17.3295 54.6531 17.3499 54.6929 17.3658C54.7441 17.3863 54.7963 17.4011 54.8486 17.4193C54.8884 17.434 54.927 17.4511 54.9668 17.4647C55.0782 17.5022 55.1896 17.5375 55.3055 17.5556C55.3567 17.5636 55.4055 17.5659 55.4544 17.5659C55.5033 17.5659 55.5522 17.5636 55.6033 17.5556C55.7192 17.5375 55.8318 17.5022 55.942 17.4647C55.9818 17.4511 56.0204 17.4329 56.0602 17.4181C56.1125 17.3999 56.1648 17.3852 56.2159 17.3647C56.2557 17.3488 56.2932 17.3283 56.3319 17.3113C56.4046 17.2806 56.4751 17.2476 56.5467 17.2135C56.6228 17.1772 56.6967 17.1397 56.7706 17.0987C56.8126 17.076 56.8569 17.0578 56.8979 17.034C56.9354 17.0124 56.9729 16.9885 57.0092 16.9658C57.0445 16.943 57.0797 16.9123 57.1172 16.8942C57.5184 16.6248 57.8765 16.285 58.1356 15.8758C58.5516 15.2166 58.6686 14.446 58.3913 13.7618L58.3936 13.7629Z" fill="#C22A22"/>
<path d="M54.7111 30.0534C54.7111 30.3853 54.5986 30.641 54.3712 30.8195C54.1451 30.9979 53.8211 31.0877 53.3995 31.0877H53.0142V32.3766H52.6334V29.0999H53.4824C54.3019 29.0999 54.7111 29.4181 54.7111 30.0546V30.0534ZM53.0142 30.7593H53.3574C53.695 30.7593 53.9393 30.7047 54.0905 30.5956C54.2417 30.4865 54.3167 30.3114 54.3167 30.0705C54.3167 29.8534 54.2451 29.6931 54.1041 29.5863C53.9621 29.4806 53.7404 29.4272 53.4404 29.4272H53.0142V30.7581V30.7593ZM58.7016 30.732C58.7016 31.2571 58.5686 31.6685 58.3038 31.9697C58.039 32.2698 57.6696 32.4198 57.1979 32.4198C56.7262 32.4198 56.3432 32.272 56.0806 31.9777C55.8181 31.6821 55.6874 31.2662 55.6874 30.7274C55.6874 30.1887 55.8192 29.7807 56.0818 29.4874C56.3443 29.1931 56.7183 29.0464 57.2024 29.0464C57.6866 29.0464 58.0412 29.1953 58.3049 29.4954C58.5697 29.7943 58.7016 30.2069 58.7016 30.7331V30.732ZM56.0897 30.732C56.0897 31.1752 56.1841 31.5128 56.3727 31.7412C56.5614 31.9708 56.8365 32.0856 57.1968 32.0856C57.5571 32.0856 57.8344 31.972 58.0196 31.7424C58.2049 31.5139 58.297 31.1764 58.297 30.732C58.297 30.2876 58.2049 29.9568 58.0196 29.7295C57.8355 29.5011 57.5627 29.3874 57.2002 29.3874C56.8376 29.3874 56.5614 29.5022 56.3716 29.7318C56.1829 29.9614 56.0886 30.2955 56.0886 30.7331L56.0897 30.732ZM62.7512 32.3755H62.3738L61.7124 30.1807C61.6817 30.0841 61.6453 29.9614 61.6067 29.8136C61.568 29.6659 61.5476 29.5772 61.5464 29.5465C61.5135 29.7443 61.4612 29.9602 61.3896 30.1944L60.7485 32.3755H60.3723L59.5006 29.0987H59.9041L60.4224 31.123C60.494 31.4071 60.5462 31.664 60.5792 31.8936C60.619 31.6196 60.6792 31.3525 60.7588 31.0911L61.3464 29.0987H61.7499L62.3659 31.1093C62.4375 31.3412 62.4977 31.6026 62.5477 31.8936C62.5762 31.681 62.6296 31.4219 62.7091 31.1173L63.2251 29.0976H63.6286L62.7523 32.3743L62.7512 32.3755ZM66.4269 32.3755H64.6004V29.0987H66.4269V29.4374H64.9811V30.4933H66.3393V30.8297H64.9811V32.0356H66.4269V32.3766V32.3755ZM67.9942 31.0127V32.3755H67.6134V29.0987H68.5125C68.9148 29.0987 69.2115 29.176 69.4035 29.3294C69.5956 29.484 69.6911 29.7147 69.6911 30.0239C69.6911 30.4581 69.4717 30.7502 69.0319 30.9025L69.9218 32.3755H69.4717L68.6784 31.0127H67.9942ZM67.9942 30.6854H68.517C68.7864 30.6854 68.983 30.632 69.1092 30.5251C69.2342 30.4183 69.2978 30.258 69.2978 30.0443C69.2978 29.8307 69.2342 29.6716 69.1058 29.5761C68.9785 29.4806 68.7727 29.4329 68.4909 29.4329H67.9953V30.6865L67.9942 30.6854ZM72.7371 32.3755H70.9106V29.0987H72.7371V29.4374H71.2914V30.4933H72.6496V30.8297H71.2914V32.0356H72.7371V32.3766V32.3755ZM76.5389 30.7058C76.5389 31.2468 76.3923 31.6606 76.0979 31.9458C75.8047 32.2322 75.3819 32.3755 74.8307 32.3755H73.9226V29.0987H74.9261C75.4365 29.0987 75.832 29.2397 76.1139 29.5227C76.3957 29.8057 76.5378 30.2001 76.5378 30.707L76.5389 30.7058ZM76.1355 30.7195C76.1355 30.2921 76.0286 29.9705 75.8138 29.7534C75.599 29.5363 75.2808 29.4283 74.858 29.4283H74.3044V32.0459H74.7682C75.2228 32.0459 75.5638 31.9345 75.7922 31.7106C76.0207 31.4867 76.1355 31.1559 76.1355 30.7183V30.7195ZM79.3804 29.0976H80.3055C80.7408 29.0976 81.0545 29.1624 81.2489 29.2931C81.4432 29.4226 81.5399 29.6284 81.5399 29.9091C81.5399 30.1034 81.4853 30.2637 81.3773 30.3899C81.2682 30.516 81.1114 30.5979 80.9034 30.6354V30.657C81.4012 30.7422 81.6501 31.0036 81.6501 31.4412C81.6501 31.7344 81.5512 31.9629 81.3535 32.1265C81.1557 32.2913 80.8784 32.3732 80.5226 32.3732H79.3792V29.0964L79.3804 29.0976ZM79.7611 30.5013H80.3885C80.6579 30.5013 80.8511 30.4592 80.9693 30.3751C81.0875 30.291 81.1466 30.1489 81.1466 29.9477C81.1466 29.7636 81.0807 29.6318 80.9488 29.5499C80.817 29.4681 80.6079 29.4283 80.3215 29.4283H79.7611V30.5024V30.5013ZM79.7611 30.824V32.0504H80.4453C80.7102 32.0504 80.9091 31.9993 81.042 31.8958C81.1762 31.7935 81.2432 31.6333 81.2432 31.4151C81.2432 31.2127 81.175 31.0627 81.0375 30.9672C80.9011 30.8718 80.6931 30.8229 80.4135 30.8229H79.7611V30.824ZM83.6482 30.7365L84.5222 29.0987H84.9348L83.8414 31.1048V32.3755H83.4561V31.123L82.365 29.0987H82.7821L83.6493 30.7365H83.6482ZM87.4523 27.6882H116.331V33.778H87.4523V27.6882Z" fill="white"/>
<path d="M93.3466 32.9926V27.8849H87.6489V33.5825H116.135V32.9926H93.3454H93.3466ZM92.7567 32.9926H88.2377V28.4736H92.7567V32.9926Z" fill="#C22A22"/>
<path d="M88.4343 28.6703H89.8096V30.0455H88.4343V28.6703ZM88.4343 31.4208H89.8096V32.796H88.4343V31.4208ZM89.8096 30.0455H91.1848V31.4208H89.8096V30.0455ZM91.1848 28.6703H92.5601V30.0455H91.1848V28.6703ZM91.1848 31.4208H92.5601V32.796H91.1848V31.4208Z" fill="#C22A22"/>
<path d="M93.342 27.8849H116.135V32.9926H93.342V27.8849Z" fill="black"/>
<path d="M107.856 29.0294C107.856 28.9703 107.888 28.9385 107.947 28.9385H108.394C108.439 28.9385 108.475 28.9567 108.503 28.9976L109.605 30.6649C109.71 30.824 109.823 30.9934 109.943 31.1889C109.961 31.2207 109.993 31.2162 109.993 31.1798C109.988 30.9934 109.979 30.7149 109.979 30.5285V29.0294C109.979 28.9703 110.011 28.9385 110.07 28.9385H110.435C110.494 28.9385 110.526 28.9703 110.526 29.0294V32.0356C110.526 32.0947 110.494 32.1266 110.435 32.1266H110.002C109.956 32.1266 109.92 32.1084 109.893 32.0675L108.777 30.4001C108.668 30.241 108.558 30.0716 108.439 29.8761C108.421 29.8443 108.389 29.8489 108.389 29.8852C108.394 30.0716 108.403 30.3501 108.403 30.5365V32.0356C108.403 32.0947 108.371 32.1266 108.312 32.1266H107.947C107.888 32.1266 107.856 32.0947 107.856 32.0356V29.0294ZM105.975 28.9385H106.344C106.356 28.9385 106.368 28.9408 106.379 28.9454C106.39 28.95 106.4 28.9567 106.409 28.9651C106.417 28.9736 106.424 28.9836 106.428 28.9946C106.433 29.0056 106.435 29.0175 106.435 29.0294V32.0356C106.435 32.0598 106.426 32.0829 106.409 32.0999C106.392 32.117 106.369 32.1266 106.344 32.1266H105.975C105.951 32.1266 105.928 32.117 105.911 32.0999C105.894 32.0829 105.884 32.0598 105.884 32.0356V29.0294C105.884 29.0175 105.886 29.0056 105.891 28.9946C105.896 28.9836 105.902 28.9736 105.911 28.9651C105.919 28.9567 105.929 28.95 105.94 28.9454C105.951 28.9408 105.963 28.9385 105.975 28.9385ZM104.713 31.6674C104.6 31.6674 104.5 31.6674 104.441 31.6492C104.377 31.631 104.341 31.5946 104.304 31.5401L103.935 30.9934C103.917 30.9661 103.926 30.9479 103.958 30.9343C104.067 30.8888 104.167 30.8206 104.25 30.7388C104.436 30.5524 104.551 30.2739 104.551 29.983C104.551 29.692 104.442 29.4045 104.25 29.2181C104.068 29.0362 103.853 28.9408 103.494 28.9408H102.241C102.182 28.9408 102.15 28.9726 102.15 29.0317V32.0379C102.15 32.097 102.182 32.1288 102.241 32.1288H102.615C102.674 32.1288 102.706 32.097 102.706 32.0379V31.0627C102.706 31.0355 102.724 31.0173 102.752 31.0173H103.217C103.276 31.0173 103.321 31.04 103.353 31.09L103.872 31.864C104.059 32.1413 104.242 32.197 104.533 32.197C104.578 32.197 104.701 32.197 104.742 32.1834C104.787 32.1698 104.805 32.1379 104.805 32.097V31.7594C104.805 31.7003 104.774 31.6685 104.715 31.6685L104.713 31.6674ZM103.835 30.3467C103.739 30.4331 103.635 30.4785 103.461 30.4785H102.751C102.723 30.4785 102.705 30.4603 102.705 30.4331V29.5215C102.705 29.4943 102.723 29.4761 102.751 29.4761H103.461C103.634 29.4761 103.739 29.5215 103.83 29.6079C103.926 29.6943 103.976 29.8352 103.976 29.9819C103.976 30.1182 103.926 30.2592 103.835 30.3467ZM98.5543 31.8174C98.3225 31.5901 98.2077 31.298 98.2077 30.8377V29.0294C98.2077 28.9703 98.2395 28.9385 98.2986 28.9385L98.6816 28.943C98.7407 28.943 98.7726 28.9748 98.7726 29.0339V30.9104C98.7726 31.1696 98.8408 31.3253 98.9726 31.4662C99.0999 31.6071 99.3102 31.6708 99.5148 31.6708C99.7193 31.6708 99.9432 31.6071 100.075 31.4662C100.202 31.3253 100.266 31.1707 100.266 30.9104V29.0294C100.266 28.9703 100.298 28.9385 100.357 28.9385H100.74C100.799 28.9385 100.831 28.9703 100.831 29.0294V30.8604C100.831 31.3162 100.717 31.589 100.489 31.822C100.252 32.0629 99.8875 32.1959 99.5136 32.1959C99.1397 32.1959 98.7851 32.055 98.5521 31.8174M96.8143 29.2351C96.6142 29.0396 96.3858 28.9396 95.9993 28.9396H94.6877C94.6286 28.9396 94.5968 28.9714 94.5968 29.0305V32.0368C94.5968 32.0959 94.6286 32.1277 94.6877 32.1277H95.0617C95.1208 32.1277 95.1526 32.0959 95.1526 32.0368V31.2082C95.1526 31.1809 95.1708 31.1627 95.1981 31.1627H95.9811C96.3733 31.1627 96.6142 31.0627 96.8097 30.8672C97.0097 30.6672 97.1336 30.3706 97.1336 30.0569C97.1336 29.7432 97.0154 29.4374 96.8143 29.2374V29.2351ZM96.404 30.474C96.2994 30.574 96.1766 30.624 95.9755 30.624H95.1969C95.1696 30.624 95.1514 30.6058 95.1514 30.5786V29.5215C95.1514 29.4943 95.1696 29.4761 95.1969 29.4761H95.9755C96.1755 29.4761 96.2994 29.5306 96.404 29.6261C96.5131 29.7261 96.5676 29.8898 96.5676 30.0546C96.5676 30.2194 96.5131 30.374 96.404 30.474ZM114.685 32.022L113.437 29.0067C113.418 28.9567 113.382 28.9385 113.332 28.9385H112.858C112.808 28.9385 112.772 28.9658 112.754 29.0112L111.519 32.022C111.492 32.0856 111.524 32.1266 111.592 32.1266H111.993C112.043 32.1266 112.08 32.0993 112.098 32.0538L112.339 31.4571C112.352 31.4207 112.375 31.4071 112.411 31.4071H113.778C113.814 31.4071 113.837 31.4207 113.85 31.4571L114.096 32.0538C114.114 32.0993 114.15 32.1266 114.2 32.1266H114.615C114.683 32.1266 114.711 32.0856 114.683 32.022H114.685ZM113.55 30.8741H112.634C112.593 30.8741 112.571 30.8513 112.589 30.8104L112.793 30.2774C112.884 30.0455 112.966 29.8307 113.057 29.5897C113.075 29.5397 113.102 29.5397 113.121 29.5897C113.212 29.8307 113.293 30.0455 113.384 30.2774L113.589 30.8104C113.607 30.8513 113.589 30.8741 113.548 30.8741H113.55Z" fill="white"/>
<path d="M114.744 28.7009C114.455 28.7009 114.222 28.9328 114.222 29.2226C114.222 29.2912 114.235 29.3592 114.261 29.4226C114.287 29.486 114.326 29.5437 114.374 29.5922C114.423 29.6407 114.48 29.6791 114.544 29.7052C114.607 29.7313 114.675 29.7446 114.744 29.7443C115.034 29.7443 115.265 29.5113 115.265 29.2226C115.265 28.9339 115.034 28.7009 114.744 28.7009ZM114.744 29.6568C114.506 29.6568 114.315 29.4556 114.315 29.2226C114.315 28.9896 114.506 28.7941 114.744 28.7941C114.981 28.7941 115.178 28.9851 115.178 29.2226C115.178 29.4602 114.981 29.6568 114.744 29.6568Z" fill="white"/>
<path d="M114.91 29.3829L114.847 29.2897C114.924 29.2635 114.966 29.1919 114.966 29.1192C114.966 29.0214 114.899 28.9385 114.78 28.9385H114.548V29.4909H114.646V29.2999H114.739L114.837 29.4443C114.878 29.5068 114.91 29.5068 114.987 29.5011V29.4136C114.946 29.4136 114.936 29.4192 114.91 29.3829ZM114.776 29.2078H114.646V29.0328H114.776C114.816 29.0328 114.863 29.0533 114.863 29.1203C114.863 29.1828 114.822 29.2078 114.776 29.2078Z" fill="white"/>
<path d="M120.455 23.1295C120.455 23.7773 120.033 24.324 119.274 24.324C118.515 24.324 118.093 23.7773 118.093 23.1295C118.093 22.4816 118.518 21.9349 119.274 21.9349C120.03 21.9349 120.455 22.4782 120.455 23.1295ZM118.341 23.1227C118.341 23.6659 118.678 24.0978 119.274 24.0978C119.87 24.0978 120.209 23.6659 120.209 23.1261C120.209 22.5862 119.87 22.1509 119.274 22.1509C118.678 22.1509 118.341 22.5828 118.341 23.1295V23.1227ZM119.499 23.2738C119.967 23.1954 119.918 22.4987 119.384 22.4987H118.822V23.7262H119.048V23.3011H119.26L119.6 23.7262H119.849V23.6807L119.499 23.2715V23.275V23.2738ZM119.384 22.7112C119.663 22.7112 119.659 23.1067 119.377 23.1067H119.047V22.7112H119.384Z" fill="white"/>
</svg>
