<svg width="15" height="24" viewBox="0 0 15 24" fill="none" xmlns="http://www.w3.org/2000/svg">
<g clip-path="url(#clip0_2_718)">
<g clip-path="url(#clip1_2_718)">
<path d="M8.8833 8.74925C8.50926 8.39634 8.01447 8.19976 7.50023 8.19976C6.98599 8.19976 6.4912 8.39634 6.11717 8.74925L1.09297 13.7734C0.905215 13.9574 0.756053 14.177 0.654223 14.4193C0.552393 14.6617 0.499942 14.9219 0.499942 15.1847C0.499942 15.4476 0.552393 15.7078 0.654223 15.9501C0.756053 16.1925 0.905215 16.4121 1.09297 16.596C1.27694 16.7838 1.49652 16.9329 1.73885 17.0348C1.98118 17.1366 2.2414 17.1891 2.50426 17.1891C2.76712 17.1891 3.02734 17.1366 3.26967 17.0348C3.51201 16.9329 3.73159 16.7838 3.91555 16.596L7.52846 12.9831L11.0849 16.596C11.2689 16.7838 11.4885 16.9329 11.7308 17.0348C11.9731 17.1366 12.2333 17.1891 12.4962 17.1891C12.7591 17.1891 13.0193 17.1366 13.2616 17.0348C13.5039 16.9329 13.7235 16.7838 13.9075 16.596C14.0952 16.4121 14.2444 16.1925 14.3462 15.9501C14.4481 15.7078 14.5005 15.4476 14.5005 15.1847C14.5005 14.9219 14.4481 14.6617 14.3462 14.4193C14.2444 14.177 14.0952 13.9574 13.9075 13.7734L8.8833 8.74925Z" fill="#F27629"/>
</g>
</g>
<defs>
<clipPath id="clip0_2_718">
<rect width="14" height="22.39" fill="white" transform="matrix(-1 0 0 -1 14.5 23.89)"/>
</clipPath>
<clipPath id="clip1_2_718">
<rect width="14" height="8.9871" fill="white" transform="matrix(-1 0 0 -1 14.5 17.1886)"/>
</clipPath>
</defs>
</svg>
