<svg width="101" height="101" viewBox="0 0 101 101" fill="none" xmlns="http://www.w3.org/2000/svg">
<g clip-path="url(#clip0_2_202)">
<g clip-path="url(#clip1_2_202)">
<path d="M88.5732 32.2495L51.4144 13.9143C51.0499 13.7367 50.6251 13.7367 50.2606 13.9143L13.086 32.2495C12.781 32.3941 12.5468 32.657 12.4366 32.9786C12.3265 33.3001 12.3498 33.653 12.5012 33.9569C12.8311 34.5921 13.6018 34.8467 14.2398 34.5314L50.8296 16.4834L87.4194 34.5314C87.6022 34.6183 87.8022 34.662 88.0042 34.6591C88.4886 34.6611 88.9336 34.3902 89.1581 33.9569C89.3094 33.653 89.3327 33.3001 89.2226 32.9786C89.1125 32.657 88.8783 32.3941 88.5732 32.2495Z" fill="#F27629"/>
<path d="M76.7981 72.0476C75.8025 71.5921 74.6727 71.5351 73.637 71.888L59.9494 75.0795C60.0675 73.906 59.7524 72.7297 59.0643 71.7763C58.304 70.737 57.1679 70.0431 55.9032 69.8455L43.8436 67.2125H43.6855C40.958 66.4549 38.0389 66.9325 35.6879 68.521C33.7438 69.8455 24.1815 76.1008 24.0708 76.1647C23.786 76.3475 23.5866 76.639 23.5181 76.9727C23.4496 77.3064 23.5179 77.6539 23.7073 77.9359C23.9488 78.2958 24.3516 78.511 24.7821 78.5104C25.034 78.5116 25.2809 78.4396 25.4933 78.303C25.8885 78.0476 35.1979 71.92 37.142 70.6274C38.9567 69.4011 41.2264 69.078 43.3062 69.7497H43.4168L55.3974 72.3668C56.0274 72.4444 56.5984 72.7788 56.978 73.2923C57.3411 73.7866 57.4894 74.4087 57.3889 75.0157C57.1711 76.2742 56.0017 77.1296 54.7494 76.9466L46.8466 75.3508C46.509 75.2646 46.1511 75.3192 45.8538 75.5023C45.5565 75.6854 45.3446 75.9816 45.2661 76.3242C45.1963 76.6588 45.2625 77.0077 45.4496 77.2927C45.6368 77.5776 45.9294 77.7749 46.2618 77.8402L54.1646 79.4359C54.4276 79.4574 54.6919 79.4574 54.9549 79.4359C56.2729 79.4297 57.5348 78.896 58.4637 77.9519L74.2692 74.2498H74.4115C74.8224 74.0837 75.2808 74.0837 75.6917 74.2498C76.0996 74.4264 76.415 74.7681 76.561 75.1912C76.7609 75.6109 76.7692 76.0977 76.5839 76.524C76.3986 76.9504 76.0381 77.2737 75.5969 77.4093L58.6376 83.5051C57.8031 83.8555 56.8712 83.8895 56.0138 83.6009L41.7889 80.6008C41.4881 80.5374 41.1749 80.5826 40.9037 80.7285L31.0885 85.9147C30.7903 86.0707 30.5669 86.3414 30.4687 86.6657C30.3706 86.9899 30.406 87.3405 30.5669 87.6381C30.9138 88.2646 31.6918 88.4981 32.3213 88.1647L41.8047 83.186L55.5555 86.0902C56.9108 86.4881 58.3598 86.4093 59.6649 85.8668L76.5136 79.803C78.1192 79.2391 79.2177 77.7385 79.2806 76.0234C79.3435 74.3083 78.358 72.7299 76.7981 72.0476Z" fill="#F27629"/>
<path fill-rule="evenodd" clip-rule="evenodd" d="M34.5025 44.1059C34.3119 46.7347 36.262 49.0244 38.8648 49.2283C41.4424 48.9916 43.3558 46.7118 43.1639 44.1059C43.3545 41.4771 41.4045 39.1874 38.8016 38.9835C36.2241 39.2202 34.3107 41.5 34.5025 44.1059ZM41.0302 44.1059C41.1873 45.5145 40.2438 46.8077 38.8648 47.074C37.4603 46.8371 36.4828 45.5352 36.6362 44.1059C36.4801 42.6922 37.432 41.3968 38.8174 41.1378C40.1964 41.4041 41.1399 42.6973 40.9828 44.1059H41.0302Z" fill="#F27629"/>
<path fill-rule="evenodd" clip-rule="evenodd" d="M67.2042 44.1059C67.3947 46.7347 65.4447 49.0244 62.8418 49.2283C60.2453 49.0162 58.3045 46.7289 58.4953 44.1059C58.3045 41.4829 60.2453 39.1956 62.8418 38.9835C65.4447 39.1874 67.3947 41.4771 67.2042 44.1059ZM65.023 44.1059C65.188 42.6864 64.234 41.3811 62.8418 41.1219C61.4561 41.3884 60.5105 42.6916 60.6765 44.1059C60.5203 45.5196 61.4723 46.815 62.8576 47.074C64.2366 46.8077 65.1801 45.5145 65.023 44.1059Z" fill="#F27629"/>
<path fill-rule="evenodd" clip-rule="evenodd" d="M55.7293 30.6698C53.1265 30.8736 51.1764 33.1634 51.367 35.7921C51.1764 38.4209 53.1265 40.7107 55.7293 40.9145C58.3322 40.7107 60.2822 38.4209 60.0917 35.7921C60.2822 33.1634 58.3322 30.8736 55.7293 30.6698ZM55.7293 38.7762C54.3503 38.5099 53.4069 37.2167 53.564 35.8081C53.4069 34.3995 54.3503 33.1063 55.7293 32.84C57.1083 33.1063 58.0518 34.3995 57.8947 35.8081C58.0518 37.2167 57.1083 38.5099 55.7293 38.7762Z" fill="#F27629"/>
<path fill-rule="evenodd" clip-rule="evenodd" d="M41.5676 35.7921C41.377 33.1634 43.327 30.8736 45.9299 30.6698C48.5391 30.8653 50.4984 33.1576 50.308 35.7921C50.4984 38.4267 48.5391 40.719 45.9299 40.9145C43.327 40.7107 41.377 38.4209 41.5676 35.7921ZM43.7645 35.8081C43.6074 37.2167 44.5509 38.5099 45.9299 38.7762C47.3089 38.5099 48.2524 37.2167 48.0953 35.8081C48.2524 34.3995 47.3089 33.1063 45.9299 32.84C44.5509 33.1063 43.6074 34.3995 43.7645 35.8081Z" fill="#F27629"/>
<path fill-rule="evenodd" clip-rule="evenodd" d="M45.1712 44.9677L40.9986 52.0848C40.7058 52.5895 40.4674 53.1245 40.2873 53.6805C40.0096 54.3861 39.8701 55.1394 39.8764 55.8986C39.9495 59.0976 42.4781 61.6855 45.6454 61.8029H45.9457C46.7416 61.8076 47.5307 61.6558 48.2691 61.3561L48.9646 61.1327C49.561 60.8995 50.1908 60.7648 50.8296 60.7337C51.4686 60.7642 52.0984 60.899 52.6947 61.1327L53.4691 61.3242C54.2656 61.5669 55.0882 61.7116 55.919 61.755H55.998C59.1738 61.629 61.7026 59.0269 61.7671 55.8188C61.7469 55.0896 61.6136 54.368 61.3719 53.6805C61.1823 53.1257 60.9388 52.5911 60.6449 52.0848L56.4722 44.9518C55.4154 42.7271 53.2524 41.2509 50.8138 41.09C48.3776 41.2596 46.221 42.7416 45.1712 44.9677ZM54.6546 46.0528L58.8272 53.1858C59.0486 53.5607 59.2338 53.9561 59.3804 54.3667C59.5422 54.8342 59.6328 55.3238 59.6491 55.8188C59.6024 57.8449 58.0183 59.4929 56.0138 59.6008C55.3761 59.5638 54.7448 59.4513 54.133 59.2656L53.4533 59.0582C52.6186 58.7116 51.7312 58.5119 50.8296 58.4678C49.9593 58.4953 49.0995 58.6678 48.2849 58.9784L47.6053 59.1859H47.4789C46.9786 59.3966 46.4403 59.4999 45.8983 59.4891H45.756C43.7328 59.4142 42.1145 57.7664 42.0576 55.7231C42.0895 55.2531 42.2074 54.7933 42.4053 54.3667C42.5492 53.955 42.7346 53.5593 42.9585 53.1858L47.1311 46.0528C47.817 44.5262 49.2439 43.4729 50.8928 43.2762C52.5148 43.4907 53.9127 44.5341 54.5913 46.0369L54.6546 46.0528Z" fill="#F27629"/>
</g>
</g>
<defs>
<clipPath id="clip0_2_202">
<rect width="100" height="100" fill="white" transform="translate(0.830017 0.190063)"/>
</clipPath>
<clipPath id="clip1_2_202">
<rect width="100" height="100" fill="white" transform="translate(0.830017 0.190063)"/>
</clipPath>
</defs>
</svg>
