<svg width="80" height="79" viewBox="0 0 80 79" fill="none" xmlns="http://www.w3.org/2000/svg">
<path d="M20.6087 33.7296C20.6087 27.2378 16.3221 21.9666 11.0645 21.9666C5.80704 21.9666 1.52043 27.2378 1.52043 33.7284C1.52043 40.2202 5.80704 45.4731 11.0645 45.4731C16.3221 45.4731 20.6087 40.203 20.6087 33.7296ZM11.0645 42.1814C7.58397 42.1814 4.76287 38.3894 4.76287 33.7101C4.76287 29.0308 7.58397 25.2399 11.0645 25.2399C14.5451 25.2399 17.3296 29.0491 17.3296 33.7284C17.3296 38.4077 14.5451 42.1814 11.0645 42.1814ZM78.9358 33.7101C78.9358 27.2367 74.6492 21.9666 69.3917 21.9666C64.1342 21.9666 59.8476 27.2378 59.8476 33.7284C59.7812 34.3547 60.0755 34.9649 60.6033 35.2993C60.862 35.4631 61.162 35.5501 61.4683 35.5501C61.7745 35.5501 62.0745 35.4631 62.3333 35.2993C62.5934 35.1342 62.8021 34.8995 62.9357 34.6219C63.0692 34.3442 63.1223 34.0347 63.0889 33.7284C63.0889 29.0686 65.9112 25.2583 69.3917 25.2583C72.8723 25.2583 75.6934 29.0491 75.6934 33.7284C75.6934 38.3894 72.8723 42.1814 69.3917 42.1814C69.1765 42.1823 68.9636 42.2256 68.7652 42.3089C68.5667 42.3922 68.3866 42.5137 68.2352 42.6666C68.0838 42.8195 67.964 43.0008 67.8827 43.2001C67.8014 43.3993 67.7602 43.6126 67.7614 43.8278C67.7603 44.0429 67.8016 44.2561 67.883 44.4553C67.9644 44.6544 68.0842 44.8355 68.2356 44.9883C68.387 45.1411 68.5671 45.2625 68.7654 45.3457C68.9638 45.4289 69.1766 45.4722 69.3917 45.4731C74.6492 45.4731 78.9358 40.2018 78.9358 33.7101ZM52.1354 24.7591C57.3929 24.7591 61.6795 19.4878 61.6795 12.9961C61.6795 6.50434 57.3746 1.23309 52.1354 1.23309C46.8962 1.23309 42.5913 6.50434 42.5913 12.9961C42.5913 19.4878 46.8412 24.7591 52.1354 24.7591ZM52.1354 4.5259C55.616 4.5259 58.4371 8.31676 58.4371 12.9961C58.4371 17.6754 55.5793 21.4674 52.1354 21.4674C48.6914 21.4674 45.8337 17.6754 45.8337 12.9961C45.8337 8.31676 48.6365 4.5259 52.1354 4.5259ZM28.3209 24.7591C33.5784 24.7591 37.865 19.4878 37.865 12.9961C37.865 6.50434 33.615 1.23309 28.3209 1.23309C23.0268 1.23309 18.7768 6.50434 18.7768 12.9961C18.7768 19.4878 23.0817 24.7591 28.3209 24.7591ZM28.3209 4.5259C31.8015 4.5259 34.6226 8.31676 34.6226 12.9961C34.6226 17.6754 31.8198 21.4674 28.3209 21.4674C24.822 21.4674 22.0192 17.6754 22.0192 12.9961C22.0192 8.31676 24.877 4.5259 28.3209 4.5259ZM63.1267 54.2215L53.0513 36.411C49.7173 30.5478 45.1559 27.3111 40.2281 27.3111C35.3004 27.3111 30.739 30.5478 27.405 36.411L17.3296 54.2032C16.6603 55.3789 16.1081 56.6176 15.6809 57.9013C15.0595 59.5373 14.7489 61.2749 14.765 63.0248C14.8417 70.3409 20.5342 76.3403 27.7713 76.7296H28.3209C30.1528 76.7365 31.9663 76.3644 33.6517 75.6385C34.8607 75.1576 36.8758 74.2325 38.9641 73.2342L39.7152 73.549C43.7796 75.4524 48.1824 76.527 52.6666 76.7101C59.914 76.3495 65.6387 70.3673 65.7463 63.042C65.7055 61.3291 65.4028 59.6325 64.8487 58.0112C64.4031 56.6931 63.8262 55.4231 63.1267 54.2203V54.2215ZM52.6483 73.4379C49.323 73.3272 46.0455 72.6126 42.976 71.329L43.5988 71.0153L45.4307 70.1635C45.5509 70.0925 45.662 70.0055 45.7604 69.9047L49.3143 68.074C50.1089 67.6606 50.4249 66.6772 50.0241 65.8711C49.9298 65.6798 49.7987 65.509 49.6382 65.3684C49.4778 65.2278 49.2913 65.1201 49.0893 65.0517C48.8872 64.9832 48.6737 64.9552 48.4608 64.9693C48.248 64.9834 48.04 65.0393 47.8488 65.1338L46.0169 66.0211C43.1775 67.482 38.4329 69.9425 36.4361 70.7748L36.253 70.9042C34.7325 71.6255 33.3219 72.2541 32.4426 72.6056C31.0649 73.2311 29.5571 73.5165 28.0461 73.4379H27.8812C22.3799 73.1471 18.0406 68.6041 17.9524 63.0431C17.9567 63.0001 17.9567 62.9568 17.9524 62.9138C17.9593 61.5914 18.2078 60.2804 18.6852 59.0485C19.0493 57.9551 19.521 56.9018 20.0957 55.9045L30.1528 38.0563C32.8823 33.2476 36.4361 30.6589 40.1732 30.6589C43.9102 30.6589 47.5007 33.3037 50.1936 38.0574L60.3239 55.8679C60.8964 56.8663 61.3681 57.9196 61.7345 59.0119C62.1959 60.3068 62.4558 61.6681 62.5038 63.0431C62.426 68.5812 58.1245 73.1185 52.6483 73.4379Z" fill="#F27629"/>
</svg>
