<svg width="27" height="70" viewBox="0 0 27 70" fill="none" xmlns="http://www.w3.org/2000/svg">
<path d="M23.6526 26.9598C23.0958 26.3726 22.4287 25.9009 21.6896 25.5715C20.9504 25.2422 20.1536 25.0617 19.3446 25.0403C18.5357 25.019 17.7305 25.1572 16.975 25.4471C16.2194 25.737 15.5285 26.173 14.9414 26.73L14.7116 26.9598C14.2906 27.402 13.9337 27.9011 13.6515 28.4426C13.3692 27.9011 13.0123 27.402 12.5913 26.9598C12.0342 26.3704 11.3663 25.8968 10.6258 25.5661C9.88525 25.2355 9.08673 25.0543 8.27602 25.0329C7.46531 25.0115 6.65837 25.1505 5.90147 25.4417C5.14457 25.7329 4.45262 26.1707 3.86531 26.73L3.63548 26.9598C2.44597 28.2122 1.78275 29.8735 1.78275 31.6008C1.78275 33.3281 2.44597 34.9894 3.63548 36.2418L10.9084 43.789C11.596 44.5141 12.5426 44.9375 13.5415 44.9666C14.5403 44.9958 15.5101 44.6284 16.2388 43.9447L16.3575 43.8187L23.6526 36.2418C24.8804 35.0093 25.5697 33.3405 25.5697 31.6008C25.5697 29.8611 24.8804 28.1923 23.6526 26.9598Z" fill="#4D4751"/>
</svg>
