<svg width="26" height="25" viewBox="0 0 26 25" fill="none" xmlns="http://www.w3.org/2000/svg">
<g clip-path="url(#clip0_2_124)">
<path d="M22.7937 4.75902C22.2582 4.19441 21.6169 3.74081 20.9061 3.42413C20.1954 3.10745 19.4292 2.93389 18.6514 2.91337C17.8735 2.89285 17.0993 3.02576 16.3728 3.30453C15.6464 3.58329 14.982 4.00244 14.4175 4.53804L14.1966 4.75902C13.7917 5.18422 13.4486 5.66414 13.1772 6.18474C12.9058 5.66414 12.5626 5.18422 12.1578 4.75902C11.6221 4.19229 10.9799 3.73689 10.2679 3.41894C9.55582 3.101 8.78802 2.92676 8.00849 2.90623C7.22896 2.8857 6.45305 3.01928 5.72526 3.2993C4.99748 3.57933 4.33214 4.00029 3.76742 4.53804L3.54643 4.75902C2.40267 5.96326 1.76495 7.56069 1.76495 9.22153C1.76495 10.8824 2.40267 12.4798 3.54643 13.684L10.5396 20.9409C11.2008 21.6381 12.111 22.0452 13.0714 22.0733C14.0319 22.1013 14.9643 21.748 15.6651 21.0906L15.7791 20.9695L22.7937 13.684C23.9742 12.4989 24.6371 10.8943 24.6371 9.22153C24.6371 7.54874 23.9742 5.94412 22.7937 4.75902Z" stroke="#F53646" stroke-width="2.13858"/>
</g>
<defs>
<clipPath id="clip0_2_124">
<rect width="25" height="25" fill="white" transform="translate(0.695007 -0.0100098)"/>
</clipPath>
</defs>
</svg>
