<svg width="80" height="79" viewBox="0 0 80 79" fill="none" xmlns="http://www.w3.org/2000/svg">
<g clip-path="url(#clip0_2_63)">
<path d="M47.6156 66.7437C49.0353 66.6884 57.4974 66.1975 62.8479 59.373C68.1432 52.658 67.2155 43.7039 65.1412 35.9518C63.0116 28.1985 60.5547 20.5558 58.6982 12.7484C58.5898 12.2021 57.88 11.9843 57.4974 12.4211C54.1681 16.0246 50.8365 19.6823 47.5061 23.2858H32.6564C29.3271 19.6823 25.9956 16.0246 22.6651 12.4211C22.2837 11.9843 21.5738 12.2021 21.4643 12.7484C19.5537 20.5558 17.0968 28.1985 15.0225 35.9518C12.8928 43.7051 12.0205 52.658 17.3157 59.373C22.6651 66.1975 31.1283 66.6884 32.5469 66.7426" stroke="#F27629" stroke-width="3.38571" stroke-miterlimit="10" stroke-linecap="round"/>
<path d="M39.6456 48.3988C40.0664 48.4067 40.4846 48.3307 40.8757 48.1752C41.2668 48.0196 41.623 47.7877 41.9234 47.4929C42.2238 47.1981 42.4625 46.8463 42.6254 46.4582C42.7883 46.0701 42.8722 45.6535 42.8722 45.2326C42.8722 44.8117 42.7883 44.395 42.6254 44.0069C42.4625 43.6188 42.2238 43.2671 41.9234 42.9723C41.623 42.6775 41.2668 42.4455 40.8757 42.29C40.4846 42.1344 40.0664 42.0584 39.6456 42.0664C38.8162 42.082 38.0261 42.4225 37.4451 43.0146C36.8641 43.6066 36.5386 44.4031 36.5386 45.2326C36.5386 46.0621 36.8641 46.8585 37.4451 47.4506C38.0261 48.0427 38.8162 48.3831 39.6456 48.3988ZM49.0353 41.1929C49.8752 41.1929 50.6807 40.8592 51.2746 40.2653C51.8685 39.6714 52.2021 38.866 52.2021 38.0261C52.2021 37.1862 51.8685 36.3807 51.2746 35.7868C50.6807 35.193 49.8752 34.8593 49.0353 34.8593C48.1955 34.8593 47.39 35.193 46.7961 35.7868C46.2022 36.3807 45.8686 37.1862 45.8686 38.0261C45.8686 38.866 46.2022 39.6714 46.7961 40.2653C47.39 40.8592 48.1955 41.1929 49.0353 41.1929Z" fill="#F27629"/>
<path d="M2.24817 40.3735L22.8852 42.1205M2.19287 53.5857L22.8841 51.6197M77.753 40.3735L57.1159 42.1205M77.8072 53.5857L57.1159 51.6197M30.4737 52.6027C30.6916 52.8747 32.1666 54.8937 34.8955 55.0585C37.6797 55.2221 39.482 53.3114 39.6998 53.0925V47.251" stroke="#F27629" stroke-width="3.38571" stroke-miterlimit="10" stroke-linecap="round"/>
<path d="M48.8717 52.5486C48.6528 52.8217 47.1788 54.8418 44.45 55.0055C41.6646 55.1691 39.8634 53.2584 39.6445 53.0395V47.198" stroke="#F27629" stroke-width="3.38571" stroke-miterlimit="10" stroke-linecap="round"/>
</g>
<defs>
<clipPath id="clip0_2_63">
<rect width="79" height="79" fill="white" transform="translate(0.5)"/>
</clipPath>
</defs>
</svg>
