<svg width="69" height="71" viewBox="0 0 69 71" fill="none" xmlns="http://www.w3.org/2000/svg">
<g clip-path="url(#clip0_2_363)">
<path d="M17.6569 30.9512C17.6569 25.3558 13.8916 20.8104 9.27347 20.8104C4.6553 20.8114 0.890045 25.3558 0.890045 30.9531C0.890045 36.5486 4.6553 41.0774 9.27347 41.0774C13.8916 41.0774 17.6569 36.533 17.6569 30.9522V30.9512ZM9.27347 38.2389C6.21639 38.2389 3.73827 34.97 3.73827 30.9357C3.73827 26.9023 6.21542 23.6334 9.27347 23.6334C12.3306 23.6334 14.7766 26.9169 14.7766 30.9522C14.7766 34.9855 12.3306 38.2389 9.27347 38.2389ZM68.89 30.9357C68.89 25.3548 65.1248 20.8114 60.5066 20.8114C55.8884 20.8114 52.1232 25.3548 52.1232 30.9522C52.102 31.1502 52.1231 31.3504 52.185 31.5396C52.247 31.7288 52.3484 31.9028 52.4826 32.0499C52.6172 32.1986 52.7815 32.3174 52.9649 32.3985C53.1483 32.4797 53.3467 32.5214 53.5473 32.521C53.7477 32.5208 53.9458 32.4789 54.1291 32.398C54.3124 32.317 54.4769 32.1988 54.612 32.0508C54.7458 31.9033 54.847 31.7292 54.909 31.5399C54.9709 31.3505 54.9922 31.1503 54.9714 30.9522C54.9714 26.9334 57.4486 23.649 60.5066 23.649C63.5637 23.649 66.0418 26.9178 66.0418 30.9512C66.0418 34.97 63.5647 38.2389 60.5066 38.2389C60.1277 38.2383 59.764 38.3874 59.4944 38.6536C59.3618 38.785 59.2566 38.9413 59.1847 39.1135C59.1129 39.2858 59.0759 39.4705 59.0759 39.6571C59.0759 39.8437 59.1129 40.0285 59.1847 40.2008C59.2566 40.373 59.3618 40.5293 59.4944 40.6606C59.7638 40.9272 60.1276 41.0766 60.5066 41.0764C65.1248 41.0764 68.89 36.5321 68.89 30.9357ZM45.3494 23.2186C49.9676 23.2186 53.7328 18.6743 53.7328 13.0779C53.7328 7.48148 49.9511 2.93713 45.3494 2.93713C40.7468 2.93713 36.966 7.48148 36.966 13.0779C36.966 18.6743 40.6992 23.2186 45.3494 23.2186ZM45.3494 5.77565C48.4065 5.77565 50.8846 9.04353 50.8846 13.0779C50.8846 17.1122 48.3744 20.3801 45.3494 20.3801C42.3244 20.3801 39.8142 17.1122 39.8142 13.0779C39.8142 9.04353 42.2758 5.77565 45.3494 5.77565ZM24.4307 23.2186C29.0488 23.2186 32.8141 18.6743 32.8141 13.0779C32.8141 7.48148 29.0809 2.93713 24.4307 2.93713C19.7804 2.93713 16.0472 7.48148 16.0472 13.0779C16.0472 18.6743 19.829 23.2186 24.4307 23.2186ZM24.4307 5.77565C27.4887 5.77565 29.9659 9.04353 29.9659 13.0779C29.9659 17.1122 27.5043 20.3801 24.4307 20.3801C21.358 20.3801 18.8955 17.1122 18.8955 13.0779C18.8955 9.04353 21.4056 5.77565 24.4307 5.77565ZM55.0035 48.6186L46.1538 33.2642C43.2249 28.2088 39.2178 25.4189 34.89 25.4189C30.5614 25.4189 26.5552 28.2089 23.6263 33.2632L14.7766 48.6021C14.1896 49.6145 13.7047 50.6828 13.3292 51.7913C12.7831 53.1993 12.5095 54.6982 12.5229 56.2083C12.5578 59.2529 13.7583 62.1683 15.8772 64.3547C18.0075 66.553 20.8909 67.8635 23.9479 68.0229H24.4307C26.039 68.0282 27.6317 67.708 29.113 67.0815C30.1757 66.6677 31.9456 65.8702 33.7797 65.0095L34.4403 65.2805C38.0177 66.9234 41.8823 67.8494 45.8157 68.0063C48.8774 67.8597 51.7702 66.5596 53.9126 64.3674C56.0432 62.1866 57.2572 59.2723 57.3048 56.2239C57.2688 54.7459 57.0026 53.2825 56.516 51.8865C56.1239 50.7487 55.6171 49.6538 55.0035 48.6186ZM45.8002 65.1843C42.8825 65.0901 40.0052 64.4749 37.304 63.3678L37.851 63.0958L39.4596 62.3623C39.5665 62.3011 39.6636 62.2263 39.7491 62.1389L41.3588 61.3258L42.8713 60.5603C43.2064 60.3894 43.46 60.0941 43.5766 59.7385C43.6344 59.5623 43.6568 59.3765 43.6427 59.1916C43.6285 59.0067 43.578 58.8265 43.494 58.6612C43.3234 58.3264 43.0278 58.0723 42.6712 57.954C42.3131 57.8348 41.9225 57.8606 41.5832 58.0259L39.9745 58.7904C37.4808 60.0503 33.3134 62.171 31.559 62.8889L31.3987 63.0006C30.063 63.6223 28.8244 64.1643 28.0512 64.4674C26.8384 65.007 25.5154 65.2526 24.1898 65.1843H24.044C21.7201 65.0653 19.5266 64.0738 17.9017 62.408C16.2852 60.7508 15.363 58.5386 15.3235 56.2239C15.3273 56.1867 15.3273 56.1493 15.3235 56.1122C15.3299 54.9712 15.5483 53.8413 15.9676 52.7802C16.2872 51.8379 16.702 50.9296 17.2062 50.0699L26.0403 34.6825C28.4378 30.5374 31.559 28.305 34.8415 28.305C38.1249 28.305 41.2782 30.585 43.6426 34.6825L52.5409 50.0369C53.0441 50.8985 53.4589 51.8058 53.7804 52.7471C54.1855 53.8643 54.4138 55.0378 54.4566 56.2239C54.4222 58.5293 53.5103 60.7349 51.9066 62.3915C50.294 64.0567 48.1145 65.0538 45.8002 65.1843Z" fill="white"/>
</g>
<defs>
<clipPath id="clip0_2_363">
<rect width="68" height="70" fill="white" transform="translate(0.890045 0.47998)"/>
</clipPath>
</defs>
</svg>
