<svg width="125" height="35" viewBox="0 0 125 35" fill="none" xmlns="http://www.w3.org/2000/svg">
<path d="M95.3516 15.9031C95.3516 15.4144 95.3527 14.9064 95.3527 14.3824C95.3527 11.4023 95.6187 8.12216 95.6187 5.258C95.6187 4.2635 94.8753 3.23263 93.6035 3.23263C92.6079 3.23263 91.6157 4.05892 91.6157 5.20344C91.6157 6.82647 91.7384 8.58929 91.8134 11.3273C91.0951 10.8909 90.0665 10.534 88.4105 10.534C83.3744 10.534 80.6625 14.4779 80.6625 17.9115C80.6625 19.0344 80.8478 20.0039 81.1717 20.8313C80.6375 21.295 79.9544 21.7099 79.0804 21.7099C78.2064 21.7099 77.3278 20.9802 77.3278 18.2479C77.3278 17.6341 77.4256 15.2007 77.4256 14.3108C77.4256 11.9342 75.7105 10.526 73.1839 10.526C70.6573 10.526 69.1718 11.874 68.2034 13.4277C68.2284 13.0674 68.2455 12.7491 68.2455 12.4843C68.2455 11.2011 67.1657 10.526 66.1996 10.526C65.3597 10.526 64.2402 11.1886 64.2402 12.5252C64.2402 14.2278 64.3754 15.9645 64.4334 17.6796C64.4482 18.099 64.4573 18.5172 64.4584 18.9366C64.3982 19.006 64.3413 19.0787 64.2925 19.1549C63.4287 20.4915 62.474 21.5519 60.5145 21.5519C58.0868 21.5519 57.1696 20.1619 57.1696 17.908C57.1696 16.8579 57.9652 16.1123 57.9652 14.978C57.9652 14.6768 57.9027 14.3722 57.7879 14.0823C57.5884 14.2989 57.3641 14.4912 57.1196 14.6552C57.0821 14.6745 57.0468 14.704 57.0116 14.7268C56.9752 14.7506 56.9377 14.7734 56.9002 14.795C56.8593 14.8188 56.815 14.837 56.7729 14.8598C56.699 14.9007 56.6252 14.9382 56.549 14.9746C56.4774 15.0087 56.4069 15.0416 56.3342 15.0723C56.2955 15.0893 56.258 15.1098 56.2183 15.1257C56.1671 15.1462 56.1148 15.161 56.0626 15.1791C56.0228 15.1939 55.9841 15.211 55.9443 15.2257C55.8341 15.2632 55.7216 15.2985 55.6056 15.3167C55.5545 15.3246 55.5056 15.3269 55.4568 15.3269C55.4079 15.3269 55.359 15.3246 55.3079 15.3167C55.1919 15.2985 55.0794 15.2632 54.9692 15.2257C54.9294 15.2121 54.8907 15.1939 54.851 15.1803C54.7987 15.1621 54.7464 15.1473 54.6953 15.1269C54.6555 15.1109 54.618 15.0905 54.5793 15.0734C54.5066 15.0427 54.4361 15.0098 54.3645 14.9757C54.2884 14.9393 54.2145 14.9018 54.1406 14.8609C54.0986 14.8382 54.0542 14.82 54.0133 14.7961C53.9758 14.7745 53.9383 14.7506 53.9019 14.7279C53.8667 14.7052 53.8315 14.6745 53.794 14.6563C53.5814 14.5142 53.3825 14.3494 53.2018 14.1676C53.1143 14.4233 53.0665 14.6972 53.0665 14.9814C53.0665 16.06 53.8587 16.8965 53.8587 17.891C53.8587 20.1448 52.8597 21.5519 50.5047 21.5519C48.6385 21.5519 47.5962 20.5244 46.7393 19.1549C46.6814 19.0644 46.6156 18.9792 46.5426 18.9003L46.5472 18.898C49.2909 16.26 53.9053 11.2455 53.9053 6.91967C53.9053 3.5611 52.0743 1.2334 48.8328 1.2334C47.2803 1.2334 46.0209 1.67212 45.0549 2.38361C44.0581 3.11783 43.3795 4.14643 43.0193 5.2921C42.8176 5.93316 42.7145 6.60112 42.7135 7.27314C42.7135 8.80751 42.7806 10.343 42.8204 11.8763C42.8238 12.0183 42.8294 12.1604 42.8329 12.3025C42.8567 13.4572 42.8704 14.6131 42.8806 15.769C42.884 16.0634 42.8908 16.3578 42.8931 16.6521C42.8988 17.5307 42.6305 17.6296 42.0861 18.3081C41.6247 18.8821 40.92 19.4811 40.5313 19.872C40.0744 20.3312 39.7618 21.2552 40.0062 21.9838C40.2472 22.6987 41.4155 23.2477 42.2521 22.585C42.3566 22.5021 42.4555 22.4009 42.5271 22.3316C42.6669 22.1963 42.8238 22.0668 42.9692 21.944C43.2079 23.417 42.9647 25.1355 42.9226 26.6301C42.8669 28.6202 42.6487 29.4317 42.6487 31.4196C42.568 32.696 43.3568 33.9292 44.8753 33.7871C45.8902 33.6916 46.4983 32.9142 46.4892 31.5219C46.4869 31.2048 46.5256 26.5903 46.5108 22.9851C47.5599 23.7966 48.9431 24.4092 50.6036 24.4092C52.2641 24.4092 54.2565 23.941 55.517 22.0065C56.8888 24.1376 59.1427 24.4104 60.4554 24.4104C61.9523 24.4104 63.2514 23.8853 64.2766 23.159C64.4743 24.0978 65.3097 24.7366 66.2576 24.7366C67.2532 24.7366 68.2455 23.9307 68.2455 22.7555C68.2455 22.3816 68.1079 20.7495 68.0284 19.2424C68.0329 17.1863 70.1913 13.58 72.1121 13.58C73.0691 13.58 73.6919 14.412 73.6919 15.5894C73.6919 16.4942 73.5851 18.2797 73.5851 19.4629C73.5851 22.2554 74.2898 24.7138 78.2337 24.7138C80.1101 24.7138 81.574 23.8603 82.6083 22.9794C83.8892 24.1808 85.6532 24.7275 87.4422 24.7275C89.8074 24.7275 91.4008 23.6909 92.4226 22.7339C92.4192 22.8771 92.4169 23.0147 92.4169 23.1408C92.4169 24.1058 92.9307 24.7957 93.8263 24.7957C94.6492 24.7957 95.7346 24.1308 95.7346 23.159C95.7346 23.0033 95.6709 22.0804 95.5937 20.8529C95.5016 19.3754 95.3902 17.458 95.3516 15.9088V15.9031ZM48.726 4.42376C49.9364 4.42376 50.4286 5.63534 50.4286 6.91853C50.4286 10.0646 48.1225 13.0799 46.4346 15.0155C46.4449 14.6131 46.4574 14.1869 46.4687 13.7505C46.5426 11.0511 46.6335 7.95168 46.6335 7.41521C46.6335 6.38434 47.0268 5.50009 47.5258 4.99204C47.877 4.63516 48.2952 4.42376 48.726 4.42376ZM91.8691 17.4307C91.8623 19.3401 90.437 21.836 87.8434 21.836C86.2465 21.836 84.6712 20.5779 84.6712 17.8728C84.6712 14.8154 86.7784 13.4334 88.6947 13.4334C90.162 13.4334 91.1031 13.9891 91.868 14.8041C91.868 15.0314 91.8703 15.2621 91.8703 15.5008V17.4318L91.8691 17.4307ZM8.49928 10.06C6.5728 10.06 5.14526 10.7317 4.11666 11.5012C3.85525 10.5499 2.9369 10.0521 2.09925 10.0521C1.2616 10.0521 0.0954722 10.7295 0.0954722 12.0968C0.0954722 13.3299 0.359157 16.7056 0.359157 21.1768C0.359157 25.6481 0.0841064 28.6191 0.0841064 30.3649C0.0841064 31.5594 0.720587 32.4141 1.82988 32.4141C2.84939 32.4141 4.19281 31.5901 4.19281 30.3876C4.19281 29.9478 4.00755 27.1552 3.93936 23.6409C5.64763 24.3888 7.58548 24.7707 10.1132 24.3433C12.3579 23.9637 14.0628 21.8906 14.0628 21.8906C15.0482 20.6063 15.4369 18.6946 15.4369 17.0272C15.4369 12.1138 12.0124 10.06 8.50042 10.06H8.49928ZM7.21951 21.478C6.04656 21.478 4.78724 21.0757 3.91776 20.1653C3.92572 19.2697 3.94277 18.424 3.9655 17.641C3.96891 17.6091 3.97118 17.5739 3.97118 17.5341C3.97118 15.5792 5.43054 13.0128 8.09012 13.0128C9.72451 13.0128 11.335 14.2994 11.335 17.0681C11.335 20.1971 9.18009 21.478 7.21951 21.478Z" fill="white"/>
<path d="M37.2864 16.3498C37.2864 15.9384 37.2909 15.5167 37.2909 15.0893V14.9666C37.2909 14.3403 37.3023 13.705 37.3216 13.0697C38.623 13.089 39.5789 13.1208 40.3017 13.1208C40.5563 13.1208 40.9109 13.0322 41.2201 12.8321C41.5815 12.598 41.8816 12.2104 41.8816 11.6012C41.8816 10.7056 41.253 10.0725 40.2631 10.0725C39.3504 10.0725 38.4502 10.0964 37.4421 10.1157C37.4864 9.18372 37.5285 8.28697 37.5569 7.44022C37.5751 6.8833 37.5887 6.34343 37.5887 5.84334C37.5887 4.77496 36.7545 3.78955 35.502 3.78955C34.6984 3.78955 33.5675 4.39875 33.4937 5.75241C33.4914 5.79787 33.48 5.83765 33.48 5.88425C33.48 6.21272 33.5539 7.58229 33.6244 9.15758C33.6335 9.46445 33.6414 9.77815 33.6471 10.1021C33.2209 10.0873 32.2502 10.0737 31.8513 10.0737C31.2103 10.0737 30.2601 10.4805 30.2601 11.6194C30.2601 12.5741 31.1148 13.1208 31.8581 13.1208C32.1752 13.1208 33.1447 13.1026 33.6721 13.0844C33.6676 14.1392 33.6482 15.1075 33.6221 15.9918C33.5982 16.3737 33.5732 16.7635 33.5505 17.1431C33.5346 17.6932 33.5141 18.324 33.5039 18.9173C33.4471 20.1073 33.397 21.7667 33.397 22.5021C33.397 23.6966 33.9062 24.5513 35.5588 24.5081C36.7647 24.4763 37.5058 23.5693 37.5058 22.5248C37.5058 22.2441 37.4319 20.3039 37.3603 18.5343C37.333 17.8728 37.3069 17.1375 37.2841 16.3487L37.2864 16.3498ZM62.4774 8.92345C62.4774 10.113 61.5131 11.0772 60.3236 11.0772C59.134 11.0772 58.1698 10.113 58.1698 8.92345C58.1698 7.73391 59.134 6.76964 60.3236 6.76964C61.5131 6.76964 62.4774 7.73391 62.4774 8.92345ZM29.8737 20.0346C29.3213 20.0346 28.6553 20.5415 28.6541 20.5415C28.1427 20.9302 27.5733 21.2621 26.9572 21.453C26.3219 21.6508 25.6786 21.619 25.0228 21.619C22.7542 21.619 21.7279 20.7643 21.2823 19.522C26.5663 19.4799 29.2497 17.3875 29.2497 14.2131C29.2497 11.7683 27.1061 10.0373 24.0612 10.0373C20.1139 10.0373 16.8361 13.0162 16.8361 17.7307C16.8361 18.4752 16.9168 19.1617 17.0713 19.7913C17.0713 19.7913 17.3521 21.0404 18.1147 22.0156C19.3888 23.6727 21.5983 24.5547 24.6727 24.5547C26.3867 24.5547 28.1995 24.1251 29.7282 23.35C30.3238 23.0476 31.0205 22.7123 31.2353 22.0315C31.3921 21.5337 31.3126 20.9461 30.9807 20.5347C30.7102 20.1994 30.2988 20.0368 29.8725 20.0368L29.8737 20.0346ZM24.0124 12.6491C25.3854 12.6491 25.857 13.7311 25.857 14.396C25.857 16.002 24.8114 17.0261 20.9618 17.0863C20.9732 13.6414 22.8576 12.6491 24.0124 12.6491ZM121.005 10.1112C118.917 10.1112 117.306 11.5762 116.368 13.0015C116.393 12.6423 116.41 12.3263 116.41 12.0627C116.41 10.7795 115.33 10.1043 114.365 10.1043C113.525 10.1043 112.406 10.767 112.406 12.1036C112.406 13.3083 112.664 15.1837 112.664 17.1261C112.664 17.4489 112.655 17.7569 112.643 18.0581C112.598 19.3765 112.53 20.1357 112.415 21.5144C112.404 21.7758 112.396 22.0384 112.396 22.3066C112.396 23.475 113.339 24.3092 114.424 24.3092C115.421 24.3092 116.412 23.5034 116.412 22.3282C116.412 21.952 116.274 20.3051 116.194 18.79C116.212 16.3805 118.681 13.4538 119.899 13.4538C120.701 13.4538 120.523 14.5597 122.028 14.5597C123.026 14.5597 123.959 13.7584 123.959 12.615C123.959 11.6285 123.291 10.1089 121.007 10.1089L121.005 10.1112ZM109.842 19.9482C109.289 19.9482 108.623 20.4551 108.622 20.4551C108.111 20.8438 107.541 21.1757 106.925 21.3666C106.29 21.5644 105.647 21.5326 104.991 21.5326C102.722 21.5326 101.696 20.6779 101.25 19.4356C106.534 19.3935 109.218 17.3011 109.218 14.1267C109.218 11.6819 107.074 9.95091 104.029 9.95091C100.082 9.95091 96.8041 12.9299 96.8041 17.6432C96.8041 18.3877 96.8848 19.0742 97.0394 19.7038C97.0394 19.7038 97.3201 20.9529 98.0828 21.9281C99.3569 23.5852 101.566 24.4672 104.641 24.4672C106.355 24.4672 108.168 24.0376 109.696 23.2624C110.292 22.9601 110.989 22.6248 111.203 21.944C111.36 21.4462 111.281 20.8586 110.949 20.4471C110.678 20.1119 110.267 19.9493 109.841 19.9493L109.842 19.9482ZM103.98 12.5627C105.353 12.5627 105.825 13.6448 105.825 14.3097C105.825 15.9156 104.779 16.9397 100.93 16.9999C100.941 13.555 102.826 12.5627 103.98 12.5627Z" fill="white"/>
<path d="M58.3937 13.763C58.3402 13.63 58.2732 13.5016 58.1913 13.3834C57.9413 13.0197 57.5424 12.7992 57.1082 12.7299C57.0082 12.714 56.9047 12.7049 56.799 12.7037C56.4842 12.7003 56.1592 12.7674 55.8966 12.9254C55.8079 12.9788 55.7273 13.0402 55.6534 13.1106C55.5795 13.18 55.5136 13.2584 55.4556 13.3414C55.3397 13.1731 55.1894 13.0313 55.0146 12.9254C54.9271 12.8731 54.8328 12.8299 54.7339 12.7969C54.5361 12.731 54.3225 12.7015 54.1122 12.7037C54.0076 12.7049 53.9031 12.714 53.803 12.7299C53.3689 12.7992 52.9711 13.0197 52.7199 13.3834C52.6381 13.5016 52.571 13.63 52.5176 13.763C52.2403 14.4472 52.3573 15.2178 52.7733 15.877C53.0324 16.2873 53.3893 16.6272 53.7917 16.8954C53.8292 16.9147 53.8644 16.9443 53.8996 16.967C53.936 16.9909 53.9735 17.0136 54.011 17.0352C54.0519 17.0591 54.0963 17.0773 54.1383 17.1C54.2122 17.1409 54.2872 17.1784 54.3622 17.2148C54.4338 17.2489 54.5043 17.2818 54.577 17.3125C54.6157 17.3296 54.6532 17.35 54.693 17.366C54.7441 17.3864 54.7964 17.4012 54.8487 17.4194C54.8885 17.4341 54.9271 17.4512 54.9669 17.4648C55.0783 17.5023 55.1897 17.5376 55.3056 17.5558C55.3567 17.5637 55.4056 17.566 55.4545 17.566C55.5033 17.566 55.5522 17.5637 55.6034 17.5558C55.7193 17.5376 55.8318 17.5023 55.9421 17.4648C55.9818 17.4512 56.0205 17.433 56.0603 17.4182C56.1126 17.4001 56.1648 17.3853 56.216 17.3648C56.2558 17.3489 56.2933 17.3284 56.3319 17.3114C56.4047 17.2807 56.4751 17.2478 56.5467 17.2137C56.6229 17.1773 56.6967 17.1398 56.7706 17.0989C56.8127 17.0761 56.857 17.0579 56.8979 17.0341C56.9354 17.0125 56.9729 16.9886 57.0093 16.9659C57.0445 16.9432 57.0798 16.9125 57.1173 16.8943C57.5185 16.6249 57.8765 16.2851 58.1357 15.8759C58.5516 15.2167 58.6687 14.4461 58.3914 13.7619L58.3937 13.763Z" fill="#C22A22"/>
<path d="M54.7111 30.0534C54.7111 30.3853 54.5986 30.641 54.3713 30.8195C54.1451 30.9979 53.8212 31.0877 53.3995 31.0877H53.0142V32.3766H52.6335V29.0999H53.4825C54.302 29.0999 54.7111 29.4181 54.7111 30.0546V30.0534ZM53.0142 30.7593H53.3575C53.695 30.7593 53.9394 30.7047 54.0906 30.5956C54.2417 30.4865 54.3167 30.3114 54.3167 30.0705C54.3167 29.8534 54.2451 29.6931 54.1042 29.5863C53.9621 29.4806 53.7405 29.4272 53.4405 29.4272H53.0142V30.7581V30.7593ZM58.7016 30.732C58.7016 31.2571 58.5687 31.6685 58.3038 31.9697C58.039 32.2698 57.6696 32.4198 57.198 32.4198C56.7263 32.4198 56.3433 32.272 56.0807 31.9777C55.8182 31.6821 55.6875 31.2662 55.6875 30.7274C55.6875 30.1887 55.8193 29.7807 56.0818 29.4874C56.3444 29.1931 56.7183 29.0464 57.2025 29.0464C57.6867 29.0464 58.0413 29.1953 58.305 29.4954C58.5698 29.7943 58.7016 30.2069 58.7016 30.7331V30.732ZM56.0898 30.732C56.0898 31.1752 56.1841 31.5128 56.3728 31.7412C56.5615 31.9708 56.8365 32.0856 57.1968 32.0856C57.5571 32.0856 57.8344 31.972 58.0197 31.7424C58.205 31.5139 58.297 31.1764 58.297 30.732C58.297 30.2876 58.205 29.9568 58.0197 29.7295C57.8356 29.5011 57.5628 29.3874 57.2002 29.3874C56.8377 29.3874 56.5615 29.5022 56.3717 29.7318C56.183 29.9614 56.0887 30.2955 56.0887 30.7331L56.0898 30.732ZM62.7512 32.3755H62.3739L61.7124 30.1807C61.6817 30.0841 61.6454 29.9614 61.6067 29.8136C61.5681 29.6659 61.5476 29.5772 61.5465 29.5465C61.5135 29.7443 61.4612 29.9602 61.3896 30.1944L60.7486 32.3755H60.3724L59.5007 29.0987H59.9041L60.4224 31.123C60.494 31.4071 60.5463 31.664 60.5793 31.8936C60.619 31.6196 60.6793 31.3525 60.7588 31.0911L61.3464 29.0987H61.7499L62.366 31.1093C62.4376 31.3412 62.4978 31.6026 62.5478 31.8936C62.5762 31.681 62.6296 31.4219 62.7092 31.1173L63.2252 29.0976H63.6287L62.7524 32.3743L62.7512 32.3755ZM66.4269 32.3755H64.6005V29.0987H66.4269V29.4374H64.9812V30.4933H66.3394V30.8297H64.9812V32.0356H66.4269V32.3766V32.3755ZM67.9943 31.0127V32.3755H67.6135V29.0987H68.5125C68.9149 29.0987 69.2115 29.176 69.4036 29.3294C69.5957 29.484 69.6912 29.7147 69.6912 30.0239C69.6912 30.4581 69.4718 30.7502 69.0319 30.9025L69.9219 32.3755H69.4718L68.6785 31.0127H67.9943ZM67.9943 30.6854H68.5171C68.7864 30.6854 68.9831 30.632 69.1092 30.5251C69.2343 30.4183 69.2979 30.258 69.2979 30.0443C69.2979 29.8307 69.2343 29.6716 69.1058 29.5761C68.9785 29.4806 68.7728 29.4329 68.4909 29.4329H67.9954V30.6865L67.9943 30.6854ZM72.7372 32.3755H70.9107V29.0987H72.7372V29.4374H71.2915V30.4933H72.6497V30.8297H71.2915V32.0356H72.7372V32.3766V32.3755ZM76.539 30.7058C76.539 31.2468 76.3924 31.6606 76.098 31.9458C75.8048 32.2322 75.382 32.3755 74.8307 32.3755H73.9226V29.0987H74.9262C75.4365 29.0987 75.8321 29.2397 76.1139 29.5227C76.3958 29.8057 76.5379 30.2001 76.5379 30.707L76.539 30.7058ZM76.1355 30.7195C76.1355 30.2921 76.0287 29.9705 75.8139 29.7534C75.5991 29.5363 75.2808 29.4283 74.858 29.4283H74.3045V32.0459H74.7682C75.2229 32.0459 75.5638 31.9345 75.7923 31.7106C76.0207 31.4867 76.1355 31.1559 76.1355 30.7183V30.7195ZM79.3804 29.0976H80.3056C80.7409 29.0976 81.0546 29.1624 81.249 29.2931C81.4433 29.4226 81.5399 29.6284 81.5399 29.9091C81.5399 30.1034 81.4854 30.2637 81.3774 30.3899C81.2683 30.516 81.1114 30.5979 80.9034 30.6354V30.657C81.4013 30.7422 81.6502 31.0036 81.6502 31.4412C81.6502 31.7344 81.5513 31.9629 81.3535 32.1265C81.1558 32.2913 80.8784 32.3732 80.5227 32.3732H79.3793V29.0964L79.3804 29.0976ZM79.7612 30.5013H80.3886C80.6579 30.5013 80.8512 30.4592 80.9694 30.3751C81.0876 30.291 81.1467 30.1489 81.1467 29.9477C81.1467 29.7636 81.0807 29.6318 80.9489 29.5499C80.8171 29.4681 80.6079 29.4283 80.3215 29.4283H79.7612V30.5024V30.5013ZM79.7612 30.824V32.0504H80.4454C80.7102 32.0504 80.9091 31.9993 81.0421 31.8958C81.1762 31.7935 81.2433 31.6333 81.2433 31.4151C81.2433 31.2127 81.1751 31.0627 81.0376 30.9672C80.9012 30.8718 80.6932 30.8229 80.4136 30.8229H79.7612V30.824ZM83.6483 30.7365L84.5223 29.0987H84.9349L83.8415 31.1048V32.3755H83.4562V31.123L82.3651 29.0987H82.7822L83.6494 30.7365H83.6483ZM87.4524 27.6882H116.332V33.778H87.4524V27.6882Z" fill="white"/>
<path d="M93.3466 32.9925V27.8848H87.649V33.5824H116.135V32.9925H93.3455H93.3466ZM92.7567 32.9925H88.2377V28.4735H92.7567V32.9925Z" fill="#C22A22"/>
<path d="M88.4344 28.6702H89.8096V30.0454H88.4344V28.6702ZM88.4344 31.4207H89.8096V32.7959H88.4344V31.4207ZM89.8096 30.0454H91.1849V31.4207H89.8096V30.0454ZM91.1849 28.6702H92.5601V30.0454H91.1849V28.6702ZM91.1849 31.4207H92.5601V32.7959H91.1849V31.4207Z" fill="#C22A22"/>
<path d="M93.3421 27.8848H116.135V32.9925H93.3421V27.8848Z" fill="black"/>
<path d="M107.856 29.0294C107.856 28.9703 107.888 28.9385 107.947 28.9385H108.394C108.439 28.9385 108.476 28.9567 108.503 28.9976L109.605 30.6649C109.71 30.824 109.824 30.9934 109.943 31.1889C109.961 31.2207 109.993 31.2162 109.993 31.1798C109.988 30.9934 109.979 30.7149 109.979 30.5285V29.0294C109.979 28.9703 110.011 28.9385 110.07 28.9385H110.435C110.494 28.9385 110.526 28.9703 110.526 29.0294V32.0356C110.526 32.0947 110.494 32.1266 110.435 32.1266H110.002C109.957 32.1266 109.92 32.1084 109.893 32.0675L108.777 30.4001C108.668 30.241 108.559 30.0716 108.439 29.8761C108.421 29.8443 108.389 29.8489 108.389 29.8852C108.394 30.0716 108.403 30.3501 108.403 30.5365V32.0356C108.403 32.0947 108.371 32.1266 108.312 32.1266H107.947C107.888 32.1266 107.856 32.0947 107.856 32.0356V29.0294ZM105.975 28.9385H106.344C106.356 28.9385 106.368 28.9408 106.379 28.9454C106.39 28.95 106.4 28.9567 106.409 28.9651C106.417 28.9736 106.424 28.9836 106.428 28.9946C106.433 29.0056 106.435 29.0175 106.435 29.0294V32.0356C106.435 32.0598 106.426 32.0829 106.409 32.0999C106.392 32.117 106.369 32.1266 106.344 32.1266H105.975C105.951 32.1266 105.928 32.117 105.911 32.0999C105.894 32.0829 105.884 32.0598 105.884 32.0356V29.0294C105.884 29.0175 105.887 29.0056 105.891 28.9946C105.896 28.9836 105.902 28.9736 105.911 28.9651C105.919 28.9567 105.929 28.95 105.94 28.9454C105.951 28.9408 105.963 28.9385 105.975 28.9385ZM104.713 31.6674C104.6 31.6674 104.5 31.6674 104.441 31.6492C104.377 31.631 104.341 31.5946 104.304 31.5401L103.935 30.9934C103.917 30.9661 103.926 30.9479 103.958 30.9343C104.067 30.8888 104.167 30.8206 104.25 30.7388C104.436 30.5524 104.551 30.2739 104.551 29.983C104.551 29.692 104.442 29.4045 104.25 29.2181C104.068 29.0362 103.853 28.9408 103.494 28.9408H102.241C102.182 28.9408 102.151 28.9726 102.151 29.0317V32.0379C102.151 32.097 102.182 32.1288 102.241 32.1288H102.615C102.674 32.1288 102.706 32.097 102.706 32.0379V31.0627C102.706 31.0355 102.724 31.0173 102.752 31.0173H103.217C103.276 31.0173 103.321 31.04 103.353 31.09L103.872 31.864C104.059 32.1413 104.242 32.197 104.533 32.197C104.578 32.197 104.701 32.197 104.742 32.1834C104.787 32.1698 104.806 32.1379 104.806 32.097V31.7594C104.806 31.7003 104.774 31.6685 104.715 31.6685L104.713 31.6674ZM103.835 30.3467C103.739 30.4331 103.635 30.4785 103.461 30.4785H102.751C102.723 30.4785 102.705 30.4603 102.705 30.4331V29.5215C102.705 29.4943 102.723 29.4761 102.751 29.4761H103.461C103.634 29.4761 103.739 29.5215 103.83 29.6079C103.926 29.6943 103.976 29.8352 103.976 29.9819C103.976 30.1182 103.926 30.2592 103.835 30.3467ZM98.5544 31.8174C98.3225 31.5901 98.2078 31.298 98.2078 30.8377V29.0294C98.2078 28.9703 98.2396 28.9385 98.2987 28.9385L98.6817 28.943C98.7408 28.943 98.7726 28.9748 98.7726 29.0339V30.9104C98.7726 31.1696 98.8408 31.3253 98.9727 31.4662C99.1 31.6071 99.3102 31.6708 99.5148 31.6708C99.7194 31.6708 99.9433 31.6071 100.075 31.4662C100.202 31.3253 100.266 31.1707 100.266 30.9104V29.0294C100.266 28.9703 100.298 28.9385 100.357 28.9385H100.74C100.799 28.9385 100.831 28.9703 100.831 29.0294V30.8604C100.831 31.3162 100.717 31.589 100.489 31.822C100.252 32.0629 99.8876 32.1959 99.5137 32.1959C99.1397 32.1959 98.7851 32.055 98.5521 31.8174M96.8143 29.2351C96.6143 29.0396 96.3858 28.9396 95.9994 28.9396H94.6878C94.6287 28.9396 94.5969 28.9714 94.5969 29.0305V32.0368C94.5969 32.0959 94.6287 32.1277 94.6878 32.1277H95.0617C95.1208 32.1277 95.1526 32.0959 95.1526 32.0368V31.2082C95.1526 31.1809 95.1708 31.1627 95.1981 31.1627H95.9812C96.3733 31.1627 96.6143 31.0627 96.8098 30.8672C97.0098 30.6672 97.1337 30.3706 97.1337 30.0569C97.1337 29.7432 97.0155 29.4374 96.8143 29.2374V29.2351ZM96.404 30.474C96.2995 30.574 96.1767 30.624 95.9755 30.624H95.197C95.1697 30.624 95.1515 30.6058 95.1515 30.5786V29.5215C95.1515 29.4943 95.1697 29.4761 95.197 29.4761H95.9755C96.1756 29.4761 96.2995 29.5306 96.404 29.6261C96.5131 29.7261 96.5677 29.8898 96.5677 30.0546C96.5677 30.2194 96.5131 30.374 96.404 30.474ZM114.685 32.022L113.437 29.0067C113.418 28.9567 113.382 28.9385 113.332 28.9385H112.858C112.808 28.9385 112.772 28.9658 112.754 29.0112L111.519 32.022C111.492 32.0856 111.524 32.1266 111.592 32.1266H111.993C112.043 32.1266 112.08 32.0993 112.098 32.0538L112.339 31.4571C112.352 31.4207 112.375 31.4071 112.411 31.4071H113.778C113.814 31.4071 113.837 31.4207 113.85 31.4571L114.096 32.0538C114.114 32.0993 114.15 32.1266 114.2 32.1266H114.615C114.684 32.1266 114.711 32.0856 114.684 32.022H114.685ZM113.55 30.8741H112.634C112.593 30.8741 112.571 30.8513 112.589 30.8104L112.793 30.2774C112.884 30.0455 112.966 29.8307 113.057 29.5897C113.075 29.5397 113.103 29.5397 113.121 29.5897C113.212 29.8307 113.293 30.0455 113.384 30.2774L113.589 30.8104C113.607 30.8513 113.589 30.8741 113.548 30.8741H113.55Z" fill="white"/>
<path d="M114.744 28.7009C114.455 28.7009 114.222 28.9328 114.222 29.2226C114.222 29.2912 114.235 29.3592 114.261 29.4226C114.287 29.486 114.326 29.5437 114.374 29.5922C114.423 29.6407 114.48 29.6791 114.544 29.7052C114.607 29.7313 114.675 29.7446 114.744 29.7443C115.034 29.7443 115.265 29.5113 115.265 29.2226C115.265 28.9339 115.034 28.7009 114.744 28.7009ZM114.744 29.6568C114.506 29.6568 114.315 29.4556 114.315 29.2226C114.315 28.9896 114.506 28.7941 114.744 28.7941C114.981 28.7941 115.178 28.9851 115.178 29.2226C115.178 29.4602 114.981 29.6568 114.744 29.6568Z" fill="white"/>
<path d="M114.91 29.3829L114.847 29.2897C114.924 29.2635 114.966 29.1919 114.966 29.1192C114.966 29.0214 114.899 28.9385 114.78 28.9385H114.548V29.4909H114.646V29.2999H114.739L114.837 29.4443C114.878 29.5068 114.91 29.5068 114.987 29.5011V29.4136C114.946 29.4136 114.936 29.4192 114.91 29.3829ZM114.776 29.2078H114.646V29.0328H114.776C114.816 29.0328 114.863 29.0533 114.863 29.1203C114.863 29.1828 114.822 29.2078 114.776 29.2078Z" fill="white"/>
<path d="M120.455 23.1294C120.455 23.7772 120.033 24.3239 119.274 24.3239C118.515 24.3239 118.093 23.7772 118.093 23.1294C118.093 22.4815 118.518 21.9348 119.274 21.9348C120.03 21.9348 120.455 22.4781 120.455 23.1294ZM118.341 23.1225C118.341 23.6658 118.679 24.0977 119.274 24.0977C119.87 24.0977 120.209 23.6658 120.209 23.1259C120.209 22.5861 119.87 22.1508 119.274 22.1508C118.679 22.1508 118.341 22.5827 118.341 23.1294V23.1225ZM119.499 23.2737C119.967 23.1953 119.919 22.4986 119.384 22.4986H118.822V23.7261H119.048V23.301H119.26L119.6 23.7261H119.849V23.6806L119.499 23.2714V23.2748V23.2737ZM119.384 22.7111C119.663 22.7111 119.659 23.1066 119.378 23.1066H119.047V22.7111H119.384Z" fill="white"/>
</svg>
