<svg width="41" height="40" viewBox="0 0 41 40" fill="none" xmlns="http://www.w3.org/2000/svg">
<g clip-path="url(#clip0_2_35)">
<path d="M0.5 5C0.5 3.67392 1.02678 2.40215 1.96447 1.46447C2.90215 0.526784 4.17392 0 5.5 0L35.5 0C36.8261 0 38.0979 0.526784 39.0355 1.46447C39.9732 2.40215 40.5 3.67392 40.5 5V35C40.5 36.3261 39.9732 37.5979 39.0355 38.5355C38.0979 39.4732 36.8261 40 35.5 40H5.5C4.17392 40 2.90215 39.4732 1.96447 38.5355C1.02678 37.5979 0.5 36.3261 0.5 35L0.5 5Z" fill="#F27629"/>
<path d="M18.11 10.335C19.37 10.3145 20.6142 10.6171 21.724 11.214C22.9274 11.8759 23.9241 12.8577 24.604 14.051C25.2848 15.2457 25.6229 16.6049 25.5811 17.9793C25.5393 19.3537 25.1192 20.6899 24.367 21.841C23.6162 22.9904 22.5619 23.9097 21.321 24.497C20.1771 25.0253 18.9169 25.2516 17.6607 25.1545C16.4045 25.0573 15.1941 24.6399 14.145 23.942C13.0943 23.2435 12.2393 22.2883 11.661 21.167C11.082 20.0441 10.7984 18.7923 10.8368 17.5295C10.8753 16.2667 11.2347 15.0345 11.881 13.949C12.526 12.8649 13.4371 11.9634 14.528 11.33C15.6175 10.698 16.8506 10.3554 18.11 10.335ZM15.714 21.538C16.4567 22.0422 17.3324 22.3144 18.23 22.32C18.8283 22.3206 19.4209 22.2034 19.9739 21.975C20.5269 21.7467 21.0295 21.4116 21.453 20.989C22.3101 20.1336 22.7943 18.974 22.8 17.763C22.8 16.863 22.534 15.983 22.036 15.234C21.539 14.4861 20.8316 13.9022 20.003 13.556C19.1748 13.2099 18.2624 13.1177 17.3817 13.2913C16.5011 13.4649 15.6919 13.8964 15.057 14.531C14.4199 15.1662 13.9849 15.9757 13.8066 16.8575C13.6283 17.7393 13.7147 18.6542 14.055 19.487C14.3933 20.3198 14.971 21.0335 15.715 21.538H15.714ZM25.753 23.256L28.74 26.218C28.8748 26.3499 28.9821 26.5074 29.0555 26.6812C29.1289 26.8549 29.167 27.0416 29.1676 27.2302C29.1681 27.4189 29.1311 27.6058 29.0588 27.78C28.9864 27.9542 28.8801 28.1123 28.746 28.245C28.6126 28.3785 28.4543 28.4844 28.2799 28.5567C28.1056 28.629 27.9187 28.6662 27.73 28.6662C27.5413 28.6662 27.3544 28.629 27.1801 28.5567C27.0057 28.4844 26.8474 28.3785 26.714 28.245L23.744 25.3C24.513 24.724 25.1904 24.0349 25.753 23.256Z" fill="white"/>
</g>
<defs>
<clipPath id="clip0_2_35">
<rect width="40" height="40" fill="white" transform="translate(0.5)"/>
</clipPath>
</defs>
</svg>
