<svg width="23" height="22" viewBox="0 0 23 22" fill="none" xmlns="http://www.w3.org/2000/svg">
<path d="M13.1974 15.9011C12.5926 15.9176 11.9933 15.7823 11.4542 15.5076C10.9151 15.233 10.4534 14.8276 10.1112 14.3287C10.1112 14.3287 9.37643 17.2679 9.22212 17.8043C8.71211 19.3065 7.94099 20.707 6.94423 21.9412C6.92433 21.9675 6.89719 21.9874 6.86614 21.9984C6.83509 22.0094 6.8015 22.0111 6.76948 22.0033C6.73747 21.9955 6.70844 21.9785 6.68596 21.9544C6.66348 21.9303 6.64854 21.9002 6.64296 21.8677C6.37387 20.2767 6.37884 18.6514 6.65766 17.0621L8.28157 10.177C8.00652 9.54704 7.86875 8.86571 7.87743 8.17836C7.87743 6.30461 8.96494 4.90848 10.317 4.90848C10.5586 4.90458 10.7982 4.95253 11.0197 5.0491C11.2412 5.14566 11.4394 5.2886 11.601 5.46827C11.7625 5.64794 11.8837 5.86016 11.9563 6.09063C12.0288 6.3211 12.0512 6.56445 12.0217 6.80428C12.0217 7.95792 11.2869 9.69205 10.9048 11.2866C10.8297 11.5829 10.8252 11.8928 10.8916 12.1912C10.958 12.4896 11.0935 12.7682 11.2872 13.0048C11.4809 13.2413 11.7273 13.4292 12.0067 13.5532C12.2862 13.6772 12.5908 13.7339 12.8961 13.7188C15.2916 13.7188 16.9008 10.6473 16.9008 7.00267C16.9008 4.23246 15.0344 2.16032 11.6396 2.16032C10.828 2.12837 10.0184 2.26185 9.26002 2.55265C8.50163 2.84344 7.81032 3.28547 7.22814 3.85184C6.64595 4.41821 6.18507 5.09709 5.87351 5.84719C5.56196 6.59729 5.40624 7.40293 5.41584 8.2151C5.37998 9.11436 5.67544 9.99551 6.24617 10.6914C6.35408 10.776 6.43071 10.8942 6.46398 11.0273C6.49724 11.1604 6.48524 11.3007 6.42987 11.4262C6.37108 11.654 6.23147 12.2198 6.17269 12.4402C6.16203 12.5085 6.13519 12.5733 6.0944 12.6292C6.05361 12.685 6.00006 12.7303 5.93821 12.7612C5.87637 12.7921 5.80802 12.8078 5.73888 12.8069C5.66974 12.806 5.60181 12.7886 5.54076 12.7562C3.80662 11.9993 2.98364 10.0668 2.98364 7.89178C2.98364 4.30595 6.01103 0 12.0144 0C16.842 0 20.0164 3.49031 20.0164 7.23781C20.0164 12.1977 17.2609 15.9011 13.1974 15.9011Z" fill="white"/>
</svg>
