<svg width="69" height="71" viewBox="0 0 69 71" fill="none" xmlns="http://www.w3.org/2000/svg">
<g clip-path="url(#clip0_2_176)">
<path d="M17.6569 30.7462C17.6569 25.1508 13.8916 20.6055 9.27347 20.6055C4.6553 20.6065 0.890045 25.1508 0.890045 30.7482C0.890045 36.3436 4.6553 40.8724 9.27347 40.8724C13.8916 40.8724 17.6569 36.3281 17.6569 30.7472V30.7462ZM9.27347 38.0339C6.21639 38.0339 3.73827 34.765 3.73827 30.7307C3.73827 26.6973 6.21542 23.4285 9.27347 23.4285C12.3306 23.4285 14.7766 26.7119 14.7766 30.7472C14.7766 34.7806 12.3306 38.0339 9.27347 38.0339ZM68.89 30.7307C68.89 25.1498 65.1248 20.6065 60.5066 20.6065C55.8884 20.6065 52.1232 25.1498 52.1232 30.7472C52.102 30.9452 52.1231 31.1454 52.185 31.3347C52.247 31.5239 52.3484 31.6978 52.4826 31.8449C52.6172 31.9936 52.7815 32.1124 52.9649 32.1936C53.1483 32.2748 53.3467 32.3165 53.5473 32.3161C53.7477 32.3159 53.9458 32.274 54.1291 32.193C54.3124 32.1121 54.4769 31.9939 54.612 31.8459C54.7458 31.6984 54.847 31.5242 54.909 31.3349C54.9709 31.1456 54.9922 30.9453 54.9714 30.7472C54.9714 26.7284 57.4486 23.444 60.5066 23.444C63.5637 23.444 66.0418 26.7129 66.0418 30.7462C66.0418 34.765 63.5647 38.0339 60.5066 38.0339C60.1277 38.0334 59.764 38.1824 59.4944 38.4487C59.3618 38.58 59.2566 38.7363 59.1847 38.9086C59.1129 39.0808 59.0759 39.2656 59.0759 39.4522C59.0759 39.6388 59.1129 39.8236 59.1847 39.9958C59.2566 40.168 59.3618 40.3243 59.4944 40.4557C59.7638 40.7223 60.1276 40.8717 60.5066 40.8714C65.1248 40.8714 68.89 36.3271 68.89 30.7307ZM45.3494 23.0137C49.9676 23.0137 53.7328 18.4693 53.7328 12.8729C53.7328 7.27652 49.9511 2.73218 45.3494 2.73218C40.7468 2.73218 36.966 7.27652 36.966 12.8729C36.966 18.4693 40.6992 23.0137 45.3494 23.0137ZM45.3494 5.57069C48.4065 5.57069 50.8846 8.83858 50.8846 12.8729C50.8846 16.9073 48.3744 20.1751 45.3494 20.1751C42.3244 20.1751 39.8142 16.9073 39.8142 12.8729C39.8142 8.83858 42.2758 5.57069 45.3494 5.57069ZM24.4307 23.0137C29.0488 23.0137 32.8141 18.4693 32.8141 12.8729C32.8141 7.27652 29.0809 2.73218 24.4307 2.73218C19.7804 2.73218 16.0472 7.27652 16.0472 12.8729C16.0472 18.4693 19.829 23.0137 24.4307 23.0137ZM24.4307 5.57069C27.4887 5.57069 29.9659 8.83858 29.9659 12.8729C29.9659 16.9073 27.5043 20.1751 24.4307 20.1751C21.358 20.1751 18.8955 16.9073 18.8955 12.8729C18.8955 8.83858 21.4056 5.57069 24.4307 5.57069ZM55.0035 48.4136L46.1538 33.0592C43.2249 28.0039 39.2178 25.214 34.89 25.214C30.5614 25.214 26.5552 28.0039 23.6263 33.0582L14.7766 48.3971C14.1896 49.4095 13.7047 50.4779 13.3292 51.5863C12.7831 52.9943 12.5095 54.4932 12.5229 56.0034C12.5578 59.0479 13.7583 61.9633 15.8772 64.1498C18.0075 66.3481 20.8909 67.6586 23.9479 67.8179H24.4307C26.039 67.8232 27.6317 67.503 29.113 66.8766C30.1757 66.4628 31.9456 65.6652 33.7797 64.8045L34.4403 65.0756C38.0177 66.7184 41.8823 67.6444 45.8157 67.8014C48.8774 67.6547 51.7702 66.3546 53.9126 64.1624C56.0432 61.9817 57.2572 59.0674 57.3048 56.0189C57.2688 54.5409 57.0026 53.0776 56.516 51.6815C56.1239 50.5437 55.6171 49.4488 55.0035 48.4136ZM45.8002 64.9794C42.8825 64.8851 40.0052 64.2699 37.304 63.1628L37.851 62.8908L39.4596 62.1574C39.5665 62.0962 39.6636 62.0214 39.7491 61.934L41.3588 61.1209L42.8713 60.3554C43.2064 60.1844 43.46 59.8891 43.5766 59.5336C43.6344 59.3574 43.6568 59.1715 43.6427 58.9867C43.6285 58.8018 43.578 58.6215 43.494 58.4562C43.3234 58.1214 43.0278 57.8673 42.6712 57.749C42.3131 57.6298 41.9225 57.6556 41.5832 57.8209L39.9745 58.5854C37.4808 59.8454 33.3134 61.966 31.559 62.6839L31.3987 62.7956C30.063 63.4173 28.8244 63.9594 28.0512 64.2625C26.8384 64.802 25.5154 65.0476 24.1898 64.9794H24.044C21.7201 64.8603 19.5266 63.8688 17.9017 62.203C16.2852 60.5458 15.363 58.3336 15.3235 56.0189C15.3273 55.9818 15.3273 55.9443 15.3235 55.9072C15.3299 54.7662 15.5483 53.6364 15.9676 52.5752C16.2872 51.6329 16.702 50.7246 17.2062 49.8649L26.0403 34.4775C28.4378 30.3324 31.559 28.1001 34.8415 28.1001C38.1249 28.1001 41.2782 30.38 43.6426 34.4775L52.5409 49.8319C53.0441 50.6936 53.4589 51.6009 53.7804 52.5422C54.1855 53.6593 54.4138 54.8328 54.4566 56.0189C54.4222 58.3243 53.5103 60.5299 51.9066 62.1865C50.294 63.8518 48.1145 64.8489 45.8002 64.9794Z" fill="white"/>
</g>
<defs>
<clipPath id="clip0_2_176">
<rect width="68" height="70" fill="white" transform="translate(0.890045 0.275024)"/>
</clipPath>
</defs>
</svg>
