<svg width="23" height="22" viewBox="0 0 23 22" fill="none" xmlns="http://www.w3.org/2000/svg">
<path d="M20.2515 6.51397V7.09446C20.2515 13.0611 15.7104 19.9388 7.40715 19.9388C4.95793 19.9391 2.56028 19.2351 0.5 17.9108C0.858654 17.9507 1.21929 17.9704 1.58016 17.9695C3.6123 17.9679 5.58468 17.2819 7.17936 16.0223C6.23691 16.0045 5.32361 15.6925 4.56731 15.1299C3.81101 14.5673 3.24957 13.7823 2.96159 12.8847C3.2402 12.9374 3.52306 12.9645 3.80661 12.9655C4.20881 12.9645 4.60909 12.9102 4.99699 12.8039C3.97824 12.5977 3.0617 12.0466 2.40184 11.2436C1.74197 10.4405 1.37911 9.43446 1.37442 8.39506V8.35098C2.00786 8.70021 2.71609 8.89176 3.43921 8.90942C2.48415 8.27075 1.80821 7.29228 1.54886 6.17299C1.28952 5.05371 1.46624 3.87767 2.04309 2.88404C3.17514 4.27808 4.58771 5.41847 6.18908 6.23118C7.79045 7.04389 9.54484 7.51076 11.3383 7.60148C11.1148 6.63395 11.2162 5.61972 11.6268 4.71558C12.0374 3.81144 12.7344 3.06772 13.6101 2.59937C14.4857 2.13103 15.4912 1.96414 16.4712 2.12451C17.4512 2.28487 18.3511 2.76356 19.0317 3.48658C20.04 3.28735 21.0067 2.91705 21.8901 2.39172C21.5539 3.43768 20.8488 4.32565 19.9061 4.89005C20.8027 4.77661 21.6771 4.5289 22.5 4.15525C21.8976 5.06962 21.136 5.86851 20.2515 6.51397Z" fill="white"/>
</svg>
