<svg width="23" height="22" viewBox="0 0 23 22" fill="none" xmlns="http://www.w3.org/2000/svg">
<path d="M16.1496 0H6.85044C5.1662 0 3.55094 0.669062 2.36 1.86C1.16906 3.05094 0.5 4.6662 0.5 6.35044L0.5 15.6496C0.5 17.3338 1.16906 18.9491 2.36 20.14C3.55094 21.3309 5.1662 22 6.85044 22H16.1496C17.8338 22 19.4491 21.3309 20.64 20.14C21.8309 18.9491 22.5 17.3338 22.5 15.6496V6.35044C22.5 4.6662 21.8309 3.05094 20.64 1.86C19.4491 0.669062 17.8338 0 16.1496 0ZM20.4723 15.813C20.4752 16.3682 20.3685 16.9186 20.1583 17.4325C19.9481 17.9465 19.6384 18.4139 19.2472 18.8079C18.8559 19.2019 18.3907 19.5148 17.8783 19.7286C17.3659 19.9425 16.8162 20.053 16.261 20.054H6.73903C5.62014 20.054 4.54708 19.6095 3.75591 18.8184C2.96473 18.0272 2.52026 16.9541 2.52026 15.8352V6.29845C2.51928 5.74416 2.62773 5.19512 2.8394 4.68284C3.05107 4.17055 3.36178 3.70509 3.75372 3.31314C4.14567 2.9212 4.61113 2.61048 5.12342 2.39882C5.6357 2.18715 6.18474 2.0787 6.73903 2.07968H16.261C16.8153 2.0787 17.3643 2.18715 17.8766 2.39882C18.3889 2.61048 18.8543 2.9212 19.2463 3.31314C19.6382 3.70509 19.9489 4.17055 20.1606 4.68284C20.3723 5.19512 20.4807 5.74416 20.4797 6.29845L20.4723 15.813Z" fill="white"/>
<path d="M11.5 5.34766C10.3704 5.34766 9.26606 5.68264 8.32677 6.31025C7.38749 6.93786 6.65541 7.8299 6.22311 8.87357C5.7908 9.91725 5.67769 11.0657 5.89808 12.1736C6.11847 13.2816 6.66245 14.2993 7.46125 15.0981C8.26004 15.8969 9.27776 16.4409 10.3857 16.6613C11.4937 16.8817 12.6421 16.7685 13.6858 16.3362C14.7295 15.9039 15.6215 15.1719 16.2491 14.2326C16.8767 13.2933 17.2117 12.189 17.2117 11.0593C17.2117 10.3093 17.064 9.56655 16.7769 8.87357C16.4899 8.1806 16.0692 7.55095 15.5388 7.02057C15.0084 6.49019 14.3788 6.06947 13.6858 5.78243C12.9928 5.49539 12.2501 5.34766 11.5 5.34766ZM11.5 14.7582C10.7655 14.7582 10.0475 14.5404 9.43679 14.1323C8.82607 13.7242 8.35008 13.1442 8.069 12.4657C7.78791 11.7871 7.71437 11.0404 7.85766 10.32C8.00096 9.59959 8.35466 8.93787 8.87403 8.4185C9.3934 7.89912 10.0551 7.54543 10.7755 7.40213C11.4959 7.25884 12.2426 7.33238 12.9212 7.61347C13.5998 7.89455 14.1798 8.37054 14.5878 8.98126C14.9959 9.59197 15.2137 10.31 15.2137 11.0445C15.2137 12.0294 14.8225 12.974 14.126 13.6705C13.4295 14.3669 12.485 14.7582 11.5 14.7582Z" fill="white"/>
<path d="M17.3974 6.46175C18.1316 6.46175 18.7269 5.86651 18.7269 5.13224C18.7269 4.39797 18.1316 3.80273 17.3974 3.80273C16.6631 3.80273 16.0679 4.39797 16.0679 5.13224C16.0679 5.86651 16.6631 6.46175 17.3974 6.46175Z" fill="white"/>
</svg>
