<svg width="80" height="79" viewBox="0 0 80 79" fill="none" xmlns="http://www.w3.org/2000/svg">
<g clip-path="url(#clip0_2_78)">
<path d="M78.2788 20.3274L40.588 1.72921C40.4057 1.64034 40.2056 1.59415 40.0028 1.59415C39.8 1.59415 39.5999 1.64034 39.4176 1.72921L1.7112 20.3274C1.40105 20.4737 1.16405 20.7409 1.05189 21.0667C0.940707 21.3924 0.964115 21.7504 1.11724 22.0595C1.27648 22.3683 1.55051 22.6023 1.88043 22.7112C2.21035 22.82 2.56982 22.7951 2.88157 22.6418L39.995 4.33524L77.1084 22.6418C77.2937 22.7296 77.4966 22.7744 77.7024 22.7715C78.193 22.7734 78.6445 22.4984 78.8727 22.0595C79.0259 21.7513 79.0493 21.3934 78.9381 21.0667C78.8831 20.9057 78.7964 20.7573 78.6832 20.6304C78.57 20.5034 78.4325 20.4004 78.2788 20.3274ZM66.3352 60.6954C65.3266 60.2335 64.1793 60.1756 63.1293 60.5335L49.2458 63.7705C49.366 62.5817 49.0468 61.39 48.3485 60.4204C47.5812 59.3686 46.4278 58.6642 45.1417 58.4619L32.9084 55.7906H32.7485C31.3809 55.4111 29.9473 55.3333 28.5467 55.5624C27.1461 55.7916 25.812 56.3224 24.6368 57.118C22.6647 58.4619 12.9653 64.8063 12.8531 64.8717C12.7102 64.9648 12.5871 65.0853 12.4911 65.2263C12.3951 65.3672 12.328 65.5259 12.2937 65.693C12.2594 65.86 12.2586 66.0323 12.2913 66.1997C12.3241 66.3671 12.3897 66.5263 12.4845 66.6682C12.6777 66.9548 12.9755 67.1543 13.314 67.224C13.6526 67.2936 14.005 67.2278 14.2956 67.0408C14.6965 66.7813 24.1394 60.5657 26.1115 59.2549C27.0175 58.6414 28.0513 58.2424 29.1346 58.0881C30.2178 57.9338 31.3219 58.0283 32.3632 58.3644H32.4763L44.6287 61.0192C45.2675 61.0972 45.8468 61.4366 46.2311 61.9574C46.5998 62.4588 46.75 63.0898 46.6486 63.7062C46.5458 64.3173 46.2084 64.8641 45.7083 65.2299C45.2081 65.5958 44.5848 65.7518 43.9713 65.6646L35.9543 64.0456C35.7848 64.0024 35.6083 63.9939 35.4354 64.0203C35.2625 64.0468 35.0966 64.1078 34.9478 64.1997C34.6454 64.385 34.4309 64.6854 34.3519 65.0336C34.3158 65.2009 34.3134 65.3738 34.3448 65.5421C34.3762 65.7104 34.4407 65.8708 34.5347 66.0139C34.6286 66.157 34.7501 66.28 34.892 66.3758C35.0339 66.4715 35.1934 66.5381 35.3613 66.5716L43.3783 68.1897C43.6446 68.2111 43.9128 68.2111 44.1791 68.1897C44.8425 68.186 45.4986 68.0511 46.1096 67.7926C46.7206 67.5342 47.2743 67.1573 47.7389 66.6838L63.7701 62.9289H63.9144C64.3311 62.7604 64.7969 62.7604 65.2136 62.9289C65.6271 63.1083 65.947 63.4555 66.0952 63.8847C66.2981 64.3099 66.3059 64.8034 66.1177 65.2355C66.0255 65.4485 65.8884 65.6391 65.7156 65.7941C65.5429 65.9492 65.3387 66.065 65.117 66.1337L47.9145 72.3172C47.0679 72.6722 46.1229 72.7073 45.2539 72.4147L30.8251 69.3717C30.5202 69.3074 30.2024 69.353 29.9279 69.5005L19.9709 74.7613C19.6686 74.9193 19.4423 75.1934 19.3428 75.522C19.2434 75.8517 19.2785 76.2067 19.4423 76.5091C19.7934 77.144 20.5834 77.381 21.2213 77.0435L30.8407 71.9934L44.7877 74.9388C46.1624 75.3427 47.6341 75.2629 48.9571 74.7125L66.0465 68.5613C66.8451 68.278 67.5399 67.7609 68.0405 67.0773C68.5412 66.3937 68.8244 65.5751 68.8534 64.7283C68.8864 63.8811 68.6639 63.0435 68.2149 62.3243C67.7658 61.6052 67.1109 61.0376 66.3352 60.6954Z" fill="#F27629"/>
<path d="M23.4343 32.3529C23.2411 35.0204 25.2191 37.3426 27.8592 37.5494C30.4731 37.3095 32.4139 34.997 32.2189 32.3529C32.4129 29.6874 30.434 27.3642 27.7949 27.1575C25.181 27.3984 23.2402 29.7089 23.4343 32.3529ZM30.0556 32.3529C30.1347 33.0389 29.9526 33.7296 29.5457 34.2874C29.1387 34.8453 28.5366 35.2296 27.8592 35.3637C26.4343 35.1238 25.4424 33.8032 25.5985 32.3529C25.5202 31.6648 25.7045 30.9726 26.1146 30.4145C26.5247 29.8565 27.1304 29.4739 27.8105 29.3431C28.4879 29.4773 29.0899 29.8615 29.4969 30.4194C29.9039 30.9773 30.0859 31.6679 30.0069 32.3539L30.0556 32.3529ZM56.6045 32.3529C56.7976 35.0204 54.8197 37.3426 52.1795 37.5494C49.5462 37.3348 47.5761 35.0136 47.7711 32.3529C47.5761 29.6933 49.5462 27.373 52.1795 27.1575C54.8197 27.3642 56.7976 29.6874 56.6035 32.3539L56.6045 32.3529ZM54.3915 32.3529C54.4745 31.6622 54.2924 30.9656 53.8818 30.4039C53.4713 29.8422 52.8629 29.4572 52.1795 29.3266C50.7731 29.5967 49.8144 30.9192 49.9831 32.3539C49.9044 33.0421 50.0885 33.7346 50.4987 34.2927C50.9089 34.8509 51.5148 35.2334 52.1951 35.3637C52.8725 35.2296 53.4746 34.8453 53.8816 34.2874C54.2885 33.7296 54.4706 33.0389 54.3915 32.3529ZM44.9652 18.7249C42.325 18.9317 40.3471 21.2539 40.5402 23.9204C40.3471 26.5869 42.325 28.9091 44.9652 29.1159C47.6053 28.9091 49.5833 26.5869 49.3901 23.9204C49.5833 21.2539 47.6053 18.9317 44.9652 18.7249ZM44.9652 26.9468C44.288 26.8127 43.686 26.4286 43.2791 25.8709C42.8721 25.3132 42.69 24.6228 42.7688 23.937C42.6897 23.251 42.8718 22.5604 43.2787 22.0025C43.6857 21.4446 44.2878 21.0604 44.9652 20.9262C45.6426 21.0604 46.2446 21.4446 46.6516 22.0025C47.0586 22.5604 47.2406 23.251 47.1616 23.937C47.2406 24.623 47.0586 25.3136 46.6516 25.8715C46.2446 26.4294 45.6426 26.8126 44.9652 26.9468ZM30.5998 23.9204C30.4067 21.2539 32.3847 18.9317 35.0248 18.7249C37.6718 18.9229 39.6595 21.2481 39.4664 23.9204C39.6595 26.5928 37.6718 28.9179 35.0248 29.1159C32.3847 28.9091 30.4067 26.5869 30.5998 23.9204ZM32.8284 23.937C32.7494 24.623 32.9314 25.3136 33.3384 25.8715C33.7454 26.4294 34.3474 26.8136 35.0248 26.9478C35.7022 26.8136 36.3043 26.4294 36.7113 25.8715C37.1182 25.3136 37.3003 24.623 37.2212 23.937C37.3003 23.251 37.1182 22.5604 36.7113 22.0025C36.3043 21.4446 35.7022 21.0604 35.0248 20.9262C34.3474 21.0604 33.7454 21.4446 33.3384 22.0025C32.9314 22.5604 32.7494 23.251 32.8284 23.937ZM34.2553 33.2278L30.0225 40.446C29.7255 40.9587 29.4839 41.5014 29.3017 42.0651C29.02 42.7815 28.8786 43.5453 28.8853 44.3151C28.9594 47.5599 31.5235 50.1845 34.7371 50.3035H35.0414C35.8489 50.3083 36.6495 50.1546 37.3978 49.8509L38.1029 49.6237C38.7075 49.3872 39.3465 49.2505 39.995 49.2189C40.6426 49.2502 41.2824 49.3867 41.8871 49.6237L42.6722 49.8188C43.4797 50.0649 44.3143 50.2117 45.1573 50.2557H45.2373C48.4587 50.1279 51.0238 47.4878 51.0891 44.2341C51.0688 43.4947 50.9335 42.7629 50.6883 42.0651C50.4962 41.5025 50.2492 40.9602 49.9509 40.446L45.7181 33.2112C45.1968 32.1066 44.39 31.1613 43.3812 30.4727C42.3723 29.7841 41.198 29.3774 39.9794 29.2944C38.7616 29.3815 37.5892 29.792 36.583 30.4835C35.5768 31.1749 34.7733 32.1222 34.2553 33.2278ZM43.8748 34.3279L48.1076 41.5637C48.3319 41.9441 48.5192 42.344 48.6684 42.7614C48.8323 43.2354 48.9239 43.7319 48.9415 44.2341C48.8927 46.2891 47.2864 47.9598 45.2539 48.07C44.6065 48.0327 43.9658 47.9188 43.3452 47.7306L42.6566 47.52C41.8105 47.1685 40.9101 46.9659 39.995 46.9211C39.1117 46.9487 38.2392 47.1234 37.4134 47.438L36.7248 47.6497H36.596C36.0889 47.8633 35.5427 47.9676 34.9926 47.9569H34.8483C32.7962 47.8808 31.1548 46.2091 31.0973 44.1366C31.1298 43.6605 31.2495 43.1944 31.4503 42.7614C31.5966 42.344 31.7839 41.9422 32.0111 41.5637L36.244 34.3279C36.5828 33.5692 37.1122 32.911 37.7809 32.4176C38.4495 31.9242 39.2344 31.6123 40.0594 31.5122C40.8711 31.6212 41.6416 31.9355 42.2979 32.4253C42.9543 32.9151 43.4749 33.5642 43.8104 34.3114L43.8748 34.3279Z" fill="#F27629"/>
</g>
<defs>
<clipPath id="clip0_2_78">
<rect width="79" height="79" fill="white" transform="translate(0.494995)"/>
</clipPath>
</defs>
</svg>
