<svg width="133" height="70" viewBox="0 0 133 70" fill="none" xmlns="http://www.w3.org/2000/svg">
<path d="M101.95 33.3001C101.95 32.7798 101.951 32.239 101.951 31.6813C101.951 28.5089 102.234 25.0171 102.234 21.9682C102.234 20.9095 101.443 19.8121 100.089 19.8121C99.0294 19.8121 97.9731 20.6917 97.9731 21.9101C97.9731 23.6378 98.1038 25.5144 98.1837 28.429C97.419 27.9644 96.324 27.5845 94.5612 27.5845C89.2001 27.5845 86.3133 31.7829 86.3133 35.438C86.3133 36.6334 86.5105 37.6654 86.8554 38.5462C86.2867 39.0399 85.5596 39.4815 84.6292 39.4815C83.6987 39.4815 82.7635 38.7047 82.7635 35.7961C82.7635 35.1428 82.8675 32.5524 82.8675 31.605C82.8675 29.0751 81.0418 27.5761 78.3522 27.5761C75.6626 27.5761 74.0813 29.011 73.0504 30.6649C73.077 30.2814 73.0952 29.9426 73.0952 29.6607C73.0952 28.2947 71.9458 27.5761 70.9174 27.5761C70.0232 27.5761 68.8315 28.2814 68.8315 29.7043C68.8315 31.5167 68.9755 33.3654 69.0372 35.1912C69.0529 35.6376 69.0626 36.0829 69.0638 36.5293C68.9997 36.6031 68.9392 36.6806 68.8871 36.7616C67.9676 38.1845 66.9513 39.3133 64.8654 39.3133C62.2811 39.3133 61.3047 37.8336 61.3047 35.4344C61.3047 34.3164 62.1516 33.5227 62.1516 32.3152C62.1516 31.9946 62.0851 31.6704 61.9629 31.3618C61.7506 31.5924 61.5118 31.7971 61.2515 31.9716C61.2116 31.9922 61.174 32.0237 61.1365 32.0479C61.0978 32.0733 61.0579 32.0975 61.018 32.1204C60.9744 32.1459 60.9272 32.1652 60.8825 32.1894C60.8038 32.233 60.7252 32.2729 60.6441 32.3116C60.5679 32.3479 60.4929 32.383 60.4154 32.4157C60.3743 32.4338 60.3344 32.4556 60.292 32.4725C60.2376 32.4943 60.1819 32.51 60.1263 32.5294C60.0839 32.5451 60.0428 32.5633 60.0004 32.579C59.8831 32.6189 59.7633 32.6564 59.6399 32.6758C59.5854 32.6843 59.5334 32.6867 59.4814 32.6867C59.4294 32.6867 59.3773 32.6843 59.3229 32.6758C59.1995 32.6564 59.0797 32.6189 58.9624 32.579C58.92 32.5645 58.8789 32.5451 58.8365 32.5306C58.7809 32.5112 58.7252 32.4955 58.6708 32.4737C58.6284 32.4568 58.5885 32.435 58.5474 32.4169C58.4699 32.3842 58.3949 32.3491 58.3187 32.3128C58.2376 32.2741 58.159 32.2342 58.0803 32.1906C58.0356 32.1664 57.9884 32.1471 57.9448 32.1217C57.9049 32.0987 57.865 32.0733 57.8263 32.0491C57.7887 32.0249 57.7512 31.9922 57.7113 31.9728C57.4851 31.8216 57.2733 31.6462 57.081 31.4526C56.9878 31.7248 56.937 32.0164 56.937 32.3189C56.937 33.4671 57.7803 34.3575 57.7803 35.4162C57.7803 37.8154 56.7168 39.3133 54.2099 39.3133C52.2232 39.3133 51.1137 38.2195 50.2015 36.7616C50.1398 36.6653 50.0698 36.5746 49.9922 36.4906L49.997 36.4882C52.9177 33.68 57.8299 28.3419 57.8299 23.7371C57.8299 20.1618 55.8807 17.6839 52.4301 17.6839C50.7774 17.6839 49.4368 18.151 48.4084 18.9083C47.3473 19.6899 46.625 20.7849 46.2415 22.0045C46.0268 22.6869 45.9171 23.398 45.916 24.1133C45.916 25.7467 45.9874 27.3813 46.0297 29.0134C46.0334 29.1647 46.0394 29.3159 46.043 29.4671C46.0685 30.6964 46.083 31.9269 46.0939 33.1573C46.0975 33.4707 46.1048 33.7841 46.1072 34.0974C46.1132 35.0327 45.8277 35.1379 45.2481 35.8602C44.7569 36.4712 44.0068 37.1089 43.593 37.5251C43.1066 38.0139 42.7739 38.9975 43.034 39.7731C43.2905 40.5341 44.5343 41.1185 45.4248 40.4131C45.5361 40.3248 45.6414 40.2171 45.7176 40.1433C45.8664 39.9993 46.0334 39.8614 46.1882 39.7307C46.4423 41.2987 46.1834 43.1281 46.1386 44.7191C46.0793 46.8377 45.847 47.7015 45.847 49.8176C45.7611 51.1764 46.6008 52.4891 48.2172 52.3379C49.2977 52.2362 49.945 51.4087 49.9353 49.9265C49.9329 49.589 49.974 44.6768 49.9583 40.839C51.075 41.7028 52.5475 42.355 54.3151 42.355C56.0828 42.355 58.2037 41.8565 59.5455 39.7973C61.0059 42.0658 63.4051 42.3562 64.8025 42.3562C66.396 42.3562 67.7789 41.7972 68.8702 41.0241C69.0807 42.0235 69.97 42.7034 70.9791 42.7034C72.0389 42.7034 73.0952 41.8456 73.0952 40.5946C73.0952 40.1965 72.9488 38.4591 72.8641 36.8548C72.8689 34.6661 75.1665 30.8271 77.2113 30.8271C78.23 30.8271 78.893 31.7127 78.893 32.9662C78.893 33.9292 78.7793 35.83 78.7793 37.0895C78.7793 40.0622 79.5294 42.6792 83.7278 42.6792C85.7253 42.6792 87.2837 41.7706 88.3847 40.8329C89.7482 42.1118 91.626 42.6938 93.5304 42.6938C96.0482 42.6938 97.7445 41.5903 98.8322 40.5716C98.8285 40.724 98.8261 40.8704 98.8261 41.0047C98.8261 42.0319 99.373 42.7663 100.326 42.7663C101.202 42.7663 102.358 42.0586 102.358 41.0241C102.358 40.8583 102.29 39.8759 102.208 38.5692C102.11 36.9963 101.991 34.9552 101.95 33.3061V33.3001ZM52.3164 21.0801C53.6049 21.0801 54.1288 22.3699 54.1288 23.7358C54.1288 27.0848 51.6739 30.2947 49.8772 32.3552C49.8881 31.9269 49.9014 31.4732 49.9135 31.0085C49.9922 28.135 50.0889 24.8356 50.0889 24.2646C50.0889 23.1672 50.5076 22.2259 51.0387 21.6851C51.4126 21.3052 51.8578 21.0801 52.3164 21.0801ZM98.2429 34.9262C98.2357 36.9588 96.7185 39.6158 93.9575 39.6158C92.2576 39.6158 90.5806 38.2764 90.5806 35.3969C90.5806 32.1422 92.8238 30.671 94.8637 30.671C96.4257 30.671 97.4275 31.2626 98.2417 32.1301C98.2417 32.3721 98.2441 32.6177 98.2441 32.8718V34.9274L98.2429 34.9262ZM9.49441 27.08C7.44363 27.08 5.924 27.7951 4.82904 28.6142C4.55076 27.6015 3.57316 27.0715 2.68147 27.0715C1.78977 27.0715 0.548415 27.7926 0.548415 29.2481C0.548415 30.5609 0.829112 34.1543 0.829112 38.914C0.829112 43.6738 0.536316 46.8364 0.536316 48.6949C0.536316 49.9665 1.21386 50.8763 2.39472 50.8763C3.48 50.8763 4.9101 49.9991 4.9101 48.7191C4.9101 48.2508 4.71289 45.2781 4.64029 41.5371C6.45877 42.3332 8.52165 42.7397 11.2125 42.2848C13.602 41.8807 15.4169 39.6738 15.4169 39.6738C16.4658 38.3067 16.8796 36.2716 16.8796 34.4967C16.8796 29.2663 13.2342 27.08 9.49562 27.08H9.49441ZM8.13206 39.2347C6.88345 39.2347 5.54288 38.8063 4.61731 37.8372C4.62578 36.8838 4.64392 35.9837 4.66812 35.15C4.67175 35.1162 4.67417 35.0786 4.67417 35.0363C4.67417 32.9553 6.22768 30.2233 9.05885 30.2233C10.7987 30.2233 12.5131 31.5929 12.5131 34.5402C12.5131 37.8711 10.2191 39.2347 8.13206 39.2347Z" fill="#F27629"/>
<path d="M40.1387 33.7756C40.1387 33.3376 40.1436 32.8887 40.1436 32.4338V32.3031C40.1436 31.6365 40.1557 30.9602 40.1762 30.2838C41.5616 30.3044 42.5791 30.3383 43.3486 30.3383C43.6196 30.3383 43.9971 30.2439 44.3262 30.031C44.7109 29.7817 45.0304 29.3691 45.0304 28.7206C45.0304 27.7672 44.3613 27.0933 43.3075 27.0933C42.3359 27.0933 41.3777 27.1187 40.3045 27.1393C40.3517 26.1472 40.3964 25.1926 40.4267 24.2912C40.446 23.6983 40.4606 23.1236 40.4606 22.5913C40.4606 21.454 39.5725 20.405 38.2392 20.405C37.3838 20.405 36.1799 21.0535 36.1013 22.4945C36.0989 22.5429 36.0868 22.5852 36.0868 22.6348C36.0868 22.9845 36.1654 24.4424 36.2404 26.1194C36.2501 26.446 36.2586 26.78 36.2646 27.1248C35.8109 27.1091 34.7777 27.0945 34.353 27.0945C33.6706 27.0945 32.6591 27.5277 32.6591 28.74C32.6591 29.7563 33.569 30.3383 34.3603 30.3383C34.6978 30.3383 35.7299 30.3189 36.2913 30.2996C36.2864 31.4223 36.2658 32.4532 36.238 33.3945C36.2126 33.801 36.186 34.216 36.1618 34.6201C36.1449 35.2057 36.1231 35.8772 36.1122 36.5088C36.0517 37.7755 35.9985 39.542 35.9985 40.3248C35.9985 41.5964 36.5405 42.5062 38.2997 42.4603C39.5834 42.4264 40.3722 41.4609 40.3722 40.349C40.3722 40.0501 40.2936 37.9848 40.2174 36.101C40.1883 35.3969 40.1605 34.6141 40.1363 33.7744L40.1387 33.7756ZM66.9549 25.8701C66.9549 27.1364 65.9285 28.1629 64.6622 28.1629C63.3959 28.1629 62.3694 27.1364 62.3694 25.8701C62.3694 24.6038 63.3959 23.5774 64.6622 23.5774C65.9285 23.5774 66.9549 24.6038 66.9549 25.8701ZM32.2478 37.6981C31.6598 37.6981 30.9508 38.2377 30.9495 38.2377C30.4051 38.6515 29.7989 39.0048 29.1432 39.208C28.4668 39.4186 27.782 39.3847 27.0839 39.3847C24.669 39.3847 23.5764 38.4748 23.1021 37.1524C28.727 37.1077 31.5835 34.8802 31.5835 31.501C31.5835 28.8985 29.3017 27.0558 26.0603 27.0558C21.8584 27.0558 18.369 30.227 18.369 35.2456C18.369 36.0381 18.4549 36.7689 18.6195 37.4392C18.6195 37.4392 18.9183 38.7688 19.7302 39.8069C21.0865 41.571 23.4385 42.5099 26.7113 42.5099C28.5358 42.5099 30.4656 42.0525 32.0929 41.2274C32.7269 40.9055 33.4686 40.5486 33.6972 39.8239C33.8642 39.2939 33.7795 38.6684 33.4262 38.2304C33.1383 37.8735 32.7003 37.7005 32.2466 37.7005L32.2478 37.6981ZM26.0083 29.8362C27.4699 29.8362 27.972 30.988 27.972 31.6958C27.972 33.4054 26.8589 34.4955 22.761 34.5596C22.7731 30.8924 24.7791 29.8362 26.0083 29.8362ZM129.259 27.1345C127.036 27.1345 125.32 28.694 124.322 30.2112C124.349 29.8289 124.367 29.4926 124.367 29.2119C124.367 27.8459 123.218 27.1272 122.19 27.1272C121.296 27.1272 120.105 27.8326 120.105 29.2554C120.105 30.5379 120.379 32.5342 120.379 34.602C120.379 34.9456 120.37 35.2735 120.357 35.5941C120.309 36.9976 120.236 37.8058 120.114 39.2734C120.102 39.5517 120.094 39.8311 120.094 40.1167C120.094 41.3605 121.098 42.2485 122.253 42.2485C123.314 42.2485 124.369 41.3907 124.369 40.1397C124.369 39.7392 124.222 37.986 124.137 36.3733C124.157 33.8083 126.784 30.6928 128.081 30.6928C128.934 30.6928 128.746 31.87 130.348 31.87C131.41 31.87 132.403 31.017 132.403 29.7999C132.403 28.7497 131.692 27.132 129.261 27.132L129.259 27.1345ZM117.375 37.6061C116.787 37.6061 116.078 38.1458 116.077 38.1458C115.532 38.5595 114.926 38.9128 114.27 39.1161C113.594 39.3266 112.909 39.2927 112.211 39.2927C109.796 39.2927 108.704 38.3829 108.229 37.0605C113.854 37.0157 116.711 34.7883 116.711 31.409C116.711 28.8065 114.429 26.9639 111.188 26.9639C106.986 26.9639 103.496 30.135 103.496 35.1525C103.496 35.9449 103.582 36.6757 103.747 37.346C103.747 37.346 104.046 38.6757 104.857 39.7138C106.214 41.4778 108.566 42.4167 111.839 42.4167C113.663 42.4167 115.593 41.9594 117.22 41.1342C117.854 40.8124 118.596 40.4555 118.825 39.7307C118.991 39.2008 118.907 38.5753 118.554 38.1373C118.266 37.7804 117.828 37.6073 117.374 37.6073L117.375 37.6061ZM111.136 29.7442C112.597 29.7442 113.099 30.896 113.099 31.6038C113.099 33.3134 111.986 34.4035 107.888 34.4677C107.9 30.8005 109.906 29.7442 111.136 29.7442Z" fill="#F27629"/>
<path d="M62.6077 31.0218C62.5509 30.8803 62.4795 30.7436 62.3924 30.6177C62.1262 30.2306 61.7015 29.9959 61.2393 29.922C61.1329 29.9051 61.0228 29.8954 60.9102 29.8942C60.5751 29.8906 60.2291 29.962 59.9496 30.1302C59.8552 30.187 59.7693 30.2523 59.6907 30.3274C59.612 30.4012 59.5418 30.4847 59.4801 30.573C59.3567 30.3938 59.1967 30.2429 59.0107 30.1302C58.9175 30.0745 58.8171 30.0285 58.7119 29.9934C58.5013 29.9233 58.2739 29.8918 58.05 29.8942C57.9387 29.8954 57.8274 29.9051 57.7209 29.922C57.2588 29.9959 56.8353 30.2306 56.5679 30.6177C56.4808 30.7436 56.4094 30.8803 56.3526 31.0218C56.0573 31.7502 56.182 32.5705 56.6248 33.2723C56.9006 33.709 57.2805 34.0708 57.7089 34.3563C57.7488 34.3769 57.7863 34.4084 57.8238 34.4326C57.8625 34.458 57.9024 34.4822 57.9424 34.5051C57.9859 34.5306 58.0331 34.5499 58.0779 34.5741C58.1565 34.6177 58.2364 34.6576 58.3162 34.6963C58.3924 34.7326 58.4675 34.7677 58.5449 34.8004C58.586 34.8185 58.626 34.8403 58.6683 34.8572C58.7227 34.879 58.7784 34.8947 58.8341 34.9141C58.8764 34.9298 58.9175 34.948 58.9599 34.9625C59.0785 35.0024 59.197 35.0399 59.3204 35.0593C59.3749 35.0677 59.4269 35.0702 59.4789 35.0702C59.531 35.0702 59.583 35.0677 59.6374 35.0593C59.7608 35.0399 59.8806 35.0024 59.998 34.9625C60.0403 34.948 60.0815 34.9286 60.1238 34.9129C60.1795 34.8935 60.2351 34.8778 60.2896 34.856C60.3319 34.8391 60.3718 34.8173 60.413 34.7992C60.4904 34.7665 60.5654 34.7314 60.6416 34.6951C60.7227 34.6564 60.8014 34.6165 60.88 34.5729C60.9248 34.5487 60.972 34.5293 61.0155 34.5039C61.0554 34.4809 61.0954 34.4555 61.1341 34.4313C61.1716 34.4071 61.2091 34.3745 61.249 34.3551C61.6761 34.0684 62.0572 33.7066 62.3331 33.271C62.7759 32.5693 62.9005 31.749 62.6053 31.0206L62.6077 31.0218Z" fill="#C22A22"/>
<path d="M58.6877 48.3633C58.6877 48.7166 58.5679 48.9889 58.326 49.1788C58.0852 49.3688 57.7404 49.4643 57.2915 49.4643H56.8813V50.8364H56.476V47.3482H57.3798C58.2521 47.3482 58.6877 47.687 58.6877 48.3645V48.3633ZM56.8813 49.1147H57.2467C57.6061 49.1147 57.8662 49.0566 58.0271 48.9405C58.188 48.8243 58.2679 48.638 58.2679 48.3815C58.2679 48.1504 58.1917 47.9798 58.0416 47.8661C57.8904 47.7535 57.6545 47.6967 57.335 47.6967H56.8813V49.1135V49.1147ZM62.9357 49.0856C62.9357 49.6446 62.7941 50.0826 62.5122 50.4032C62.2303 50.7226 61.8371 50.8823 61.335 50.8823C60.8329 50.8823 60.4251 50.7251 60.1456 50.4117C59.8662 50.0971 59.727 49.6543 59.727 49.0808C59.727 48.5073 59.8674 48.073 60.1468 47.7608C60.4263 47.4474 60.8244 47.2914 61.3398 47.2914C61.8552 47.2914 62.2327 47.4499 62.5134 47.7693C62.7953 48.0875 62.9357 48.5267 62.9357 49.0869V49.0856ZM60.1553 49.0856C60.1553 49.5575 60.2557 49.9168 60.4566 50.16C60.6574 50.4044 60.9502 50.5266 61.3338 50.5266C61.7173 50.5266 62.0125 50.4056 62.2097 50.1612C62.4069 49.9181 62.5049 49.5587 62.5049 49.0856C62.5049 48.6126 62.4069 48.2605 62.2097 48.0185C62.0137 47.7753 61.7233 47.6543 61.3374 47.6543C60.9514 47.6543 60.6574 47.7765 60.4554 48.0209C60.2545 48.2653 60.1541 48.621 60.1541 49.0869L60.1553 49.0856ZM67.2465 50.8352H66.8448L66.1407 48.4988C66.108 48.396 66.0693 48.2653 66.0282 48.108C65.987 47.9508 65.9653 47.8564 65.964 47.8237C65.929 48.0342 65.8733 48.2641 65.7971 48.5134L65.1147 50.8352H64.7142L63.7862 47.347H64.2157L64.7675 49.5019C64.8437 49.8043 64.8993 50.0778 64.9344 50.3222C64.9768 50.0306 65.0409 49.7463 65.1256 49.468L65.7511 47.347H66.1806L66.8364 49.4873C66.9126 49.7342 66.9767 50.0124 67.03 50.3222C67.0602 50.0959 67.1171 49.8201 67.2018 49.4958L67.7511 47.3458H68.1806L67.2477 50.834L67.2465 50.8352ZM71.1594 50.8352H69.215V47.347H71.1594V47.7076H69.6204V48.8316H71.0662V49.1897H69.6204V50.4734H71.1594V50.8364V50.8352ZM72.8278 49.3845V50.8352H72.4225V47.347H73.3795C73.8078 47.347 74.1236 47.4293 74.3281 47.5926C74.5326 47.7572 74.6342 48.0028 74.6342 48.3319C74.6342 48.7941 74.4007 49.105 73.9324 49.2671L74.8798 50.8352H74.4007L73.5562 49.3845H72.8278ZM72.8278 49.036H73.3844C73.6711 49.036 73.8804 48.9792 74.0147 48.8654C74.1478 48.7517 74.2156 48.5811 74.2156 48.3537C74.2156 48.1262 74.1478 47.9568 74.0111 47.8552C73.8756 47.7535 73.6566 47.7027 73.3565 47.7027H72.829V49.0373L72.8278 49.036ZM77.8767 50.8352H75.9324V47.347H77.8767V47.7076H76.3377V48.8316H77.7836V49.1897H76.3377V50.4734H77.8767V50.8364V50.8352ZM81.9238 49.0578C81.9238 49.6337 81.7677 50.0741 81.4544 50.3778C81.1422 50.6827 80.6921 50.8352 80.1053 50.8352H79.1386V47.347H80.207C80.7502 47.347 81.1713 47.497 81.4713 47.7983C81.7714 48.0996 81.9226 48.5194 81.9226 49.059L81.9238 49.0578ZM81.4943 49.0723C81.4943 48.6174 81.3806 48.275 81.1519 48.0439C80.9232 47.8128 80.5845 47.6979 80.1344 47.6979H79.5452V50.4843H80.0388C80.5228 50.4843 80.8857 50.3657 81.1289 50.1274C81.3721 49.889 81.4943 49.5369 81.4943 49.0711V49.0723ZM84.9486 47.3458H85.9334C86.3968 47.3458 86.7308 47.4148 86.9376 47.5539C87.1445 47.6918 87.2474 47.9108 87.2474 48.2097C87.2474 48.4166 87.1893 48.5872 87.0744 48.7215C86.9582 48.8558 86.7913 48.9429 86.5698 48.9828V49.0058C87.0998 49.0965 87.3647 49.3748 87.3647 49.8406C87.3647 50.1528 87.2595 50.396 87.049 50.5702C86.8384 50.7456 86.5432 50.8327 86.1645 50.8327H84.9474V47.3446L84.9486 47.3458ZM85.3539 48.84H86.0218C86.3085 48.84 86.5142 48.7953 86.64 48.7057C86.7658 48.6162 86.8288 48.465 86.8288 48.2508C86.8288 48.0548 86.7586 47.9145 86.6182 47.8274C86.4779 47.7402 86.2553 47.6979 85.9504 47.6979H85.3539V48.8412V48.84ZM85.3539 49.1837V50.4891H86.0822C86.3642 50.4891 86.5759 50.4347 86.7174 50.3246C86.8602 50.2157 86.9316 50.0451 86.9316 49.8128C86.9316 49.5974 86.859 49.4377 86.7126 49.3361C86.5674 49.2345 86.346 49.1824 86.0484 49.1824H85.3539V49.1837ZM89.4917 49.0905L90.4222 47.347H90.8613L89.6974 49.4825V50.8352H89.2873V49.5019L88.1258 47.347H88.5698L89.493 49.0905H89.4917Z" fill="#555557"/>
<path d="M93.5413 45.8455H124.284V52.3282H93.5413V45.8455Z" fill="white"/>
<path d="M99.8158 51.4921V46.0548H93.7505V52.1201H124.074V51.4921H99.8146H99.8158ZM99.1878 51.4921H94.3773V46.6816H99.1878V51.4921Z" fill="#C22A22"/>
<path d="M94.5866 46.8909H96.0506V48.3549H94.5866V46.8909ZM94.5866 49.8188H96.0506V51.2828H94.5866V49.8188ZM96.0506 48.3549H97.5146V49.8188H96.0506V48.3549ZM97.5146 46.8909H98.9785V48.3549H97.5146V46.8909ZM97.5146 49.8188H98.9785V51.2828H97.5146V49.8188Z" fill="#C22A22"/>
<path d="M99.8109 46.0548H124.074V51.4921H99.8109V46.0548Z" fill="black"/>
<path d="M115.261 47.2732C115.261 47.2103 115.295 47.1764 115.358 47.1764H115.834C115.882 47.1764 115.921 47.1958 115.95 47.2393L117.123 49.0143C117.235 49.1836 117.356 49.3639 117.483 49.572C117.502 49.6059 117.536 49.6011 117.536 49.5623C117.531 49.3639 117.521 49.0675 117.521 48.8691V47.2732C117.521 47.2103 117.555 47.1764 117.618 47.1764H118.007C118.07 47.1764 118.103 47.2103 118.103 47.2732V50.4734C118.103 50.5363 118.07 50.5702 118.007 50.5702H117.546C117.497 50.5702 117.459 50.5508 117.429 50.5073L116.241 48.7324C116.125 48.563 116.009 48.3827 115.882 48.1746C115.863 48.1407 115.829 48.1456 115.829 48.1843C115.834 48.3827 115.843 48.6791 115.843 48.8775V50.4734C115.843 50.5363 115.809 50.5702 115.747 50.5702H115.358C115.295 50.5702 115.261 50.5363 115.261 50.4734V47.2732ZM113.259 47.1764H113.652C113.665 47.1764 113.677 47.1789 113.689 47.1838C113.701 47.1887 113.712 47.1958 113.721 47.2048C113.73 47.2138 113.737 47.2244 113.742 47.2362C113.746 47.2479 113.749 47.2605 113.749 47.2732V50.4734C113.749 50.4991 113.739 50.5237 113.721 50.5418C113.702 50.56 113.678 50.5702 113.652 50.5702H113.259C113.233 50.5702 113.209 50.56 113.191 50.5418C113.172 50.5237 113.162 50.4991 113.162 50.4734V47.2732C113.162 47.2605 113.165 47.2479 113.17 47.2362C113.174 47.2244 113.182 47.2138 113.191 47.2048C113.2 47.1958 113.21 47.1887 113.222 47.1838C113.234 47.1789 113.246 47.1764 113.259 47.1764ZM111.916 50.0814C111.795 50.0814 111.689 50.0814 111.626 50.062C111.558 50.0427 111.519 50.004 111.48 49.9459L111.087 49.3639C111.068 49.3349 111.078 49.3155 111.111 49.301C111.228 49.2526 111.334 49.18 111.422 49.0929C111.621 48.8945 111.743 48.5981 111.743 48.2883C111.743 47.9786 111.627 47.6725 111.422 47.4741C111.229 47.2805 111 47.1788 110.618 47.1788H109.284C109.222 47.1788 109.188 47.2127 109.188 47.2756V50.4758C109.188 50.5387 109.222 50.5726 109.284 50.5726H109.683C109.745 50.5726 109.779 50.5387 109.779 50.4758V49.4377C109.779 49.4087 109.799 49.3893 109.828 49.3893H110.323C110.385 49.3893 110.434 49.4135 110.468 49.4668L111.021 50.2907C111.219 50.5859 111.414 50.6452 111.724 50.6452C111.772 50.6452 111.903 50.6452 111.946 50.6307C111.995 50.6162 112.014 50.5823 112.014 50.5387V50.1794C112.014 50.1165 111.98 50.0826 111.917 50.0826L111.916 50.0814ZM110.981 48.6755C110.879 48.7674 110.768 48.8158 110.583 48.8158H109.826C109.797 48.8158 109.778 48.7965 109.778 48.7674V47.7971C109.778 47.7681 109.797 47.7487 109.826 47.7487H110.583C110.767 47.7487 110.879 47.7971 110.976 47.8891C111.078 47.981 111.131 48.131 111.131 48.2871C111.131 48.4323 111.078 48.5823 110.981 48.6755ZM105.36 50.2411C105.113 49.9991 104.991 49.6882 104.991 49.1982V47.2732C104.991 47.2103 105.024 47.1764 105.087 47.1764L105.495 47.1813C105.558 47.1813 105.592 47.2151 105.592 47.2781V49.2756C105.592 49.5515 105.664 49.7172 105.805 49.8672C105.94 50.0173 106.164 50.085 106.382 50.085C106.6 50.085 106.838 50.0173 106.978 49.8672C107.114 49.7172 107.182 49.5527 107.182 49.2756V47.2732C107.182 47.2103 107.216 47.1764 107.278 47.1764H107.686C107.749 47.1764 107.783 47.2103 107.783 47.2732V49.2224C107.783 49.7075 107.662 49.9979 107.419 50.2459C107.167 50.5024 106.779 50.644 106.381 50.644C105.983 50.644 105.605 50.494 105.357 50.2411M103.507 47.4922C103.294 47.2841 103.051 47.1776 102.64 47.1776H101.243C101.181 47.1776 101.147 47.2115 101.147 47.2744V50.4746C101.147 50.5375 101.181 50.5714 101.243 50.5714H101.642C101.704 50.5714 101.738 50.5375 101.738 50.4746V49.5926C101.738 49.5636 101.758 49.5442 101.787 49.5442H102.62C103.038 49.5442 103.294 49.4377 103.502 49.2296C103.715 49.0167 103.847 48.7009 103.847 48.367C103.847 48.033 103.721 47.7076 103.507 47.4946V47.4922ZM103.07 48.811C102.959 48.9175 102.828 48.9707 102.614 48.9707H101.785C101.756 48.9707 101.737 48.9513 101.737 48.9223V47.7971C101.737 47.7681 101.756 47.7487 101.785 47.7487H102.614C102.827 47.7487 102.959 47.8068 103.07 47.9084C103.187 48.0149 103.245 48.1891 103.245 48.3645C103.245 48.54 103.187 48.7045 103.07 48.811ZM122.53 50.4589L121.202 47.249C121.183 47.1958 121.144 47.1764 121.091 47.1764H120.586C120.533 47.1764 120.494 47.2055 120.475 47.2539L119.161 50.4589C119.132 50.5266 119.166 50.5702 119.238 50.5702H119.665C119.719 50.5702 119.757 50.5412 119.777 50.4928L120.033 49.8576C120.048 49.8188 120.072 49.8043 120.111 49.8043H121.565C121.604 49.8043 121.628 49.8188 121.642 49.8576L121.904 50.4928C121.923 50.5412 121.962 50.5702 122.015 50.5702H122.457C122.529 50.5702 122.558 50.5266 122.529 50.4589H122.53ZM121.323 49.2369H120.348C120.304 49.2369 120.28 49.2127 120.299 49.1691L120.517 48.6017C120.614 48.3549 120.701 48.1262 120.798 47.8697C120.817 47.8165 120.846 47.8165 120.866 47.8697C120.962 48.1262 121.05 48.3549 121.146 48.6017L121.364 49.1691C121.383 49.2127 121.364 49.2369 121.321 49.2369H121.323Z" fill="white"/>
<path d="M122.593 46.9236C122.286 46.9236 122.038 47.1704 122.038 47.4789C122.038 47.5519 122.052 47.6243 122.08 47.6918C122.107 47.7593 122.148 47.8207 122.2 47.8723C122.252 47.9239 122.313 47.9648 122.38 47.9926C122.448 48.0204 122.52 48.0346 122.593 48.0342C122.902 48.0342 123.149 47.7862 123.149 47.4789C123.149 47.1716 122.902 46.9236 122.593 46.9236ZM122.593 47.9411C122.341 47.9411 122.137 47.7269 122.137 47.4789C122.137 47.2309 122.341 47.0228 122.593 47.0228C122.846 47.0228 123.056 47.226 123.056 47.4789C123.056 47.7318 122.846 47.9411 122.593 47.9411Z" fill="white"/>
<path d="M122.77 47.6495L122.703 47.5503C122.786 47.5225 122.83 47.4462 122.83 47.3688C122.83 47.2647 122.759 47.1764 122.632 47.1764H122.385V47.7644H122.489V47.5612H122.589L122.693 47.7148C122.736 47.7814 122.77 47.7814 122.852 47.7753V47.6822C122.809 47.6822 122.798 47.6882 122.77 47.6495ZM122.627 47.4632H122.489V47.2768H122.627C122.671 47.2768 122.72 47.2986 122.72 47.37C122.72 47.4366 122.677 47.4632 122.627 47.4632Z" fill="white"/>
<path d="M128.673 40.9926C128.673 41.6823 128.224 42.2642 127.416 42.2642C126.608 42.2642 126.159 41.6823 126.159 40.9926C126.159 40.303 126.611 39.721 127.416 39.721C128.221 39.721 128.673 40.2994 128.673 40.9926ZM126.423 40.9854C126.423 41.5637 126.782 42.0235 127.416 42.0235C128.05 42.0235 128.412 41.5637 128.412 40.989C128.412 40.4143 128.05 39.9509 127.416 39.9509C126.782 39.9509 126.423 40.4107 126.423 40.9926V40.9854ZM127.656 41.1463C128.154 41.0628 128.102 40.3211 127.533 40.3211H126.934V41.6278H127.175V41.1753H127.402L127.763 41.6278H128.028V41.5794L127.656 41.1439V41.1475V41.1463ZM127.533 40.5474C127.83 40.5474 127.826 40.9684 127.526 40.9684H127.174V40.5474H127.533Z" fill="#F27629"/>
</svg>
