<svg width="80" height="79" viewBox="0 0 80 79" fill="none" xmlns="http://www.w3.org/2000/svg">
<g clip-path="url(#clip0_2_53)">
<path d="M39.9514 54.5789V61.3688C40.5337 62.096 42.5219 64.3263 45.8197 65.0059C48.6809 65.5882 50.9607 64.6179 52.1245 64.1328C54.9381 62.9681 56.587 61.1257 57.2655 60.2051V31.4937C57.2655 21.9397 49.5063 14.1795 39.9514 14.1795C30.3984 14.1795 22.6372 21.9397 22.6372 31.4937V60.2527C23.9833 61.9838 25.7544 63.3372 27.7783 64.1814C28.943 64.6666 31.2219 65.5882 34.0831 65.0545C37.3808 64.4235 39.37 62.1933 39.9514 61.4174V54.5789Z" stroke="#F27629" stroke-width="3.03846" stroke-miterlimit="10"/>
<path d="M39.9514 55.3061C40.3125 55.3131 40.6713 55.248 41.0069 55.1146C41.3425 54.9813 41.6482 54.7823 41.906 54.5294C42.1638 54.2765 42.3686 53.9748 42.5084 53.6418C42.6482 53.3088 42.7202 52.9513 42.7202 52.5902C42.7202 52.2291 42.6482 51.8716 42.5084 51.5386C42.3686 51.2056 42.1638 50.9039 41.906 50.651C41.6482 50.3981 41.3425 50.1992 41.0069 50.0658C40.6713 49.9324 40.3125 49.8674 39.9514 49.8743C39.2402 49.8881 38.5627 50.1802 38.0646 50.6881C37.5665 51.1959 37.2875 51.8789 37.2875 52.5902C37.2875 53.3015 37.5665 53.9845 38.0646 54.4923C38.5627 55.0002 39.2402 55.2923 39.9514 55.3061ZM46.79 40.4166C47.151 40.4236 47.5099 40.3585 47.8455 40.2251C48.1811 40.0918 48.4867 39.8928 48.7446 39.64C49.0024 39.3871 49.2072 39.0853 49.347 38.7523C49.4868 38.4194 49.5588 38.0619 49.5588 37.7007C49.5588 37.3396 49.4868 36.9821 49.347 36.6491C49.2072 36.3161 49.0024 36.0144 48.7446 35.7615C48.4867 35.5086 48.1811 35.3097 47.8455 35.1763C47.5099 35.043 47.151 34.9779 46.79 34.9849C46.0788 34.9986 45.4013 35.2908 44.9032 35.7986C44.4051 36.3064 44.126 36.9894 44.126 37.7007C44.126 38.4121 44.4051 39.095 44.9032 39.6029C45.4013 40.1107 46.0788 40.4029 46.79 40.4166Z" fill="#F27629"/>
<path d="M28.7475 17.8662C27.4876 17.38 24.917 16.8959 22.4923 17.8662C20.3583 18.7382 19.146 20.3384 18.4664 21.2601C12.6467 29.3596 7.65147 38.0891 3.72274 47.2552C2.90393 49.0852 2.38022 51.0333 2.1711 53.0272C2.02525 54.433 1.88042 55.6454 2.26833 57.1008C3.19 60.9323 6.43913 62.9691 7.0691 63.357C10.5613 65.5396 14.1021 65.1031 15.1686 64.9086C18.4178 64.3759 21.8127 60.8837 22.6372 60.1565M51.2524 17.8662C52.5123 17.38 55.0829 16.8959 57.5076 17.8662C59.6416 18.7382 60.8539 20.3384 61.5335 21.2601C67.3532 29.3596 72.3484 38.0891 76.2772 47.2552C77.096 49.0852 77.6197 51.0333 77.8288 53.0272C77.9746 54.433 78.1195 55.6454 77.7316 57.1008C76.8099 60.9323 73.5608 62.9691 72.9308 63.357C69.4386 65.5396 65.8978 65.1031 64.8313 64.9086C61.5821 64.3759 58.1872 60.8837 57.3627 60.1565" stroke="#F27629" stroke-width="3.03846" stroke-miterlimit="10"/>
</g>
<defs>
<clipPath id="clip0_2_53">
<rect width="79" height="79" fill="white" transform="translate(0.5)"/>
</clipPath>
</defs>
</svg>
