<svg width="26" height="12" viewBox="0 0 26 12" fill="none" xmlns="http://www.w3.org/2000/svg">
<g clip-path="url(#clip0_2_635)">
<path fill-rule="evenodd" clip-rule="evenodd" d="M6.65658 10.8332H12.3232L14.9066 1.1665H6.65658C3.98991 1.1665 1.82324 3.33317 1.82324 5.99984C1.82324 8.6665 3.98991 10.8332 6.65658 10.8332Z" fill="white"/>
<path fill-rule="evenodd" clip-rule="evenodd" d="M19.3232 0.166504H6.65658C3.40658 0.166504 0.823242 2.74984 0.823242 5.99984C0.823242 9.24984 3.40658 11.8332 6.65658 11.8332H19.3232C22.5732 11.8332 25.1566 9.24984 25.1566 5.99984C25.1566 2.74984 22.4899 0.166504 19.3232 0.166504ZM1.82324 5.99984C1.82324 3.33317 3.98991 1.1665 6.65658 1.1665H14.9066L12.3232 10.8332H6.65658C3.98991 10.8332 1.82324 8.6665 1.82324 5.99984Z" fill="#0066FF"/>
<path d="M20.99 3.5C21.1567 3.66667 21.1567 4 20.99 4.16667L19.24 6L21.0733 7.83333C21.24 8 21.24 8.33333 21.0733 8.5C20.9067 8.66667 20.5733 8.66667 20.4067 8.5L18.5733 6.66667L16.74 8.5C16.5733 8.66667 16.24 8.66667 16.0733 8.5C15.9067 8.33333 15.9067 8 16.0733 7.83333L17.8233 6L15.99 4.16667C15.8233 4 15.8233 3.66667 15.99 3.5C16.1567 3.33333 16.49 3.33333 16.6567 3.5L18.49 5.33333L20.3233 3.5C20.49 3.33333 20.8233 3.33333 20.99 3.5Z" fill="white"/>
<path d="M11.0733 3.5835C11.24 3.75016 11.3233 4.0835 11.1567 4.25016L7.65666 8.3335C7.57332 8.41683 7.48999 8.50016 7.40666 8.50016C7.23999 8.5835 6.98999 8.5835 6.82332 8.41683L4.98999 6.5835C4.82332 6.41683 4.82332 6.0835 4.98999 5.91683C5.15666 5.75016 5.48999 5.75016 5.65666 5.91683L7.15666 7.3335L10.3233 3.5835C10.49 3.41683 10.8233 3.41683 11.0733 3.5835Z" fill="#0066FF"/>
</g>
<defs>
<clipPath id="clip0_2_635">
<rect width="25" height="12" fill="white" transform="translate(0.48999)"/>
</clipPath>
</defs>
</svg>
