<svg width="15" height="24" viewBox="0 0 15 24" fill="none" xmlns="http://www.w3.org/2000/svg">
<g clip-path="url(#clip0_2_718)">
<g clip-path="url(#clip1_2_718)">
<path d="M8.88327 8.74922C8.50923 8.39631 8.01444 8.19973 7.5002 8.19973C6.98596 8.19973 6.49117 8.39631 6.11714 8.74922L1.09294 13.7734C0.905185 13.9574 0.756022 14.177 0.654193 14.4193C0.552362 14.6616 0.499911 14.9218 0.499911 15.1847C0.499911 15.4476 0.552362 15.7078 0.654193 15.9501C0.756022 16.1925 0.905185 16.412 1.09294 16.596C1.27691 16.7838 1.49648 16.9329 1.73882 17.0347C1.98115 17.1366 2.24137 17.189 2.50423 17.189C2.76709 17.189 3.02731 17.1366 3.26964 17.0347C3.51198 16.9329 3.73156 16.7838 3.91552 16.596L7.52843 12.9831L11.0849 16.596C11.2688 16.7838 11.4884 16.9329 11.7308 17.0347C11.9731 17.1366 12.2333 17.189 12.4962 17.189C12.759 17.189 13.0192 17.1366 13.2616 17.0347C13.5039 16.9329 13.7235 16.7838 13.9075 16.596C14.0952 16.412 14.2444 16.1925 14.3462 15.9501C14.448 15.7078 14.5005 15.4476 14.5005 15.1847C14.5005 14.9218 14.448 14.6616 14.3462 14.4193C14.2444 14.177 14.0952 13.9574 13.9075 13.7734L8.88327 8.74922Z" fill="#F27629"/>
</g>
</g>
<defs>
<clipPath id="clip0_2_718">
<rect width="14" height="22.39" fill="white" transform="matrix(-1 0 0 -1 14.5 23.89)"/>
</clipPath>
<clipPath id="clip1_2_718">
<rect width="14" height="8.9871" fill="white" transform="matrix(-1 0 0 -1 14.5 17.1885)"/>
</clipPath>
</defs>
</svg>
