<svg width="36" height="48" viewBox="0 0 36 48" fill="none" xmlns="http://www.w3.org/2000/svg">
<path d="M33.1965 8.34C31.1565 7.659 27.9375 6.6195 24.597 4.38C21.2565 2.1405 19.797 0 17.997 0C16.2195 0 14.76 2.16 11.421 4.3995C8.082 6.639 4.86 7.659 2.82 8.3595C0.7605 9.0195 0 8.379 0 12.5385C0 22.158 4.239 30.2565 5.2995 32.2365C7.9185 37.6365 10.899 42.4155 12.759 42.6765C14.619 42.936 21.099 35.736 24.7575 27.7575C26.058 25.077 26.9175 22.218 27.2175 19.7175V19.638C27.258 19.3185 27.2775 18.9975 27.297 18.678V18.6375C27.297 18.4785 27.3165 18.318 27.3165 18.1575C27.3975 15.0585 26.4375 12.8385 24.1575 12.8385C19.4385 12.8385 16.998 20.3985 16.998 20.3985C16.998 20.3985 12.798 14.598 10.299 15.2985C5.079 16.9185 7.2795 22.518 10.8585 28.2765C13.539 32.5965 15.759 33.996 16.359 34.2165C16.338 34.236 16.3185 34.2765 16.278 34.296H16.2975C15.8985 34.8165 13.4985 37.6965 11.7795 35.6355C7.6395 30.2355 4.62 23.6775 3.84 17.3775C3.6 14.5185 3.4995 11.8185 4.08 11.7375C4.659 11.6595 6.3195 11.5995 10.9395 8.6595C17.3775 4.44 17.9985 4.599 17.9985 4.599C17.9985 4.599 18.618 4.44 25.0575 8.6595C29.6775 11.5785 31.3365 11.6595 31.917 11.739C32.496 11.8185 32.397 14.499 32.1375 17.439C31.8765 20.358 29.6775 32.3565 16.338 44.196C14.3385 45.696 14.559 45.8955 15.759 47.196C17.718 48.915 18.6585 47.676 21.237 45.396C23.118 43.356 35.997 29.856 35.997 12.5385C35.997 8.379 35.2365 9.021 33.1965 8.34ZM11.3385 19.476C13.119 19.4565 16.098 22.956 16.1985 24.1365C16.299 24.696 17.718 25.296 18.138 23.7765C19.758 17.637 23.3775 16.3365 23.3775 16.3365C23.3775 16.3365 24.8175 17.1765 22.137 24.4365C20.937 27.6765 18.8775 30.6765 17.619 32.4945C17.478 32.2545 8.9985 19.5165 11.3385 19.476Z" fill="#F27629"/>
</svg>
