<svg width="23" height="22" viewBox="0 0 23 22" fill="none" xmlns="http://www.w3.org/2000/svg">
<path d="M20.2515 6.51421V7.09471C20.2515 13.0613 15.7104 19.9391 7.40715 19.9391C4.95793 19.9394 2.56028 19.2354 0.5 17.911C0.858654 17.951 1.21929 17.9706 1.58016 17.9698C3.6123 17.9681 5.58468 17.2822 7.17936 16.0226C6.23691 16.0048 5.32361 15.6928 4.56731 15.1301C3.81101 14.5675 3.24957 13.7825 2.96159 12.885C3.2402 12.9377 3.52306 12.9647 3.80661 12.9658C4.20881 12.9648 4.60909 12.9104 4.99699 12.8041C3.97824 12.5979 3.0617 12.0469 2.40184 11.2438C1.74197 10.4407 1.37911 9.4347 1.37442 8.39531V8.35122C2.00786 8.70046 2.71609 8.89201 3.43921 8.90967C2.48415 8.271 1.80821 7.29252 1.54886 6.17324C1.28952 5.05396 1.46624 3.87791 2.04309 2.88428C3.17514 4.27832 4.58771 5.41871 6.18908 6.23142C7.79045 7.04414 9.54484 7.511 11.3383 7.60172C11.1148 6.63419 11.2162 5.61997 11.6268 4.71583C12.0374 3.81168 12.7344 3.06796 13.6101 2.59962C14.4857 2.13128 15.4912 1.96439 16.4712 2.12475C17.4512 2.28512 18.3511 2.7638 19.0317 3.48682C20.04 3.28759 21.0068 2.9173 21.8901 2.39197C21.5539 3.43792 20.8488 4.3259 19.9061 4.8903C20.8027 4.77685 21.6771 4.52915 22.5 4.15549C21.8976 5.06986 21.136 5.86875 20.2515 6.51421Z" fill="white"/>
</svg>
