<svg width="42" height="51" viewBox="0 0 42 51" fill="none" xmlns="http://www.w3.org/2000/svg">
<path d="M28.875 26.5125V30.45C28.875 31.4942 28.4602 32.4958 27.7218 33.2342C26.9833 33.9726 25.9818 34.3875 24.9375 34.3875H22.3125C21.2682 34.3875 20.2667 33.9726 19.5283 33.2342C18.7899 32.4958 18.375 31.4942 18.375 30.45V26.5125H14.4375V29.1375H11.8125V26.5125H9.18753C8.83943 26.5125 8.50559 26.6507 8.25945 26.8969C8.01331 27.143 7.87503 27.4769 7.87503 27.825V42.2625C7.87503 42.6105 8.01331 42.9444 8.25945 43.1905C8.50559 43.4367 8.83943 43.575 9.18753 43.575H11.8125V31.7625H14.4375V43.575H32.8125V31.7625H35.4375V43.575H38.0625C38.4106 43.575 38.7445 43.4367 38.9906 43.1905C39.2367 42.9444 39.375 42.6105 39.375 42.2625V27.825C39.375 27.4769 39.2367 27.143 38.9906 26.8969C38.7445 26.6507 38.4106 26.5125 38.0625 26.5125H35.4375V29.1375H32.8125V26.5125H28.875ZM3.20515 22.575C1.06315 22.575 -0.213912 21.966 0.019713 20.2492C0.085338 19.7806 0.269088 19.362 0.622151 18.7359C0.644463 18.6965 1.26396 17.6386 1.45034 17.2935C2.19978 15.9127 2.58565 14.7131 2.58565 13.3875C2.58565 12.0618 2.20109 10.8622 1.45165 9.48145C1.26528 9.13626 0.645776 8.07708 0.623463 8.0377C0.269088 7.41295 0.085338 6.99426 0.0210255 6.5257C-0.213912 4.80895 1.06315 4.19995 3.20515 4.19995C8.46959 4.19995 12.3927 8.22145 12.3927 13.3875C12.3927 18.5535 8.46959 22.575 3.20515 22.575ZM3.20515 19.95C7.00484 19.95 9.76765 17.1189 9.76765 13.3875C9.76765 9.65601 7.00484 6.82495 3.20515 6.82495C3.11503 6.82495 3.0319 6.82583 2.95578 6.82758C3.10671 7.08745 3.58184 7.90383 3.75903 8.23064C4.69746 9.96183 5.20934 11.5578 5.20934 13.3875C5.20934 15.2171 4.69746 16.8131 3.75903 18.5456C3.58184 18.8724 3.1054 19.6875 2.95446 19.9473L3.20515 19.95ZM9.18753 23.8875H38.0625C39.1068 23.8875 40.1083 24.3023 40.8468 25.0407C41.5852 25.7791 42 26.7807 42 27.825V42.2625C42 43.3067 41.5852 44.3083 40.8468 45.0467C40.1083 45.7851 39.1068 46.2 38.0625 46.2H9.18753C8.14324 46.2 7.14172 45.7851 6.40329 45.0467C5.66487 44.3083 5.25003 43.3067 5.25003 42.2625V27.825C5.25003 26.7807 5.66487 25.7791 6.40329 25.0407C7.14172 24.3023 8.14324 23.8875 9.18753 23.8875ZM18.375 21.2625H15.75V18.6375C15.75 17.5932 16.1649 16.5916 16.9033 15.8532C17.6417 15.1148 18.6432 14.7 19.6875 14.7H27.5625C28.6068 14.7 29.6083 15.1148 30.3468 15.8532C31.0852 16.5916 31.5 17.5932 31.5 18.6375V21.2625H28.875V18.6375C28.875 18.2894 28.7367 17.9555 28.4906 17.7094C28.2445 17.4632 27.9106 17.325 27.5625 17.325H19.6875C19.3394 17.325 19.0056 17.4632 18.7594 17.7094C18.5133 17.9555 18.375 18.2894 18.375 18.6375V21.2625ZM21 26.5125V30.45C21 30.798 21.1383 31.1319 21.3844 31.378C21.6306 31.6242 21.9644 31.7625 22.3125 31.7625H24.9375C25.2856 31.7625 25.6195 31.6242 25.8656 31.378C26.1117 31.1319 26.25 30.798 26.25 30.45V26.5125H21Z" fill="#00BD70"/>
</svg>
