<svg width="42" height="51" viewBox="0 0 42 51" fill="none" xmlns="http://www.w3.org/2000/svg">
<path d="M6.4155 39.3735C5.6442 37.4817 5.24835 35.4578 5.25 33.4148C5.25 24.7169 12.3021 17.6648 21 17.6648C29.6979 17.6648 36.75 24.7169 36.75 33.4148C36.75 33.7858 36.7373 34.1533 36.7119 34.5173C39.2372 34.6774 40.4565 34.7273 42 34.7273V37.3523C40.1468 37.3523 38.7647 37.284 35.3036 37.0583C28.6913 36.6265 25.4625 36.6265 21.2152 37.3339C18.7123 37.7513 17.1071 38.2868 13.7274 39.6702C8.38556 41.8542 5.45081 42.6023 0 42.6023V39.9773C2.54625 39.9773 4.47825 39.8067 6.4155 39.3735ZM34.0922 34.3519C34.1132 34.0422 34.1241 33.7298 34.125 33.4148C34.125 26.1659 28.2489 20.2898 21 20.2898C13.7511 20.2898 7.875 26.1659 7.875 33.4148C7.875 35.2785 8.2635 37.053 8.96437 38.6595C10.2365 38.2306 11.4934 37.7573 12.7326 37.2407C16.2829 35.7878 18.0377 35.2024 20.7848 34.7457C24.9716 34.0474 28.1912 33.9975 34.0922 34.3519ZM21 4.53979C21.3481 4.53979 21.6819 4.67808 21.9281 4.92422C22.1742 5.17036 22.3125 5.5042 22.3125 5.85229V13.7273C22.3125 14.0754 22.1742 14.4092 21.9281 14.6554C21.6819 14.9015 21.3481 15.0398 21 15.0398C20.6519 15.0398 20.3181 14.9015 20.0719 14.6554C19.8258 14.4092 19.6875 14.0754 19.6875 13.7273V5.85229C19.6875 5.5042 19.8258 5.17036 20.0719 4.92422C20.3181 4.67808 20.6519 4.53979 21 4.53979ZM40.4644 18.8014C40.6384 19.1029 40.6856 19.4611 40.5955 19.7973C40.5054 20.1336 40.2854 20.4202 39.984 20.5943L36.5741 22.563C36.2728 22.7343 35.916 22.7795 35.5815 22.6887C35.247 22.5979 34.9621 22.3785 34.7888 22.0783C34.6155 21.7782 34.5679 21.4217 34.6565 21.0866C34.7451 20.7515 34.9626 20.4651 35.2616 20.2898L38.6715 18.321C38.973 18.147 39.3312 18.0998 39.6674 18.1899C40.0037 18.28 40.2903 18.5 40.4644 18.8014ZM1.96875 18.8014C2.1428 18.5 2.42947 18.28 2.7657 18.1899C3.10193 18.0998 3.46017 18.147 3.76162 18.321L7.1715 20.2898C7.32197 20.3753 7.45404 20.4898 7.56009 20.6266C7.66614 20.7634 7.74409 20.9198 7.78944 21.0869C7.83479 21.2539 7.84665 21.4283 7.82434 21.5999C7.80203 21.7716 7.74599 21.9371 7.65944 22.087C7.57289 22.2369 7.45755 22.3682 7.32005 22.4734C7.18255 22.5785 7.02561 22.6554 6.85827 22.6997C6.69092 22.7439 6.51648 22.7546 6.34499 22.7312C6.17349 22.7077 6.00832 22.6506 5.859 22.563L2.44913 20.5943C2.14768 20.4202 1.92772 20.1336 1.83763 19.7973C1.74755 19.4611 1.79471 19.1029 1.96875 18.8014ZM39.4682 9.40523C39.7142 9.65136 39.8525 9.98514 39.8525 10.3332C39.8525 10.6812 39.7142 11.015 39.4682 11.2611L32.9713 17.758C32.7238 17.9971 32.3922 18.1294 32.0481 18.1264C31.704 18.1234 31.3748 17.9853 31.1314 17.742C30.8881 17.4986 30.75 17.1695 30.7471 16.8253C30.7441 16.4812 30.8764 16.1496 31.1154 15.9021L37.6123 9.40523C37.8584 9.15918 38.1922 9.02095 38.5403 9.02095C38.8883 9.02095 39.2221 9.15918 39.4682 9.40523ZM2.38612 9.40523C2.63226 9.15918 2.96603 9.02095 3.31406 9.02095C3.66209 9.02095 3.99587 9.15918 4.242 9.40523L10.7389 15.9021C10.978 16.1496 11.1103 16.4812 11.1073 16.8253C11.1043 17.1695 10.9662 17.4986 10.7229 17.742C10.4795 17.9853 10.1503 18.1234 9.80621 18.1264C9.46208 18.1294 9.13054 17.9971 8.883 17.758L2.38612 11.2611C2.14007 11.015 2.00184 10.6812 2.00184 10.3332C2.00184 9.98514 2.14007 9.65136 2.38612 9.40523ZM28.6991 10.446C29.0006 10.6201 29.2205 10.9068 29.3106 11.243C29.4007 11.5792 29.3535 11.9375 29.1795 12.2389L27.867 14.5122C27.7814 14.6626 27.667 14.7947 27.5302 14.9008C27.3934 15.0068 27.237 15.0848 27.0699 15.1301C26.9029 15.1755 26.7285 15.1873 26.5568 15.165C26.3852 15.1427 26.2197 15.0867 26.0698 15.0001C25.9199 14.9136 25.7886 14.7982 25.6834 14.6607C25.5783 14.5232 25.5014 14.3663 25.4571 14.1989C25.4129 14.0316 25.4022 13.8572 25.4256 13.6857C25.4491 13.5142 25.5062 13.349 25.5938 13.1997L26.9062 10.9264C27.0803 10.625 27.367 10.405 27.7032 10.3149C28.0394 10.2248 28.3977 10.272 28.6991 10.446ZM12.9491 10.446C13.2506 10.272 13.6088 10.2248 13.945 10.3149C14.2813 10.405 14.5679 10.625 14.742 10.9264L16.0545 13.1997C16.2258 13.501 16.271 13.8578 16.1802 14.1923C16.0894 14.5267 15.8699 14.8117 15.5698 14.985C15.2696 15.1583 14.9131 15.2059 14.578 15.1173C14.243 15.0287 13.9565 14.8112 13.7812 14.5122L12.4688 12.2389C12.2947 11.9375 12.2475 11.5792 12.3376 11.243C12.4277 10.9068 12.6477 10.6201 12.9491 10.446ZM39.375 24.2273C39.7231 24.2273 40.0569 24.3656 40.3031 24.6117C40.5492 24.8579 40.6875 25.1917 40.6875 25.5398C40.6875 25.8879 40.5492 26.2217 40.3031 26.4679C40.0569 26.714 39.7231 26.8523 39.375 26.8523C39.0269 26.8523 38.6931 26.714 38.4469 26.4679C38.2008 26.2217 38.0625 25.8879 38.0625 25.5398C38.0625 25.1917 38.2008 24.8579 38.4469 24.6117C38.6931 24.3656 39.0269 24.2273 39.375 24.2273ZM2.625 25.5398C2.9731 25.5398 3.30694 25.6781 3.55308 25.9242C3.79922 26.1704 3.9375 26.5042 3.9375 26.8523C3.9375 27.2004 3.79922 27.5342 3.55308 27.7804C3.30694 28.0265 2.9731 28.1648 2.625 28.1648C2.2769 28.1648 1.94306 28.0265 1.69692 27.7804C1.45078 27.5342 1.3125 27.2004 1.3125 26.8523C1.3125 26.5042 1.45078 26.1704 1.69692 25.9242C1.94306 25.6781 2.2769 25.5398 2.625 25.5398Z" fill="#00BD70"/>
</svg>
