<svg width="42" height="51" viewBox="0 0 42 51" fill="none" xmlns="http://www.w3.org/2000/svg">
<path d="M30.2216 20.7299H30.1875V20.6984L23.625 14.6412L10.5 26.7555V44.3549H13.125V40.4174C13.125 39.025 13.6781 37.6896 14.6627 36.705C15.6473 35.7205 16.9826 35.1674 18.375 35.1674C19.7674 35.1674 21.1028 35.7205 22.0873 36.705C23.0719 37.6896 23.625 39.025 23.625 40.4174V44.3549H36.75V26.7569L30.2216 20.7299ZM39.375 25.6071L41.5774 27.6415C41.8216 27.8803 41.9631 28.2049 41.9719 28.5463C41.9806 28.8878 41.8559 29.2192 41.6242 29.4702C41.3926 29.7212 41.0722 29.8719 40.7311 29.8905C40.39 29.909 40.0552 29.7939 39.7977 29.5695L39.375 29.1797V46.9799H21V40.4174C21 39.7212 20.7235 39.0535 20.2312 38.5612C19.7389 38.0689 19.0712 37.7924 18.375 37.7924C17.6788 37.7924 17.0112 38.0689 16.5189 38.5612C16.0266 39.0535 15.75 39.7212 15.75 40.4174V46.9799H7.87503V29.1797L7.4524 29.5695C7.19591 29.8017 6.85815 29.9231 6.51257 29.9075C6.16699 29.8919 5.84155 29.7406 5.607 29.4863C5.37245 29.232 5.24776 28.8954 5.26006 28.5497C5.27235 28.204 5.42063 27.8771 5.67265 27.6402L23.625 11.0699L30.1875 17.127V16.1361C30.1875 15.614 30.3949 15.1132 30.7642 14.744C31.1334 14.3748 31.6341 14.1674 32.1563 14.1674H37.4063C37.9284 14.1674 38.4292 14.3748 38.7984 14.744C39.1676 15.1132 39.375 15.614 39.375 16.1361V25.6071ZM36.75 23.1842V16.7924H32.8125V19.5486L36.75 23.1842ZM27.5625 32.5424H30.1875V28.6049H27.5625V32.5424ZM32.8125 32.5424H34.125V35.1674H23.625V32.5424H24.9375V28.6049C24.9375 27.9087 25.2141 27.241 25.7064 26.7487C26.1987 26.2564 26.8663 25.9799 27.5625 25.9799H30.1875C30.8837 25.9799 31.5514 26.2564 32.0437 26.7487C32.536 27.241 32.8125 27.9087 32.8125 28.6049V32.5424ZM3.20515 23.3549C1.06315 23.3549 -0.213912 22.7459 0.019713 21.0291C0.085338 20.5605 0.269088 20.1419 0.622151 19.5158C0.644463 19.4764 1.26396 18.4185 1.45034 18.0734C2.19978 16.6926 2.58565 15.493 2.58565 14.1674C2.58565 12.8417 2.20109 11.6421 1.45165 10.2614C1.26528 9.91617 0.645776 8.85698 0.623463 8.81761C0.269088 8.19286 0.085338 7.77417 0.0210255 7.30561C-0.213912 5.58886 1.06315 4.97986 3.20515 4.97986C8.46959 4.97986 12.3927 9.00136 12.3927 14.1674C12.3927 19.3334 8.46959 23.3549 3.20515 23.3549ZM3.20515 20.7299C7.00484 20.7299 9.76765 17.8988 9.76765 14.1674C9.76765 10.4359 7.00484 7.60486 3.20515 7.60486C3.11503 7.60486 3.0319 7.60573 2.95578 7.60748C3.10671 7.86736 3.58184 8.68373 3.75903 9.01055C4.69746 10.7417 5.20934 12.3377 5.20934 14.1674C5.20934 15.997 4.69746 17.593 3.75903 19.3255C3.58184 19.6523 3.1054 20.4674 2.95446 20.7272L3.20515 20.7299Z" fill="#00BD70"/>
</svg>
