<svg width="43" height="51" viewBox="0 0 43 51" fill="none" xmlns="http://www.w3.org/2000/svg">
<path d="M21.6602 10.1322C21.2166 9.96408 20.7269 9.96408 20.2834 10.1322L11.9858 13.2743L13.8771 15.3743L20.9724 12.6889L34.6854 17.8812H23.3454C23.0565 17.3808 22.6105 16.9897 22.0767 16.7686C21.5428 16.5475 20.9509 16.5087 20.3928 16.6582C19.8346 16.8078 19.3414 17.1373 18.9897 17.5958C18.6379 18.0542 18.4472 18.6158 18.4472 19.1937C18.4472 19.7715 18.6379 20.3332 18.9897 20.7916C19.3414 21.25 19.8346 21.5796 20.3928 21.7291C20.9509 21.8787 21.5428 21.8399 22.0767 21.6188C22.6105 21.3977 23.0565 21.0066 23.3454 20.5062H34.9178L21.7678 25.663L7.94719 20.6506V20.6716L3.84563 19.1727L11.2429 16.3718L9.35288 14.2718L1.2705 17.3299C-0.435747 17.977 -0.422622 20.4169 1.29019 21.0443L7.94457 23.479V38.3785L14.6029 37.6396C14.8344 37.6137 15.0686 37.65 15.2814 37.7446L19.4709 39.607C19.9744 39.8308 20.5193 39.9464 21.0702 39.9464C21.6212 39.9464 22.166 39.8308 22.6695 39.607L26.8603 37.7432C27.0732 37.6486 27.3074 37.6124 27.5389 37.6382L34.1959 38.3785V23.6181L39.375 21.5877V28.3812H42V19.1937C42.0038 18.7931 41.8836 18.4011 41.6559 18.0714C41.4282 17.7417 41.1042 17.4906 40.7282 17.3522L21.6602 10.1322ZM10.5722 35.4464V24.4397L21.0171 28.2631C21.4633 28.4258 21.9516 28.4206 22.3952 28.2473L23.0423 27.9927L31.5722 24.6799V35.4464L27.8289 35.0303C27.1349 34.953 26.4328 35.0618 25.7946 35.3453L21.6051 37.2091C21.4373 37.2836 21.2558 37.3221 21.0722 37.3221C20.8886 37.3221 20.7071 37.2836 20.5393 37.2091L16.3485 35.3453C15.7103 35.0618 15.0082 34.953 14.3141 35.0303L10.5722 35.4464Z" fill="#00BD70"/>
<path d="M42.0721 29.6936V32.3186H39.4471V29.6936H42.0721Z" fill="#00BD70"/>
</svg>
