<svg width="42" height="51" viewBox="0 0 42 51" fill="none" xmlns="http://www.w3.org/2000/svg">
<path d="M2.93108 37.996C3.29755 39.279 3.98613 40.4469 4.93133 41.3888C5.92813 42.3886 7.17656 43.1006 8.54465 43.4494C8.70166 40.8942 9.78908 38.4849 11.6015 36.6769C13.3354 34.9391 15.6246 33.8655 18.0695 33.6437C17.7008 32.3616 17.0126 31.1941 16.0692 30.2509C15.0731 29.2514 13.8257 28.5395 12.4585 28.1903C12.3015 30.7455 11.2141 33.1547 9.40171 34.9628C7.66712 36.7011 5.37685 37.7747 2.93108 37.996ZM2.63708 35.3867C4.49189 35.2328 6.23164 34.4248 7.54583 33.1069C8.91902 31.7377 9.73675 29.9087 9.8414 27.9724C7.98677 28.1259 6.24703 28.9335 4.93265 30.2509C3.55916 31.6204 2.74141 33.4499 2.63708 35.3867ZM11.1618 43.6673C13.0159 43.5134 14.7552 42.7059 16.0692 41.3888C17.4422 40.0191 18.2595 38.1895 18.3635 36.253C16.5098 36.4071 14.771 37.2146 13.4573 38.5315C12.0839 39.9009 11.2661 41.7305 11.1618 43.6673ZM23.3628 38.4383C23.5386 37.572 23.6253 36.69 23.6253 35.808C28.2978 35.728 32.1237 35.2135 34.9036 34.3971C36.1203 34.0388 37.0626 33.6398 37.6664 33.2565C37.844 33.1428 37.9761 33.0435 38.0628 32.9586C38.0488 29.2792 37.7215 25.2783 37.081 20.9558C33.4323 23.0046 28.5065 24.0073 22.3128 24.0073C19.5364 24.0073 17.0155 23.8043 14.7501 23.3983C13.8806 23.1016 12.9823 22.8971 12.07 22.788C10.39 22.3164 8.88152 21.7056 7.54452 20.9558C7.43861 21.67 7.34017 22.3854 7.24921 23.1017C6.28937 23.3465 5.36033 23.6992 4.47983 24.153C4.68108 22.3715 4.93833 20.5349 5.25158 18.6431C5.28702 16.5865 6.27665 14.7056 7.87527 13.506C7.87535 12.5884 8.06788 11.6809 8.44044 10.8423C8.81299 10.0037 9.35728 9.25251 10.0382 8.6373C10.7191 8.02209 11.5214 7.55652 12.3934 7.27065C13.2654 6.98477 14.1876 6.88496 15.1006 6.97764C15.8391 6.14138 16.7471 5.47188 17.7643 5.01363C18.7815 4.55538 19.8846 4.31887 21.0003 4.31983C22.1155 4.31973 23.218 4.5565 24.2348 5.01446C25.2517 5.47242 26.1596 6.14113 26.8986 6.97633C28.067 7.09191 29.183 7.51882 30.1301 8.21254C31.0773 8.90625 31.8211 9.84137 32.2838 10.9204C34.2078 11.1129 35.9937 12.0065 37.3012 13.431C38.6087 14.8554 39.3465 16.7111 39.374 18.6445C40.053 22.7368 40.4686 26.5724 40.6208 30.1511C41.5133 30.8533 42.0003 31.6513 42.0003 32.5386C42.0003 36.1585 33.8785 38.3044 23.3628 38.4383ZM36.7109 18.1076C36.5525 16.8374 35.9355 15.6689 34.9759 14.8217C34.0163 13.9745 32.7803 13.5071 31.5003 13.5073L31.3677 13.5086L30.3243 13.5349L30.0644 12.5243C29.8463 11.6785 29.3533 10.9293 28.6628 10.3945C27.9724 9.85963 27.1237 9.56953 26.2503 9.56983H25.594L25.2003 9.04483C24.7112 8.3928 24.0771 7.86358 23.3481 7.49908C22.6192 7.13459 21.8153 6.94483 21.0003 6.94483C20.1616 6.94477 19.335 7.14565 18.5899 7.53066C17.8448 7.91566 17.2028 8.47358 16.7176 9.1577L16.2057 9.87695L15.346 9.67483C14.7256 9.52768 14.0788 9.5334 13.4611 9.69149C12.8434 9.84957 12.2733 10.1553 11.7999 10.5824C11.3265 11.0095 10.9638 11.5451 10.7432 12.1433C10.5225 12.7415 10.4504 13.3844 10.5331 14.0166L10.646 14.892L9.87683 15.3278C9.36438 15.6171 8.92329 16.0175 8.586 16.4997C8.2487 16.9819 8.02378 17.5336 7.92777 18.1142C11.1696 20.2759 15.9603 21.3823 22.3128 21.3823C28.6731 21.3823 33.469 20.2733 36.7109 18.1076ZM17.9251 43.2446C16.95 44.2197 15.7925 44.9931 14.5185 45.5208C13.2446 46.0485 11.8792 46.3201 10.5003 46.3201C9.12136 46.3201 7.75594 46.0485 6.48199 45.5208C5.20804 44.9931 4.0505 44.2197 3.07546 43.2446C2.10042 42.2696 1.32697 41.1121 0.799286 39.8381C0.271598 38.5642 -1.02737e-08 37.1987 0 35.8198C1.02737e-08 34.4409 0.271598 33.0755 0.799286 31.8015C1.32697 30.5276 2.10042 29.3701 3.07546 28.395C5.04464 26.4258 7.71543 25.3196 10.5003 25.3196C13.2851 25.3196 15.9559 26.4258 17.9251 28.395C19.8943 30.3642 21.0005 33.035 21.0005 35.8198C21.0005 38.6047 19.8943 41.2755 17.9251 43.2446ZM16.9958 16.8765C16.9413 17.0401 16.855 17.1913 16.7421 17.3215C16.6291 17.4518 16.4915 17.5585 16.3373 17.6356C16.0258 17.7913 15.6652 17.8168 15.3349 17.7067C15.1713 17.6521 15.0201 17.5659 14.8898 17.4529C14.7596 17.3399 14.6529 17.2024 14.5758 17.0481C14.4201 16.7366 14.3945 16.376 14.5047 16.0457C15.6216 12.6949 18.5223 11.5346 22.6304 12.5623C22.8001 12.6017 22.9604 12.6745 23.1017 12.7764C23.243 12.8783 23.3626 13.0074 23.4536 13.156C23.5445 13.3047 23.6049 13.4699 23.6313 13.6422C23.6577 13.8144 23.6495 13.9902 23.6072 14.1592C23.565 14.3283 23.4895 14.4872 23.3851 14.6268C23.2808 14.7664 23.1497 14.8837 22.9995 14.9721C22.8494 15.0605 22.6831 15.1181 22.5104 15.1415C22.3377 15.1649 22.1621 15.1537 21.9938 15.1086C19.1037 14.3867 17.6285 14.976 16.9958 16.8752V16.8765Z" fill="#00BD70"/>
</svg>
