<svg width="42" height="51" viewBox="0 0 42 51" fill="none" xmlns="http://www.w3.org/2000/svg">
<path d="M2.3625 24.9724C1.52707 23.8585 1.16835 22.4583 1.36527 21.0799C1.56218 19.7015 2.29859 18.4578 3.4125 17.6224L9.45 13.0943C10.1316 12.5831 10.9605 12.3068 11.8125 12.3068C12.6645 12.3068 13.4934 12.5831 14.175 13.0943L20.2125 17.6224C20.7641 18.0361 21.2287 18.5543 21.58 19.1475C21.9313 19.7408 22.1622 20.3974 22.2597 21.0799C22.3572 21.7624 22.3194 22.4575 22.1482 23.1253C21.9771 23.7932 21.6762 24.4208 21.2625 24.9724C20.8488 25.5239 20.3306 25.9886 19.7373 26.3399C19.1441 26.6911 18.4875 26.9221 17.805 27.0196C17.1225 27.1171 16.4274 27.0792 15.7596 26.9081C15.0917 26.737 14.4641 26.4361 13.9125 26.0224C13.0725 25.3924 12.3677 25.1036 11.8125 25.1036C11.2573 25.1036 10.5525 25.3924 9.7125 26.0224C8.59859 26.8578 7.19843 27.2165 5.82004 27.0196C4.44165 26.8227 3.19793 26.0863 2.3625 24.9724ZM11.8125 22.4786C13.0069 22.4786 14.2275 22.9774 15.4875 23.9224C15.7633 24.1292 16.0771 24.2797 16.411 24.3653C16.745 24.4508 17.0925 24.4698 17.4337 24.421C17.775 24.3723 18.1033 24.2568 18.3999 24.0811C18.6965 23.9055 18.9557 23.6732 19.1625 23.3974C19.3693 23.1216 19.5198 22.8078 19.6054 22.4739C19.6909 22.1399 19.7099 21.7924 19.6611 21.4512C19.6124 21.1099 19.4969 20.7816 19.3212 20.485C19.1456 20.1883 18.9133 19.9292 18.6375 19.7224L12.6 15.1943C12.3728 15.0239 12.0965 14.9318 11.8125 14.9318C11.5285 14.9318 11.2522 15.0239 11.025 15.1943L4.9875 19.7224C4.43055 20.1401 4.06234 20.762 3.96388 21.4512C3.86543 22.1404 4.04478 22.8404 4.4625 23.3974C4.88022 23.9543 5.50207 24.3225 6.19127 24.421C6.88047 24.5195 7.58055 24.3401 8.1375 23.9224C9.3975 22.9774 10.6181 22.4786 11.8125 22.4786ZM1.96875 15.2599C0.882 15.2599 0 14.0852 0 12.6349C0 11.1846 0.882 10.0099 1.96875 10.0099C3.0555 10.0099 3.9375 11.1846 3.9375 12.6349C3.9375 14.0852 3.0555 15.2599 1.96875 15.2599ZM7.875 11.3224C6.42469 11.3224 5.25 9.85239 5.25 8.04114C5.25 6.22989 6.42469 4.75989 7.875 4.75989C9.32531 4.75989 10.5 6.22989 10.5 8.04114C10.5 9.85239 9.32531 11.3224 7.875 11.3224ZM15.75 11.3224C14.2997 11.3224 13.125 9.85239 13.125 8.04114C13.125 6.22989 14.2997 4.75989 15.75 4.75989C17.2003 4.75989 18.375 6.22989 18.375 8.04114C18.375 9.85239 17.2003 11.3224 15.75 11.3224ZM21.6562 15.2599C20.5695 15.2599 19.6875 14.0852 19.6875 12.6349C19.6875 11.1846 20.5695 10.0099 21.6562 10.0099C22.743 10.0099 23.625 11.1846 23.625 12.6349C23.625 14.0852 22.743 15.2599 21.6562 15.2599ZM20.7375 44.6599C20.3238 44.1083 20.0229 43.4807 19.8518 42.8128C19.6806 42.145 19.6428 41.4499 19.7403 40.7674C19.9372 39.389 20.6736 38.1453 21.7875 37.3099L27.825 32.7818C28.5066 32.2706 29.3355 31.9943 30.1875 31.9943C31.0395 31.9943 31.8684 32.2706 32.55 32.7818L38.5875 37.3099C39.1391 37.7236 39.6037 38.2418 39.955 38.835C40.3063 39.4283 40.5372 40.0849 40.6347 40.7674C40.7322 41.4499 40.6944 42.145 40.5232 42.8128C40.3521 43.4807 40.0512 44.1083 39.6375 44.6599C39.2238 45.2114 38.7056 45.6761 38.1123 46.0274C37.5191 46.3786 36.8625 46.6096 36.18 46.7071C35.4975 46.8046 34.8024 46.7667 34.1346 46.5956C33.4667 46.4245 32.8391 46.1236 32.2875 45.7099C31.4475 45.0799 30.7427 44.7911 30.1875 44.7911C29.6323 44.7911 28.9275 45.0799 28.0875 45.7099C27.5359 46.1236 26.9083 46.4245 26.2404 46.5956C25.5726 46.7667 24.8775 46.8046 24.195 46.7071C23.5125 46.6096 22.8559 46.3786 22.2627 46.0274C21.6694 45.6761 21.1512 45.2114 20.7375 44.6599ZM26.5125 43.6099C27.7725 42.6649 28.9931 42.1661 30.1875 42.1661C31.3819 42.1661 32.6025 42.6649 33.8625 43.6099C34.1383 43.8167 34.4521 43.9672 34.786 44.0528C35.12 44.1383 35.4675 44.1573 35.8087 44.1085C36.15 44.0598 36.4783 43.9443 36.7749 43.7686C37.0715 43.593 37.3307 43.3607 37.5375 43.0849C37.7443 42.8091 37.8948 42.4953 37.9804 42.1614C38.0659 41.8274 38.0849 41.4799 38.0361 41.1387C37.9874 40.7974 37.8719 40.4691 37.6962 40.1725C37.5206 39.8758 37.2883 39.6167 37.0125 39.4099L30.975 34.8818C30.7478 34.7114 30.4715 34.6193 30.1875 34.6193C29.9035 34.6193 29.6272 34.7114 29.4 34.8818L23.3625 39.4099C23.0867 39.6167 22.8544 39.8758 22.6788 40.1725C22.5031 40.4691 22.3876 40.7974 22.3389 41.1387C22.2901 41.4799 22.3091 41.8274 22.3946 42.1614C22.4802 42.4953 22.6307 42.8091 22.8375 43.0849C23.0443 43.3607 23.3035 43.593 23.6001 43.7686C23.8967 43.9443 24.225 44.0598 24.5663 44.1085C24.9075 44.1573 25.255 44.1383 25.589 44.0528C25.9229 43.9672 26.2367 43.8167 26.5125 43.6099ZM20.3438 34.9474C19.257 34.9474 18.375 33.7727 18.375 32.3224C18.375 30.8721 19.257 29.6974 20.3438 29.6974C21.4305 29.6974 22.3125 30.8721 22.3125 32.3224C22.3125 33.7727 21.4305 34.9474 20.3438 34.9474ZM26.25 31.0099C24.7997 31.0099 23.625 29.5399 23.625 27.7286C23.625 25.9174 24.7997 24.4474 26.25 24.4474C27.7003 24.4474 28.875 25.9174 28.875 27.7286C28.875 29.5399 27.7003 31.0099 26.25 31.0099ZM34.125 31.0099C32.6747 31.0099 31.5 29.5399 31.5 27.7286C31.5 25.9174 32.6747 24.4474 34.125 24.4474C35.5753 24.4474 36.75 25.9174 36.75 27.7286C36.75 29.5399 35.5753 31.0099 34.125 31.0099ZM40.0312 34.9474C38.9445 34.9474 38.0625 33.7727 38.0625 32.3224C38.0625 30.8721 38.9445 29.6974 40.0312 29.6974C41.118 29.6974 42 30.8721 42 32.3224C42 33.7727 41.118 34.9474 40.0312 34.9474Z" fill="#00BD70"/>
</svg>
