<svg width="27" height="70" viewBox="0 0 27 70" fill="none" xmlns="http://www.w3.org/2000/svg">
<path d="M23.6526 26.9598C23.0957 26.3726 22.4287 25.9009 21.6895 25.5715C20.9504 25.2422 20.1535 25.0617 19.3446 25.0403C18.5357 25.019 17.7304 25.1572 16.9749 25.4471C16.2194 25.737 15.5284 26.173 14.9414 26.73L14.7116 26.9598C14.2906 27.402 13.9337 27.9011 13.6514 28.4426C13.3692 27.9011 13.0123 27.402 12.5913 26.9598C12.0342 26.3704 11.3663 25.8968 10.6257 25.5661C9.88522 25.2355 9.0867 25.0543 8.27599 25.0329C7.46528 25.0115 6.65833 25.1505 5.90144 25.4417C5.14454 25.7329 4.45259 26.1707 3.86528 26.73L3.63545 26.9598C2.44594 28.2122 1.78271 29.8735 1.78271 31.6008C1.78271 33.3281 2.44594 34.9894 3.63545 36.2418L10.9083 43.789C11.5959 44.5141 12.5426 44.9375 13.5415 44.9666C14.5403 44.9958 15.5101 44.6284 16.2388 43.9447L16.3574 43.8187L23.6526 36.2418C24.8804 35.0093 25.5697 33.3405 25.5697 31.6008C25.5697 29.8611 24.8804 28.1923 23.6526 26.9598Z" fill="#4D4751"/>
</svg>
