<svg width="26" height="70" viewBox="0 0 26 70" fill="none" xmlns="http://www.w3.org/2000/svg">
<g clip-path="url(#clip0_38_3062)">
<path d="M23.9755 26.1829C23.3442 25.5172 22.584 24.9871 21.7412 24.6247C20.8983 24.2624 19.9905 24.0756 19.0731 24.0756C18.1556 24.0756 17.2478 24.2624 16.405 24.6247C15.5621 24.9871 14.8019 25.5172 14.1706 26.1829C13.7087 26.6677 13.3174 27.2151 13.008 27.8089C12.6982 27.2154 12.3069 26.6681 11.8454 26.1829C11.2142 25.5172 10.4539 24.9871 9.61107 24.6247C8.76822 24.2624 7.86041 24.0756 6.94298 24.0756C6.02556 24.0756 5.11775 24.2624 4.27489 24.6247C3.43204 24.9871 2.67181 25.5172 2.04054 26.1829C0.736093 27.5563 0.00878906 29.3782 0.00878906 31.2724C0.00878906 33.1665 0.736093 34.9884 2.04054 36.3618L10.0162 44.6382C10.4025 45.0426 10.8669 45.3644 11.3811 45.5843C11.8953 45.8041 12.4488 45.9175 13.008 45.9175C13.5673 45.9175 14.1207 45.8041 14.635 45.5843C15.1492 45.3644 15.6135 45.0426 15.9999 44.6382L23.9755 36.3618C25.28 34.9884 26.0073 33.1665 26.0073 31.2724C26.0073 29.3782 25.28 27.5563 23.9755 26.1829Z" fill="#4D4751"/>
</g>
<defs>
<clipPath id="clip0_38_3062">
<rect width="26" height="70" fill="white"/>
</clipPath>
</defs>
</svg>
