<svg width="22" height="22" viewBox="0 0 22 22" fill="none" xmlns="http://www.w3.org/2000/svg">
<path d="M15.6496 0H6.35044C4.6662 0 3.05094 0.669062 1.86 1.86C0.669062 3.05094 0 4.6662 0 6.35044L0 15.6496C0 17.3338 0.669062 18.9491 1.86 20.14C3.05094 21.3309 4.6662 22 6.35044 22H15.6496C17.3338 22 18.9491 21.3309 20.14 20.14C21.3309 18.9491 22 17.3338 22 15.6496V6.35044C22 4.6662 21.3309 3.05094 20.14 1.86C18.9491 0.669062 17.3338 0 15.6496 0ZM19.9723 15.813C19.9752 16.3682 19.8685 16.9186 19.6583 17.4325C19.4481 17.9465 19.1384 18.4139 18.7472 18.8079C18.3559 19.2019 17.8907 19.5148 17.3783 19.7286C16.8659 19.9425 16.3162 20.053 15.761 20.054H6.23903C5.12014 20.054 4.04708 19.6095 3.25591 18.8184C2.46473 18.0272 2.02026 16.9541 2.02026 15.8352V6.29845C2.01928 5.74416 2.12773 5.19512 2.3394 4.68284C2.55107 4.17055 2.86178 3.70509 3.25372 3.31314C3.64567 2.9212 4.11113 2.61048 4.62342 2.39882C5.1357 2.18715 5.68474 2.0787 6.23903 2.07968H15.761C16.3153 2.0787 16.8643 2.18715 17.3766 2.39882C17.8889 2.61048 18.3543 2.9212 18.7463 3.31314C19.1382 3.70509 19.4489 4.17055 19.6606 4.68284C19.8723 5.19512 19.9807 5.74416 19.9797 6.29845L19.9723 15.813Z" fill="white"/>
<path d="M11 5.34766C9.87035 5.34766 8.76606 5.68264 7.82677 6.31025C6.88749 6.93786 6.15541 7.8299 5.72311 8.87357C5.2908 9.91725 5.17769 11.0657 5.39808 12.1736C5.61847 13.2816 6.16245 14.2993 6.96125 15.0981C7.76004 15.8969 8.77776 16.4409 9.88572 16.6613C10.9937 16.8817 12.1421 16.7685 13.1858 16.3362C14.2295 15.9039 15.1215 15.1719 15.7491 14.2326C16.3767 13.2933 16.7117 12.189 16.7117 11.0593C16.7117 10.3093 16.564 9.56655 16.2769 8.87357C15.9899 8.1806 15.5692 7.55095 15.0388 7.02057C14.5084 6.49019 13.8788 6.06947 13.1858 5.78243C12.4928 5.49539 11.7501 5.34766 11 5.34766ZM11 14.7582C10.2655 14.7582 9.5475 14.5404 8.93679 14.1323C8.32607 13.7242 7.85008 13.1442 7.569 12.4657C7.28791 11.7871 7.21437 11.0404 7.35766 10.32C7.50096 9.59959 7.85466 8.93787 8.37403 8.4185C8.8934 7.89912 9.55512 7.54543 10.2755 7.40213C10.9959 7.25884 11.7426 7.33238 12.4212 7.61347C13.0998 7.89455 13.6798 8.37054 14.0878 8.98126C14.4959 9.59197 14.7137 10.31 14.7137 11.0445C14.7137 12.0294 14.3225 12.974 13.626 13.6705C12.9295 14.3669 11.985 14.7582 11 14.7582Z" fill="white"/>
<path d="M16.8974 6.46175C17.6316 6.46175 18.2269 5.86651 18.2269 5.13224C18.2269 4.39797 17.6316 3.80273 16.8974 3.80273C16.1631 3.80273 15.5679 4.39797 15.5679 5.13224C15.5679 5.86651 16.1631 6.46175 16.8974 6.46175Z" fill="white"/>
</svg>
