<svg width="25" height="12" viewBox="0 0 25 12" fill="none" xmlns="http://www.w3.org/2000/svg">
<g clip-path="url(#clip0_97_3772)">
<path fill-rule="evenodd" clip-rule="evenodd" d="M6.15706 10.8334H11.8237L14.4071 1.16675H6.15706C3.4904 1.16675 1.32373 3.33341 1.32373 6.00008C1.32373 8.66675 3.4904 10.8334 6.15706 10.8334Z" fill="white"/>
<path fill-rule="evenodd" clip-rule="evenodd" d="M18.8237 0.166748H6.15706C2.90706 0.166748 0.32373 2.75008 0.32373 6.00008C0.32373 9.25008 2.90706 11.8334 6.15706 11.8334H18.8237C22.0737 11.8334 24.6571 9.25008 24.6571 6.00008C24.6571 2.75008 21.9904 0.166748 18.8237 0.166748ZM1.32373 6.00008C1.32373 3.33341 3.4904 1.16675 6.15706 1.16675H14.4071L11.8237 10.8334H6.15706C3.4904 10.8334 1.32373 8.66675 1.32373 6.00008Z" fill="#0066FF"/>
<path d="M20.4902 3.5C20.6569 3.66667 20.6569 4 20.4902 4.16667L18.7402 6L20.5736 7.83333C20.7402 8 20.7402 8.33333 20.5736 8.5C20.4069 8.66667 20.0736 8.66667 19.9069 8.5L18.0736 6.66667L16.2402 8.5C16.0736 8.66667 15.7402 8.66667 15.5736 8.5C15.4069 8.33333 15.4069 8 15.5736 7.83333L17.3236 6L15.4902 4.16667C15.3236 4 15.3236 3.66667 15.4902 3.5C15.6569 3.33333 15.9902 3.33333 16.1569 3.5L17.9902 5.33333L19.8236 3.5C19.9902 3.33333 20.3236 3.33333 20.4902 3.5Z" fill="white"/>
<path d="M10.5736 3.58325C10.7402 3.74992 10.8236 4.08325 10.6569 4.24992L7.1569 8.33325C7.07357 8.41659 6.99023 8.49992 6.9069 8.49992C6.74023 8.58325 6.49023 8.58325 6.32357 8.41659L4.49023 6.58325C4.32357 6.41659 4.32357 6.08325 4.49023 5.91659C4.6569 5.74992 4.99023 5.74992 5.1569 5.91659L6.6569 7.33325L9.82357 3.58325C9.99023 3.41659 10.3236 3.41659 10.5736 3.58325Z" fill="#0066FF"/>
</g>
<defs>
<clipPath id="clip0_97_3772">
<rect width="25" height="12" fill="white" transform="translate(-0.00976562)"/>
</clipPath>
</defs>
</svg>
