<svg width="15" height="14" viewBox="0 0 15 14" fill="none" xmlns="http://www.w3.org/2000/svg">
<g clip-path="url(#clip0_97_3599)">
<path d="M6.70984 9.25484C6.92357 9.4565 7.20631 9.56883 7.50016 9.56883C7.79402 9.56883 8.07676 9.4565 8.29049 9.25484L11.1615 6.38387C11.2687 6.27875 11.354 6.15328 11.4122 6.0148C11.4704 5.87632 11.5003 5.72763 11.5003 5.57742C11.5003 5.42721 11.4704 5.27852 11.4122 5.14004C11.354 5.00156 11.2687 4.87609 11.1615 4.77097C11.0563 4.66368 10.9309 4.57844 10.7924 4.52025C10.6539 4.46207 10.5052 4.43209 10.355 4.43209C10.2048 4.43209 10.0561 4.46207 9.91763 4.52025C9.77915 4.57844 9.65367 4.66368 9.54855 4.77097L7.48404 6.83548L5.45178 4.77097C5.34666 4.66368 5.22118 4.57844 5.0827 4.52025C4.94423 4.46207 4.79553 4.43209 4.64533 4.43209C4.49512 4.43209 4.34642 4.46207 4.20795 4.52025C4.06947 4.57844 3.944 4.66368 3.83887 4.77097C3.73158 4.87609 3.64635 5.00156 3.58816 5.14004C3.52997 5.27852 3.5 5.42721 3.5 5.57742C3.5 5.72763 3.52997 5.87632 3.58816 6.0148C3.64635 6.15328 3.73158 6.27875 3.83887 6.38387L6.70984 9.25484Z" fill="white"/>
</g>
<defs>
<clipPath id="clip0_97_3599">
<rect width="8" height="5.13548" fill="white" transform="translate(3.5 4.43226)"/>
</clipPath>
</defs>
</svg>
