<svg width="21" height="6" viewBox="0 0 21 6" fill="none" xmlns="http://www.w3.org/2000/svg">
<g clip-path="url(#clip0_97_3589)">
<path d="M9.81971 5.25484C10.0334 5.4565 10.3162 5.56883 10.61 5.56883C10.9039 5.56883 11.1866 5.4565 11.4004 5.25484L14.2713 2.38387C14.3786 2.27875 14.4638 2.15328 14.522 2.0148C14.5802 1.87632 14.6102 1.72763 14.6102 1.57742C14.6102 1.42721 14.5802 1.27852 14.522 1.14004C14.4638 1.00156 14.3786 0.87609 14.2713 0.770968C14.1662 0.663678 14.0407 0.578443 13.9022 0.520254C13.7638 0.462066 13.6151 0.432094 13.4649 0.432094C13.3147 0.432094 13.166 0.462066 13.0275 0.520254C12.889 0.578443 12.7635 0.663678 12.6584 0.770968L10.5939 2.83548L8.56164 0.770968C8.45652 0.663678 8.33104 0.578443 8.19257 0.520254C8.05409 0.462066 7.90539 0.432094 7.75519 0.432094C7.60498 0.432094 7.45629 0.462066 7.31781 0.520254C7.17933 0.578443 7.05386 0.663678 6.94874 0.770968C6.84145 0.87609 6.75621 1.00156 6.69802 1.14004C6.63984 1.27852 6.60986 1.42721 6.60986 1.57742C6.60986 1.72763 6.63984 1.87632 6.69802 2.0148C6.75621 2.15328 6.84145 2.27875 6.94874 2.38387L9.81971 5.25484Z" fill="white"/>
</g>
<defs>
<clipPath id="clip0_97_3589">
<rect width="8" height="5.13548" fill="white" transform="translate(6.61011 0.432258)"/>
</clipPath>
</defs>
</svg>
