<svg width="50" height="70" viewBox="0 0 50 70" fill="none" xmlns="http://www.w3.org/2000/svg">
<path d="M10.7072 22.7947C11.4396 22.7947 12.0334 22.201 12.0334 21.4686C12.0334 20.7362 11.4396 20.1424 10.7072 20.1424C9.97483 20.1424 9.3811 20.7362 9.3811 21.4686C9.3811 22.201 9.97483 22.7947 10.7072 22.7947Z" fill="white"/>
<path d="M49.165 27.1169C39.7838 27.1169 39.7838 35.3193 39.7838 38.0206V51.1837C39.7838 52.6081 38.6542 53.7377 37.2298 53.7377H36.9351C35.5107 53.7377 34.3811 52.6081 34.3811 51.1837V47.0088C34.3811 45.7318 33.7917 44.4548 32.8585 43.669C32.0726 42.9813 31.0903 42.6866 30.0589 42.834L21.1689 44.1601C18.664 44.6022 17.1414 46.1739 17.1414 48.335V51.2328C17.1414 52.6572 16.0117 53.7868 14.5874 53.7868H14.2927C12.8683 53.7868 11.7386 52.6572 11.7386 51.2328V30.9971H12.2789C12.7209 30.9971 13.1139 30.6532 13.1139 30.1621C13.1139 29.72 12.7701 29.3271 12.2789 29.3271H6.92527C3.68362 29.3271 2.40661 26.1837 2.30838 26.0363C1.47341 24.0226 1.57164 23.2367 1.62075 23.0403C1.81722 22.8929 2.60307 22.4509 5.10798 21.9597C5.94295 21.7633 6.58146 21.3212 7.07262 20.5354C7.66201 19.7004 8.30052 18.7672 8.44787 18.6198C9.38107 17.5393 10.3143 17.0972 12.2298 16.9008C12.2298 16.9008 14.1453 16.7534 15.9626 16.9008H16.2082L19.6954 16.2132C20.4321 16.0658 20.5304 16.164 20.9233 16.6552L20.9724 16.7534C21.9547 17.9813 23.772 20.7318 24.3614 23.2859C24.165 23.5314 23.1826 23.9735 21.9547 23.777C20.9233 23.6297 19.106 22.9912 18.4675 20.2898C18.3693 19.8477 17.9272 19.6022 17.4852 19.7004C17.0431 19.7986 16.7976 20.2407 16.8958 20.6827C17.5834 23.5314 19.4007 24.9558 21.3162 25.3487V27.0187C21.3162 29.7692 22.8879 31.39 25.6876 31.39H30.2062C30.6483 31.39 31.0412 31.0462 31.0412 30.555C31.0412 30.113 30.6974 29.72 30.2062 29.72H25.6876C23.8211 29.72 22.9862 28.8851 22.9862 27.0187V25.4961C23.2809 25.4961 23.5756 25.447 23.8211 25.3978C25.3929 25.054 26.2769 24.1208 26.0314 23.0894C25.3929 20.4371 23.5756 17.4902 22.2494 15.8202L22.2003 15.7711C21.6109 15.0344 21.0215 14.445 19.4007 14.7397L16.0608 15.4273C14.0962 15.2308 12.2298 15.4273 12.1316 15.4273C9.774 15.6729 8.44787 16.3114 7.26908 17.6866C7.07262 17.9322 6.0903 19.3075 5.79561 19.7004C5.50091 20.1424 5.20622 20.3389 4.81329 20.4371C2.40661 20.9283 0.93313 21.5177 0.441971 22.058C-7.19648e-05 22.5 -0.392999 23.6297 0.834899 26.724C0.884015 26.9204 2.60307 30.9971 6.92527 30.9971H10.0687V51.1837C10.0687 53.4921 11.9351 55.3585 14.2435 55.3585H14.5382C16.8467 55.3585 18.7131 53.4921 18.7131 51.1837V48.2859C18.7131 46.4686 20.383 45.8792 21.3653 45.7318L30.2062 44.4548C30.8447 44.3566 31.385 44.6513 31.6797 44.8969C32.2691 45.388 32.6129 46.223 32.6129 47.0088V51.1837C32.6129 53.4921 34.4793 55.3585 36.7877 55.3585H37.0824C39.3909 55.3585 41.2573 53.4921 41.2573 51.1837V38.0206C41.2573 33.6984 42.1414 28.7377 49.0176 28.7377C49.4597 28.7377 49.8526 28.3939 49.8526 27.9028C49.8526 27.4116 49.6561 27.1169 49.165 27.1169Z" fill="white"/>
</svg>
