<svg width="22" height="22" viewBox="0 0 22 22" fill="none" xmlns="http://www.w3.org/2000/svg">
<path d="M12.6972 15.9011C12.0923 15.9176 11.493 15.7823 10.954 15.5076C10.4149 15.233 9.95316 14.8276 9.61099 14.3287C9.61099 14.3287 8.87618 17.2679 8.72187 17.8043C8.21186 19.3065 7.44074 20.707 6.44399 21.9412C6.42409 21.9675 6.39694 21.9874 6.36589 21.9984C6.33485 22.0094 6.30125 22.0111 6.26924 22.0033C6.23723 21.9955 6.2082 21.9785 6.18572 21.9544C6.16324 21.9303 6.14829 21.9002 6.14272 21.8677C5.87362 20.2767 5.87859 18.6514 6.15741 17.0621L7.78133 10.177C7.50628 9.54704 7.36851 8.86571 7.37719 8.17836C7.37719 6.30461 8.46469 4.90848 9.81673 4.90848C10.0583 4.90458 10.298 4.95253 10.5194 5.0491C10.7409 5.14566 10.9391 5.2886 11.1007 5.46827C11.2623 5.64794 11.3834 5.86016 11.456 6.09063C11.5286 6.3211 11.5509 6.56445 11.5215 6.80428C11.5215 7.95792 10.7867 9.69205 10.4046 11.2866C10.3295 11.5829 10.325 11.8928 10.3914 12.1912C10.4578 12.4896 10.5933 12.7682 10.7869 13.0048C10.9806 13.2413 11.2271 13.4292 11.5065 13.5532C11.7859 13.6772 12.0906 13.7339 12.3959 13.7188C14.7913 13.7188 16.4006 10.6473 16.4006 7.00267C16.4006 4.23246 14.5342 2.16032 11.1394 2.16032C10.3278 2.12837 9.51816 2.26185 8.75977 2.55265C8.00138 2.84344 7.31007 3.28547 6.72789 3.85184C6.14571 4.41821 5.68483 5.09709 5.37327 5.84719C5.06171 6.59729 4.906 7.40293 4.9156 8.2151C4.87974 9.11436 5.1752 9.99551 5.74592 10.6914C5.85383 10.776 5.93047 10.8942 5.96373 11.0273C5.997 11.1604 5.985 11.3007 5.92962 11.4262C5.87084 11.654 5.73123 12.2198 5.67244 12.4402C5.66179 12.5085 5.63495 12.5733 5.59416 12.6292C5.55337 12.685 5.49982 12.7303 5.43797 12.7612C5.37612 12.7921 5.30778 12.8078 5.23863 12.8069C5.16949 12.806 5.10156 12.7886 5.04051 12.7562C3.30638 11.9993 2.4834 10.0668 2.4834 7.89178C2.4834 4.30595 5.51079 0 11.5141 0C16.3418 0 19.5161 3.49031 19.5161 7.23781C19.5161 12.1977 16.7606 15.9011 12.6972 15.9011Z" fill="white"/>
</svg>
