<svg width="22" height="22" viewBox="0 0 22 22" fill="none" xmlns="http://www.w3.org/2000/svg">
<path d="M19.7515 6.51397V7.09446C19.7515 13.0611 15.2104 19.9388 6.90715 19.9388C4.45793 19.9391 2.06028 19.2351 0 17.9108C0.358654 17.9507 0.719286 17.9704 1.08016 17.9695C3.1123 17.9679 5.08468 17.2819 6.67936 16.0223C5.73691 16.0045 4.82361 15.6925 4.06731 15.1299C3.31101 14.5673 2.74957 13.7823 2.46159 12.8847C2.7402 12.9374 3.02306 12.9645 3.30661 12.9655C3.70881 12.9645 4.10909 12.9102 4.49699 12.8039C3.47824 12.5977 2.5617 12.0466 1.90184 11.2436C1.24197 10.4405 0.879112 9.43446 0.874416 8.39506V8.35098C1.50786 8.70021 2.21609 8.89176 2.93921 8.90942C1.98415 8.27075 1.30821 7.29228 1.04886 6.17299C0.789516 5.05371 0.966237 3.87767 1.54309 2.88404C2.67514 4.27808 4.08771 5.41847 5.68908 6.23118C7.29045 7.04389 9.04484 7.51076 10.8383 7.60148C10.6148 6.63395 10.7162 5.61972 11.1268 4.71558C11.5374 3.81144 12.2344 3.06772 13.1101 2.59937C13.9857 2.13103 14.9912 1.96414 15.9712 2.12451C16.9512 2.28487 17.8511 2.76356 18.5317 3.48658C19.54 3.28735 20.5067 2.91705 21.3901 2.39172C21.0539 3.43768 20.3488 4.32565 19.4061 4.89005C20.3027 4.77661 21.1771 4.5289 22 4.15525C21.3976 5.06962 20.636 5.86851 19.7515 6.51397Z" fill="white"/>
</svg>
