<svg width="22" height="22" viewBox="0 0 22 22" fill="none" xmlns="http://www.w3.org/2000/svg">
<path d="M15.6496 0H6.35044C4.6662 0 3.05094 0.669062 1.86 1.86C0.669062 3.05094 0 4.6662 0 6.35044L0 15.6496C0 17.3338 0.669062 18.9491 1.86 20.14C3.05094 21.3309 4.6662 22 6.35044 22H15.6496C17.3338 22 18.9491 21.3309 20.14 20.14C21.3309 18.9491 22 17.3338 22 15.6496V6.35044C22 4.6662 21.3309 3.05094 20.14 1.86C18.9491 0.669062 17.3338 0 15.6496 0ZM19.9723 15.813C19.9752 16.3682 19.8685 16.9186 19.6583 17.4325C19.4481 17.9465 19.1384 18.4139 18.7472 18.8079C18.3559 19.2019 17.8907 19.5148 17.3783 19.7286C16.8659 19.9425 16.3162 20.053 15.761 20.054H6.23903C5.12014 20.054 4.04708 19.6095 3.25591 18.8184C2.46473 18.0272 2.02026 16.9541 2.02026 15.8352V6.29845C2.01928 5.74416 2.12773 5.19512 2.3394 4.68284C2.55107 4.17055 2.86178 3.70509 3.25372 3.31314C3.64567 2.9212 4.11113 2.61048 4.62342 2.39882C5.1357 2.18715 5.68474 2.0787 6.23903 2.07968H15.761C16.3153 2.0787 16.8643 2.18715 17.3766 2.39882C17.8889 2.61048 18.3543 2.9212 18.7463 3.31314C19.1382 3.70509 19.4489 4.17055 19.6606 4.68284C19.8723 5.19512 19.9807 5.74416 19.9797 6.29845L19.9723 15.813Z" fill="white"/>
<path d="M10.9998 5.34766C9.87011 5.34766 8.76581 5.68264 7.82653 6.31025C6.88725 6.93786 6.15517 7.8299 5.72286 8.87357C5.29056 9.91725 5.17745 11.0657 5.39784 12.1736C5.61822 13.2816 6.16221 14.2993 6.961 15.0981C7.75979 15.8969 8.77752 16.4409 9.88548 16.6613C10.9934 16.8817 12.1419 16.7685 13.1855 16.3362C14.2292 15.9039 15.1213 15.1719 15.7489 14.2326C16.3765 13.2933 16.7115 12.189 16.7115 11.0593C16.7115 10.3093 16.5637 9.56655 16.2767 8.87357C15.9896 8.1806 15.5689 7.55095 15.0385 7.02057C14.5082 6.49019 13.8785 6.06947 13.1855 5.78243C12.4926 5.49539 11.7498 5.34766 10.9998 5.34766ZM10.9998 14.7582C10.2653 14.7582 9.54726 14.5404 8.93654 14.1323C8.32583 13.7242 7.84983 13.1442 7.56875 12.4657C7.28767 11.7871 7.21413 11.0404 7.35742 10.32C7.50071 9.59959 7.85441 8.93787 8.37378 8.4185C8.89315 7.89912 9.55487 7.54543 10.2753 7.40213C10.9956 7.25884 11.7424 7.33238 12.4209 7.61347C13.0995 7.89455 13.6795 8.37054 14.0876 8.98126C14.4957 9.59197 14.7135 10.31 14.7135 11.0445C14.7135 12.0294 14.3222 12.974 13.6258 13.6705C12.9293 14.3669 11.9847 14.7582 10.9998 14.7582Z" fill="white"/>
<path d="M16.8974 6.46175C17.6316 6.46175 18.2269 5.86651 18.2269 5.13224C18.2269 4.39797 17.6316 3.80273 16.8974 3.80273C16.1631 3.80273 15.5679 4.39797 15.5679 5.13224C15.5679 5.86651 16.1631 6.46175 16.8974 6.46175Z" fill="white"/>
</svg>
