<svg width="23" height="22" viewBox="0 0 23 22" fill="none" xmlns="http://www.w3.org/2000/svg">
<path d="M16.1496 0H6.85044C5.1662 0 3.55094 0.669062 2.36 1.86C1.16906 3.05094 0.5 4.6662 0.5 6.35044L0.5 15.6496C0.5 17.3338 1.16906 18.9491 2.36 20.14C3.55094 21.3309 5.1662 22 6.85044 22H16.1496C17.8338 22 19.4491 21.3309 20.64 20.14C21.8309 18.9491 22.5 17.3338 22.5 15.6496V6.35044C22.5 4.6662 21.8309 3.05094 20.64 1.86C19.4491 0.669062 17.8338 0 16.1496 0ZM20.4723 15.813C20.4752 16.3682 20.3685 16.9186 20.1583 17.4325C19.9481 17.9465 19.6384 18.4139 19.2472 18.8079C18.8559 19.2019 18.3907 19.5148 17.8783 19.7286C17.3659 19.9425 16.8162 20.053 16.261 20.054H6.73903C5.62014 20.054 4.54708 19.6095 3.75591 18.8184C2.96473 18.0272 2.52026 16.9541 2.52026 15.8352V6.29845C2.51928 5.74416 2.62773 5.19512 2.8394 4.68284C3.05107 4.17055 3.36178 3.70509 3.75372 3.31314C4.14567 2.9212 4.61113 2.61048 5.12342 2.39882C5.6357 2.18715 6.18474 2.0787 6.73903 2.07968H16.261C16.8153 2.0787 17.3643 2.18715 17.8766 2.39882C18.3889 2.61048 18.8543 2.9212 19.2463 3.31314C19.6382 3.70509 19.9489 4.17055 20.1606 4.68284C20.3723 5.19512 20.4807 5.74416 20.4797 6.29845L20.4723 15.813Z" fill="white"/>
<path d="M11.5 5.34778C10.3704 5.34778 9.26606 5.68276 8.32677 6.31037C7.38749 6.93798 6.65541 7.83002 6.22311 8.87369C5.7908 9.91737 5.67769 11.0658 5.89808 12.1738C6.11847 13.2817 6.66245 14.2994 7.46125 15.0982C8.26004 15.897 9.27776 16.441 10.3857 16.6614C11.4937 16.8818 12.6421 16.7687 13.6858 16.3364C14.7295 15.9041 15.6215 15.172 16.2491 14.2327C16.8767 13.2934 17.2117 12.1891 17.2117 11.0595C17.2117 10.3094 17.064 9.56667 16.7769 8.87369C16.4899 8.18072 16.0692 7.55107 15.5388 7.02069C15.0084 6.49031 14.3788 6.06959 13.6858 5.78255C12.9928 5.49552 12.2501 5.34778 11.5 5.34778ZM11.5 14.7583C10.7655 14.7583 10.0475 14.5405 9.43679 14.1324C8.82607 13.7244 8.35008 13.1444 8.069 12.4658C7.78791 11.7872 7.71437 11.0405 7.85766 10.3201C8.00096 9.59971 8.35466 8.93799 8.87403 8.41862C9.3934 7.89925 10.0551 7.54555 10.7755 7.40226C11.4959 7.25896 12.2426 7.33251 12.9212 7.61359C13.5998 7.89467 14.1798 8.37066 14.5878 8.98138C14.9959 9.5921 15.2137 10.3101 15.2137 11.0446C15.2137 12.0295 14.8225 12.9741 14.126 13.6706C13.4295 14.367 12.485 14.7583 11.5 14.7583Z" fill="white"/>
<path d="M17.3974 6.46187C18.1316 6.46187 18.7269 5.86663 18.7269 5.13236C18.7269 4.3981 18.1316 3.80286 17.3974 3.80286C16.6631 3.80286 16.0679 4.3981 16.0679 5.13236C16.0679 5.86663 16.6631 6.46187 17.3974 6.46187Z" fill="white"/>
</svg>
