<svg width="26" height="12" viewBox="0 0 26 12" fill="none" xmlns="http://www.w3.org/2000/svg">
<g clip-path="url(#clip0_69_1455)">
<path fill-rule="evenodd" clip-rule="evenodd" d="M7.15633 10.8334H12.823L15.4063 1.16675H7.15633C4.48966 1.16675 2.323 3.33341 2.323 6.00008C2.323 8.66675 4.48966 10.8334 7.15633 10.8334Z" fill="white"/>
<path fill-rule="evenodd" clip-rule="evenodd" d="M19.823 0.166748H7.15633C3.90633 0.166748 1.323 2.75008 1.323 6.00008C1.323 9.25008 3.90633 11.8334 7.15633 11.8334H19.823C23.073 11.8334 25.6563 9.25008 25.6563 6.00008C25.6563 2.75008 22.9897 0.166748 19.823 0.166748ZM2.323 6.00008C2.323 3.33341 4.48966 1.16675 7.15633 1.16675H15.4063L12.823 10.8334H7.15633C4.48966 10.8334 2.323 8.66675 2.323 6.00008Z" fill="#0066FF"/>
<path d="M21.4897 3.5C21.6564 3.66667 21.6564 4 21.4897 4.16667L19.7397 6L21.5731 7.83333C21.7397 8 21.7397 8.33333 21.5731 8.5C21.4064 8.66667 21.0731 8.66667 20.9064 8.5L19.0731 6.66667L17.2397 8.5C17.0731 8.66667 16.7397 8.66667 16.5731 8.5C16.4064 8.33333 16.4064 8 16.5731 7.83333L18.3231 6L16.4897 4.16667C16.3231 4 16.3231 3.66667 16.4897 3.5C16.6564 3.33333 16.9897 3.33333 17.1564 3.5L18.9897 5.33333L20.8231 3.5C20.9897 3.33333 21.3231 3.33333 21.4897 3.5Z" fill="white"/>
<path d="M11.5731 3.58325C11.7397 3.74992 11.8231 4.08325 11.6564 4.24992L8.15641 8.33325C8.07308 8.41659 7.98975 8.49992 7.90641 8.49992C7.73975 8.58325 7.48975 8.58325 7.32308 8.41659L5.48975 6.58325C5.32308 6.41659 5.32308 6.08325 5.48975 5.91659C5.65641 5.74992 5.98975 5.74992 6.15641 5.91659L7.65641 7.33325L10.8231 3.58325C10.9897 3.41659 11.3231 3.41659 11.5731 3.58325Z" fill="#0066FF"/>
</g>
<defs>
<clipPath id="clip0_69_1455">
<rect width="25" height="12" fill="white" transform="translate(0.989746)"/>
</clipPath>
</defs>
</svg>
