<svg width="21" height="6" viewBox="0 0 21 6" fill="none" xmlns="http://www.w3.org/2000/svg">
<g clip-path="url(#clip0_38_1503)">
<path d="M9.81971 5.25484C10.0334 5.4565 10.3162 5.56883 10.61 5.56883C10.9039 5.56883 11.1866 5.4565 11.4004 5.25484L14.2713 2.38387C14.3786 2.27875 14.4638 2.15327 14.522 2.0148C14.5802 1.87632 14.6102 1.72762 14.6102 1.57742C14.6102 1.42721 14.5802 1.27852 14.522 1.14004C14.4638 1.00156 14.3786 0.876087 14.2713 0.770965C14.1662 0.663675 14.0407 0.57844 13.9022 0.520251C13.7638 0.462063 13.6151 0.432091 13.4649 0.432091C13.3147 0.432091 13.166 0.462063 13.0275 0.520251C12.889 0.57844 12.7635 0.663675 12.6584 0.770965L10.5939 2.83548L8.56164 0.770965C8.45652 0.663675 8.33104 0.57844 8.19257 0.520251C8.05409 0.462063 7.9054 0.432091 7.75519 0.432091C7.60498 0.432091 7.45629 0.462063 7.31781 0.520251C7.17933 0.57844 7.05386 0.663675 6.94874 0.770965C6.84145 0.876087 6.75621 1.00156 6.69802 1.14004C6.63984 1.27852 6.60986 1.42721 6.60986 1.57742C6.60986 1.72762 6.63984 1.87632 6.69802 2.0148C6.75621 2.15327 6.84145 2.27875 6.94874 2.38387L9.81971 5.25484Z" fill="white"/>
</g>
<defs>
<clipPath id="clip0_38_1503">
<rect width="8" height="5.13548" fill="white" transform="translate(6.61011 0.432259)"/>
</clipPath>
</defs>
</svg>
