<svg width="15" height="14" viewBox="0 0 15 14" fill="none" xmlns="http://www.w3.org/2000/svg">
<g clip-path="url(#clip0_38_1513)">
<path d="M6.7096 9.25484C6.92333 9.4565 7.20607 9.56883 7.49992 9.56883C7.79377 9.56883 8.07651 9.4565 8.29024 9.25484L11.1612 6.38387C11.2685 6.27875 11.3537 6.15327 11.4119 6.0148C11.4701 5.87632 11.5001 5.72762 11.5001 5.57742C11.5001 5.42721 11.4701 5.27852 11.4119 5.14004C11.3537 5.00156 11.2685 4.87609 11.1612 4.77097C11.0561 4.66368 10.9306 4.57844 10.7921 4.52025C10.6537 4.46206 10.505 4.43209 10.3548 4.43209C10.2046 4.43209 10.0559 4.46206 9.91738 4.52025C9.7789 4.57844 9.65343 4.66368 9.54831 4.77097L7.48379 6.83548L5.45153 4.77097C5.34641 4.66368 5.22094 4.57844 5.08246 4.52025C4.94398 4.46206 4.79529 4.43209 4.64508 4.43209C4.49488 4.43209 4.34618 4.46206 4.2077 4.52025C4.06923 4.57844 3.94375 4.66368 3.83863 4.77097C3.73134 4.87609 3.64611 5.00156 3.58792 5.14004C3.52973 5.27852 3.49976 5.42721 3.49976 5.57742C3.49976 5.72762 3.52973 5.87632 3.58792 6.0148C3.64611 6.15327 3.73134 6.27875 3.83863 6.38387L6.7096 9.25484Z" fill="white"/>
</g>
<defs>
<clipPath id="clip0_38_1513">
<rect width="8" height="5.13548" fill="white" transform="translate(3.5 4.43226)"/>
</clipPath>
</defs>
</svg>
