<svg width="101" height="100" viewBox="0 0 101 100" fill="none" xmlns="http://www.w3.org/2000/svg">
<g clip-path="url(#clip0_105_674)">
<g clip-path="url(#clip1_105_674)">
<path d="M88.0732 32.0595L50.9144 13.7243C50.5499 13.5467 50.1251 13.5467 49.7606 13.7243L12.586 32.0595C12.281 32.2041 12.0468 32.467 11.9366 32.7886C11.8265 33.1101 11.8498 33.463 12.0012 33.7669C12.3311 34.4021 13.1018 34.6567 13.7398 34.3414L50.3296 16.2934L86.9194 34.3414C87.1022 34.4283 87.3022 34.472 87.5042 34.4691C87.9886 34.4711 88.4336 34.2002 88.6581 33.7669C88.8094 33.463 88.8327 33.1101 88.7226 32.7886C88.6125 32.467 88.3783 32.2041 88.0732 32.0595Z" fill="#F27629"/>
<path d="M76.298 71.8575C75.3024 71.402 74.1726 71.345 73.1369 71.6979L59.4493 74.8894C59.5674 73.7159 59.2523 72.5396 58.5642 71.5862C57.8039 70.5469 56.6678 69.853 55.4031 69.6554L43.3435 67.0224H43.1854C40.4579 66.2648 37.5388 66.7424 35.1878 68.3309C33.2437 69.6554 23.6814 75.9107 23.5707 75.9746C23.2859 76.1574 23.0865 76.4489 23.018 76.7826C22.9495 77.1163 23.0178 77.4638 23.2072 77.7458C23.4487 78.1057 23.8515 78.3209 24.282 78.3203C24.5339 78.3215 24.7808 78.2495 24.9932 78.1129C25.3884 77.8575 34.6978 71.7299 36.6419 70.4373C38.4566 69.211 40.7263 68.8879 42.8061 69.5596H42.9167L54.8973 72.1767C55.5273 72.2543 56.0983 72.5887 56.4779 73.1022C56.841 73.5965 56.9893 74.2186 56.8888 74.8256C56.671 76.0841 55.5016 76.9395 54.2493 76.7565L46.3465 75.1607C46.0089 75.0745 45.651 75.1291 45.3537 75.3122C45.0564 75.4953 44.8445 75.7915 44.766 76.1341C44.6962 76.4687 44.7624 76.8176 44.9495 77.1026C45.1367 77.3875 45.4293 77.5848 45.7617 77.6501L53.6645 79.2458C53.9275 79.2673 54.1918 79.2673 54.4548 79.2458C55.7728 79.2396 57.0347 78.7059 57.9636 77.7618L73.7691 74.0597H73.9114C74.3223 73.8936 74.7807 73.8936 75.1916 74.0597C75.5995 74.2363 75.9149 74.578 76.0609 75.0011C76.2608 75.4208 76.2691 75.9076 76.0838 76.3339C75.8985 76.7603 75.538 77.0836 75.0968 77.2192L58.1375 83.315C57.303 83.6654 56.3711 83.6994 55.5137 83.4108L41.2888 80.4107C40.988 80.3473 40.6748 80.3925 40.4036 80.5384L30.5884 85.7246C30.2902 85.8806 30.0668 86.1513 29.9686 86.4756C29.8705 86.7998 29.9059 87.1504 30.0668 87.448C30.4137 88.0745 31.1917 88.308 31.8212 87.9746L41.3046 82.9959L55.0554 85.9001C56.4107 86.298 57.8597 86.2192 59.1648 85.6767L76.0135 79.6129C77.6191 79.049 78.7176 77.5484 78.7805 75.8333C78.8434 74.1182 77.8579 72.5398 76.298 71.8575Z" fill="#F27629"/>
<path fill-rule="evenodd" clip-rule="evenodd" d="M34.0025 43.9159C33.8119 46.5447 35.762 48.8344 38.3648 49.0383C40.9424 48.8016 42.8558 46.5218 42.6639 43.9159C42.8545 41.2871 40.9045 38.9974 38.3016 38.7935C35.7241 39.0302 33.8107 41.31 34.0025 43.9159ZM40.5302 43.9159C40.6873 45.3245 39.7438 46.6177 38.3648 46.884C36.9603 46.6471 35.9828 45.3452 36.1362 43.9159C35.9801 42.5022 36.932 41.2068 38.3174 40.9478C39.6964 41.2141 40.6399 42.5073 40.4828 43.9159H40.5302Z" fill="#F27629"/>
<path fill-rule="evenodd" clip-rule="evenodd" d="M66.7041 43.9159C66.8946 46.5447 64.9446 48.8344 62.3417 49.0383C59.7452 48.8262 57.8044 46.5389 57.9952 43.9159C57.8044 41.2929 59.7452 39.0056 62.3417 38.7935C64.9446 38.9974 66.8946 41.2871 66.7041 43.9159ZM64.5229 43.9159C64.6879 42.4964 63.7339 41.1911 62.3417 40.9319C60.956 41.1984 60.0104 42.5016 60.1764 43.9159C60.0202 45.3296 60.9722 46.625 62.3575 46.884C63.7365 46.6177 64.68 45.3245 64.5229 43.9159Z" fill="#F27629"/>
<path fill-rule="evenodd" clip-rule="evenodd" d="M55.2293 30.4797C52.6265 30.6835 50.6764 32.9733 50.867 35.602C50.6764 38.2308 52.6265 40.5206 55.2293 40.7244C57.8322 40.5206 59.7822 38.2308 59.5917 35.602C59.7822 32.9733 57.8322 30.6835 55.2293 30.4797ZM55.2293 38.5861C53.8503 38.3198 52.9069 37.0266 53.064 35.618C52.9069 34.2094 53.8503 32.9162 55.2293 32.6499C56.6083 32.9162 57.5518 34.2094 57.3947 35.618C57.5518 37.0266 56.6083 38.3198 55.2293 38.5861Z" fill="#F27629"/>
<path fill-rule="evenodd" clip-rule="evenodd" d="M41.0676 35.602C40.877 32.9733 42.827 30.6835 45.4299 30.4797C48.0391 30.6752 49.9984 32.9675 49.808 35.602C49.9984 38.2366 48.0391 40.5289 45.4299 40.7244C42.827 40.5206 40.877 38.2308 41.0676 35.602ZM43.2645 35.618C43.1074 37.0266 44.0509 38.3198 45.4299 38.5861C46.8089 38.3198 47.7524 37.0266 47.5953 35.618C47.7524 34.2094 46.8089 32.9162 45.4299 32.6499C44.0509 32.9162 43.1074 34.2094 43.2645 35.618Z" fill="#F27629"/>
<path fill-rule="evenodd" clip-rule="evenodd" d="M44.6711 44.7776L40.4985 51.8947C40.2057 52.3994 39.9673 52.9344 39.7872 53.4904C39.5095 54.196 39.37 54.9493 39.3763 55.7085C39.4494 58.9075 41.978 61.4954 45.1453 61.6128H45.4456C46.2415 61.6175 47.0306 61.4657 47.769 61.166L48.4645 60.9426C49.0609 60.7094 49.6907 60.5747 50.3295 60.5436C50.9685 60.5741 51.5983 60.7089 52.1946 60.9426L52.969 61.1341C53.7655 61.3768 54.5881 61.5215 55.4189 61.5649H55.4979C58.6737 61.4389 61.2025 58.8368 61.267 55.6287C61.2468 54.8995 61.1135 54.1779 60.8718 53.4904C60.6822 52.9356 60.4387 52.401 60.1448 51.8947L55.9721 44.7617C54.9153 42.537 52.7523 41.0608 50.3137 40.8999C47.8775 41.0695 45.7209 42.5515 44.6711 44.7776ZM54.1545 45.8627L58.3271 52.9957C58.5485 53.3706 58.7337 53.766 58.8803 54.1766C59.0421 54.6441 59.1327 55.1337 59.149 55.6287C59.1023 57.6548 57.5182 59.3028 55.5137 59.4107C54.876 59.3737 54.2447 59.2612 53.6329 59.0755L52.9532 58.8681C52.1185 58.5215 51.2311 58.3218 50.3295 58.2777C49.4592 58.3052 48.5994 58.4777 47.7848 58.7883L47.1052 58.9958H46.9788C46.4785 59.2065 45.9402 59.3098 45.3982 59.299H45.2559C43.2327 59.2241 41.6144 57.5763 41.5575 55.533C41.5894 55.063 41.7073 54.6032 41.9052 54.1766C42.0491 53.7649 42.2345 53.3692 42.4584 52.9957L46.631 45.8627C47.3169 44.3361 48.7438 43.2828 50.3927 43.0861C52.0147 43.3006 53.4126 44.344 54.0912 45.8468L54.1545 45.8627Z" fill="#F27629"/>
</g>
</g>
<defs>
<clipPath id="clip0_105_674">
<rect width="100" height="100" fill="white" transform="translate(0.329956)"/>
</clipPath>
<clipPath id="clip1_105_674">
<rect width="100" height="100" fill="white" transform="translate(0.329956)"/>
</clipPath>
</defs>
</svg>
