<svg width="22" height="22" viewBox="0 0 22 22" fill="none" xmlns="http://www.w3.org/2000/svg">
<path d="M21.7735 6.26155C21.7735 6.26155 21.5471 4.63108 20.9017 3.91209C20.6251 3.59675 20.2835 3.34495 19.9005 3.17395C19.5174 3.00294 19.1019 2.91678 18.6825 2.92136C15.631 2.6949 11 2.65527 11 2.65527C11 2.65527 6.37468 2.6949 3.30057 2.92136C2.88592 2.92791 2.47691 3.01859 2.09836 3.18792C1.7198 3.35725 1.37957 3.60169 1.0983 3.90643C0.41894 4.62542 0.226454 6.26155 0.226454 6.26155C0.0851676 7.54576 0.00958443 8.83634 0 10.1283L0 11.9116C0.00862608 13.1922 0.0842139 14.4716 0.226454 15.7443C0.226454 15.7443 0.452908 17.3748 1.0983 18.0938C1.93052 19.0449 3.03448 19.0052 3.52702 19.1185C5.27072 19.311 11 19.3449 11 19.3449C11 19.3449 15.6253 19.3449 18.6994 19.0788C19.1141 19.0723 19.5231 18.9816 19.9016 18.8123C20.2802 18.643 20.6204 18.3985 20.9017 18.0938C21.5471 17.3748 21.7735 15.7443 21.7735 15.7443C21.9141 14.4714 21.9896 13.1922 22 11.9116V10.1283C21.9904 8.83634 21.9148 7.54576 21.7735 6.26155ZM8.34483 15.399V7.18435L15.5517 11.3964L8.34483 15.399Z" fill="white"/>
</svg>
