<svg width="22" height="22" viewBox="0 0 22 22" fill="none" xmlns="http://www.w3.org/2000/svg">
<path d="M12.6974 15.9011C12.0926 15.9176 11.4933 15.7823 10.9542 15.5076C10.4151 15.233 9.95341 14.8276 9.61123 14.3287C9.61123 14.3287 8.87643 17.2679 8.72212 17.8043C8.21211 19.3065 7.44099 20.707 6.44423 21.9412C6.42433 21.9675 6.39719 21.9874 6.36614 21.9984C6.33509 22.0094 6.3015 22.0111 6.26948 22.0033C6.23747 21.9955 6.20844 21.9785 6.18596 21.9544C6.16348 21.9303 6.14854 21.9002 6.14296 21.8677C5.87387 20.2767 5.87884 18.6514 6.15766 17.0621L7.78157 10.177C7.50652 9.54704 7.36875 8.86571 7.37743 8.17836C7.37743 6.30461 8.46494 4.90848 9.81698 4.90848C10.0586 4.90458 10.2982 4.95253 10.5197 5.0491C10.7412 5.14566 10.9394 5.2886 11.101 5.46827C11.2625 5.64794 11.3837 5.86016 11.4563 6.09063C11.5288 6.3211 11.5512 6.56445 11.5217 6.80428C11.5217 7.95792 10.7869 9.69205 10.4048 11.2866C10.3297 11.5829 10.3252 11.8928 10.3916 12.1912C10.458 12.4896 10.5935 12.7682 10.7872 13.0048C10.9809 13.2413 11.2273 13.4292 11.5067 13.5532C11.7862 13.6772 12.0908 13.7339 12.3961 13.7188C14.7916 13.7188 16.4008 10.6473 16.4008 7.00267C16.4008 4.23246 14.5344 2.16032 11.1396 2.16032C10.328 2.12837 9.51841 2.26185 8.76002 2.55265C8.00163 2.84344 7.31032 3.28547 6.72814 3.85184C6.14595 4.41821 5.68507 5.09709 5.37351 5.84719C5.06196 6.59729 4.90624 7.40293 4.91584 8.2151C4.87998 9.11436 5.17544 9.99551 5.74617 10.6914C5.85408 10.776 5.93071 10.8942 5.96398 11.0273C5.99724 11.1604 5.98524 11.3007 5.92987 11.4262C5.87108 11.654 5.73147 12.2198 5.67269 12.4402C5.66203 12.5085 5.63519 12.5733 5.5944 12.6292C5.55361 12.685 5.50006 12.7303 5.43821 12.7612C5.37637 12.7921 5.30802 12.8078 5.23888 12.8069C5.16974 12.806 5.10181 12.7886 5.04076 12.7562C3.30662 11.9993 2.48364 10.0668 2.48364 7.89178C2.48364 4.30595 5.51103 0 11.5144 0C16.342 0 19.5164 3.49031 19.5164 7.23781C19.5164 12.1977 16.7609 15.9011 12.6974 15.9011Z" fill="white"/>
</svg>
