<svg width="80" height="79" viewBox="0 0 80 79" fill="none" xmlns="http://www.w3.org/2000/svg">
<g clip-path="url(#clip0_2_63)">
<path d="M47.6155 66.7437C49.0353 66.6884 57.4973 66.1975 62.8479 59.373C68.1431 52.658 67.2154 43.7039 65.1411 35.9518C63.0115 28.1985 60.5546 20.5558 58.6981 12.7483C58.5898 12.2021 57.8799 11.9843 57.4973 12.4211C54.168 16.0246 50.8365 19.6823 47.5061 23.2858H32.6563C29.327 19.6823 25.9955 16.0246 22.6651 12.4211C22.2836 11.9843 21.5738 12.2021 21.4643 12.7483C19.5536 20.5558 17.0967 28.1985 15.0224 35.9518C12.8928 43.7051 12.0204 52.658 17.3157 59.373C22.6651 66.1975 31.1282 66.6884 32.5469 66.7426" stroke="#F27629" stroke-width="3.38571" stroke-miterlimit="10" stroke-linecap="round"/>
<path d="M39.6457 48.3988C40.0665 48.4067 40.4847 48.3307 40.8758 48.1752C41.2669 48.0196 41.6231 47.7877 41.9235 47.4929C42.2239 47.1981 42.4625 46.8463 42.6254 46.4582C42.7883 46.0701 42.8722 45.6535 42.8722 45.2326C42.8722 44.8117 42.7883 44.395 42.6254 44.0069C42.4625 43.6188 42.2239 43.2671 41.9235 42.9723C41.6231 42.6775 41.2669 42.4455 40.8758 42.29C40.4847 42.1344 40.0665 42.0584 39.6457 42.0664C38.8163 42.082 38.0262 42.4225 37.4452 43.0146C36.8642 43.6066 36.5387 44.4031 36.5387 45.2326C36.5387 46.0621 36.8642 46.8585 37.4452 47.4506C38.0262 48.0427 38.8163 48.3831 39.6457 48.3988ZM49.0354 41.1929C49.8753 41.1929 50.6808 40.8592 51.2746 40.2653C51.8685 39.6714 52.2022 38.866 52.2022 38.0261C52.2022 37.1862 51.8685 36.3807 51.2746 35.7868C50.6808 35.193 49.8753 34.8593 49.0354 34.8593C48.1955 34.8593 47.39 35.193 46.7962 35.7868C46.2023 36.3807 45.8686 37.1862 45.8686 38.0261C45.8686 38.866 46.2023 39.6714 46.7962 40.2653C47.39 40.8592 48.1955 41.1929 49.0354 41.1929Z" fill="#F27629"/>
<path d="M2.24817 40.3735L22.8852 42.1205M2.19287 53.5857L22.8841 51.6197M77.753 40.3735L57.1159 42.1205M77.8072 53.5857L57.1159 51.6197M30.4737 52.6027C30.6916 52.8747 32.1666 54.8937 34.8955 55.0585C37.6797 55.2221 39.482 53.3115 39.6998 53.0925V47.251" stroke="#F27629" stroke-width="3.38571" stroke-miterlimit="10" stroke-linecap="round"/>
<path d="M48.8717 52.5485C48.6528 52.8217 47.1789 54.8418 44.45 55.0054C41.6647 55.1691 39.8635 53.2584 39.6445 53.0395V47.198" stroke="#F27629" stroke-width="3.38571" stroke-miterlimit="10" stroke-linecap="round"/>
</g>
<defs>
<clipPath id="clip0_2_63">
<rect width="79" height="79" fill="white" transform="translate(0.5)"/>
</clipPath>
</defs>
</svg>
