<svg width="25" height="12" viewBox="0 0 25 12" fill="none" xmlns="http://www.w3.org/2000/svg">
<g clip-path="url(#clip0_89_3674)">
<path fill-rule="evenodd" clip-rule="evenodd" d="M6.1567 10.8334H11.8234L14.4067 1.16669H6.1567C3.49003 1.16669 1.32336 3.33335 1.32336 6.00002C1.32336 8.66669 3.49003 10.8334 6.1567 10.8334Z" fill="white"/>
<path fill-rule="evenodd" clip-rule="evenodd" d="M18.8234 0.166687H6.1567C2.9067 0.166687 0.323364 2.75002 0.323364 6.00002C0.323364 9.25002 2.9067 11.8334 6.1567 11.8334H18.8234C22.0734 11.8334 24.6567 9.25002 24.6567 6.00002C24.6567 2.75002 21.99 0.166687 18.8234 0.166687ZM1.32336 6.00002C1.32336 3.33335 3.49003 1.16669 6.1567 1.16669H14.4067L11.8234 10.8334H6.1567C3.49003 10.8334 1.32336 8.66669 1.32336 6.00002Z" fill="#0066FF"/>
<path d="M20.4901 3.5C20.6567 3.66667 20.6567 4 20.4901 4.16667L18.7401 6L20.5734 7.83333C20.7401 8 20.7401 8.33333 20.5734 8.5C20.4067 8.66667 20.0734 8.66667 19.9067 8.5L18.0734 6.66667L16.2401 8.5C16.0734 8.66667 15.7401 8.66667 15.5734 8.5C15.4067 8.33333 15.4067 8 15.5734 7.83333L17.3234 6L15.4901 4.16667C15.3234 4 15.3234 3.66667 15.4901 3.5C15.6567 3.33333 15.9901 3.33333 16.1567 3.5L17.9901 5.33333L19.8234 3.5C19.9901 3.33333 20.3234 3.33333 20.4901 3.5Z" fill="white"/>
<path d="M10.5734 3.58331C10.7401 3.74998 10.8234 4.08331 10.6567 4.24998L7.15672 8.33331C7.07338 8.41665 6.99005 8.49998 6.90672 8.49998C6.74005 8.58331 6.49005 8.58331 6.32338 8.41665L4.49005 6.58331C4.32338 6.41665 4.32338 6.08331 4.49005 5.91665C4.65672 5.74998 4.99005 5.74998 5.15672 5.91665L6.65672 7.33331L9.82338 3.58331C9.99005 3.41665 10.3234 3.41665 10.5734 3.58331Z" fill="#0066FF"/>
</g>
<defs>
<clipPath id="clip0_89_3674">
<rect width="25" height="12" fill="white" transform="translate(-0.00994873)"/>
</clipPath>
</defs>
</svg>
