<svg width="21" height="6" viewBox="0 0 21 6" fill="none" xmlns="http://www.w3.org/2000/svg">
<g clip-path="url(#clip0_88_3489)">
<path d="M9.81971 5.25487C10.0334 5.45654 10.3162 5.56887 10.61 5.56887C10.9039 5.56887 11.1866 5.45654 11.4004 5.25487L14.2713 2.38391C14.3786 2.27878 14.4638 2.15331 14.522 2.01483C14.5802 1.87636 14.6102 1.72766 14.6102 1.57745C14.6102 1.42725 14.5802 1.27855 14.522 1.14008C14.4638 1.0016 14.3786 0.876125 14.2713 0.771003C14.1662 0.663713 14.0407 0.578478 13.9022 0.520289C13.7638 0.462101 13.6151 0.432129 13.4649 0.432129C13.3147 0.432129 13.166 0.462101 13.0275 0.520289C12.889 0.578478 12.7635 0.663713 12.6584 0.771003L10.5939 2.83552L8.56164 0.771003C8.45652 0.663713 8.33104 0.578478 8.19257 0.520289C8.05409 0.462101 7.9054 0.432129 7.75519 0.432129C7.60498 0.432129 7.45629 0.462101 7.31781 0.520289C7.17933 0.578478 7.05386 0.663713 6.94874 0.771003C6.84145 0.876125 6.75621 1.0016 6.69802 1.14008C6.63984 1.27855 6.60986 1.42725 6.60986 1.57745C6.60986 1.72766 6.63984 1.87636 6.69802 2.01483C6.75621 2.15331 6.84145 2.27878 6.94874 2.38391L9.81971 5.25487Z" fill="white"/>
</g>
<defs>
<clipPath id="clip0_88_3489">
<rect width="8" height="5.13548" fill="white" transform="translate(6.60999 0.432251)"/>
</clipPath>
</defs>
</svg>
