<svg width="15" height="14" viewBox="0 0 15 14" fill="none" xmlns="http://www.w3.org/2000/svg">
<g clip-path="url(#clip0_88_3499)">
<path d="M6.70972 9.25487C6.92345 9.45654 7.20619 9.56887 7.50004 9.56887C7.7939 9.56887 8.07663 9.45654 8.29037 9.25487L11.1613 6.38391C11.2686 6.27878 11.3539 6.15331 11.412 6.01483C11.4702 5.87636 11.5002 5.72766 11.5002 5.57745C11.5002 5.42725 11.4702 5.27855 11.412 5.14008C11.3539 5.0016 11.2686 4.87613 11.1613 4.771C11.0562 4.66371 10.9307 4.57848 10.7923 4.52029C10.6538 4.4621 10.5051 4.43213 10.3549 4.43213C10.2047 4.43213 10.056 4.4621 9.9175 4.52029C9.77903 4.57848 9.65355 4.66371 9.54843 4.771L7.48391 6.83552L5.45166 4.771C5.34653 4.66371 5.22106 4.57848 5.08258 4.52029C4.94411 4.4621 4.79541 4.43213 4.6452 4.43213C4.495 4.43213 4.3463 4.4621 4.20783 4.52029C4.06935 4.57848 3.94387 4.66371 3.83875 4.771C3.73146 4.87613 3.64623 5.0016 3.58804 5.14008C3.52985 5.27855 3.49988 5.42725 3.49988 5.57745C3.49988 5.72766 3.52985 5.87636 3.58804 6.01483C3.64623 6.15331 3.73146 6.27878 3.83875 6.38391L6.70972 9.25487Z" fill="white"/>
</g>
<defs>
<clipPath id="clip0_88_3499">
<rect width="8" height="5.13548" fill="white" transform="translate(3.5 4.43225)"/>
</clipPath>
</defs>
</svg>
