<svg width="50" height="70" viewBox="0 0 50 70" fill="none" xmlns="http://www.w3.org/2000/svg">
<path d="M10.7072 22.7947C11.4396 22.7947 12.0334 22.201 12.0334 21.4686C12.0334 20.7362 11.4396 20.1425 10.7072 20.1425C9.97483 20.1425 9.3811 20.7362 9.3811 21.4686C9.3811 22.201 9.97483 22.7947 10.7072 22.7947Z" fill="white"/>
<path d="M49.1651 27.1169C39.7839 27.1169 39.7839 35.3193 39.7839 38.0207V51.1837C39.7839 52.6081 38.6543 53.7378 37.2299 53.7378H36.9352C35.5109 53.7378 34.3812 52.6081 34.3812 51.1837V47.0089C34.3812 45.7319 33.7918 44.4549 32.8586 43.669C32.0727 42.9814 31.0904 42.6867 30.059 42.834L21.169 44.1602C18.6641 44.6022 17.1415 46.1739 17.1415 48.335V51.2329C17.1415 52.6572 16.0118 53.7869 14.5875 53.7869H14.2928C12.8684 53.7869 11.7388 52.6572 11.7388 51.2329V30.9971H12.279C12.7211 30.9971 13.114 30.6533 13.114 30.1621C13.114 29.7201 12.7702 29.3272 12.279 29.3272H6.92539C3.68374 29.3272 2.40673 26.1837 2.3085 26.0364C1.47353 24.0226 1.57176 23.2368 1.62088 23.0403C1.81734 22.893 2.60319 22.4509 5.10811 21.9598C5.94308 21.7633 6.58158 21.3213 7.07274 20.5354C7.66213 19.7004 8.30064 18.7672 8.44799 18.6199C9.38119 17.5393 10.3144 17.0973 12.2299 16.9008C12.2299 16.9008 14.1454 16.7535 15.9627 16.9008H16.2083L19.6955 16.2132C20.4323 16.0659 20.5305 16.1641 20.9234 16.6553L20.9725 16.7535C21.9549 17.9814 23.7722 20.7319 24.3615 23.2859C24.1651 23.5315 23.1828 23.9735 21.9549 23.7771C20.9234 23.6297 19.1061 22.9912 18.4676 20.2898C18.3694 19.8478 17.9274 19.6022 17.4853 19.7004C17.0433 19.7987 16.7977 20.2407 16.8959 20.6828C17.5835 23.5315 19.4008 24.9558 21.3164 25.3488V27.0187C21.3164 29.7692 22.8881 31.39 25.6877 31.39H30.2063C30.6484 31.39 31.0413 31.0462 31.0413 30.5551C31.0413 30.113 30.6975 29.7201 30.2063 29.7201H25.6877C23.8213 29.7201 22.9863 28.8851 22.9863 27.0187V25.4961C23.281 25.4961 23.5757 25.447 23.8213 25.3979C25.393 25.0541 26.2771 24.1209 26.0315 23.0894C25.393 20.4372 23.5757 17.4902 22.2496 15.8203L22.2004 15.7712C21.6111 15.0344 21.0217 14.445 19.4008 14.7397L16.061 15.4274C14.0963 15.2309 12.2299 15.4274 12.1317 15.4274C9.77412 15.6729 8.44799 16.3114 7.26921 17.6867C7.07274 17.9323 6.09042 19.3075 5.79573 19.7004C5.50103 20.1425 5.20634 20.3389 4.81341 20.4372C2.40673 20.9283 0.933252 21.5177 0.442093 22.058C5.01052e-05 22.5 -0.392877 23.6297 0.835021 26.724C0.884137 26.9205 2.60319 30.9971 6.92539 30.9971H10.0688V51.1837C10.0688 53.4922 11.9352 55.3586 14.2437 55.3586H14.5384C16.8468 55.3586 18.7132 53.4922 18.7132 51.1837V48.2859C18.7132 46.4686 20.3832 45.8792 21.3655 45.7319L30.2063 44.4549C30.8448 44.3566 31.3851 44.6513 31.6798 44.8969C32.2692 45.3881 32.613 46.223 32.613 47.0089V51.1837C32.613 53.4922 34.4794 55.3586 36.7879 55.3586H37.0826C39.391 55.3586 41.2574 53.4922 41.2574 51.1837V38.0207C41.2574 33.6985 42.1415 28.7378 49.0177 28.7378C49.4598 28.7378 49.8527 28.394 49.8527 27.9028C49.8527 27.4116 49.6562 27.1169 49.1651 27.1169Z" fill="white"/>
</svg>
