<svg width="26" height="70" viewBox="0 0 26 70" fill="none" xmlns="http://www.w3.org/2000/svg">
<g clip-path="url(#clip0_88_3519)">
<path d="M23.9756 26.1829C23.3444 25.5172 22.5841 24.987 21.7413 24.6247C20.8984 24.2624 19.9906 24.0756 19.0732 24.0756C18.1558 24.0756 17.248 24.2624 16.4051 24.6247C15.5622 24.987 14.802 25.5172 14.1707 26.1829C13.7089 26.6677 13.3175 27.2151 13.0081 27.8089C12.6983 27.2153 12.307 26.668 11.8455 26.1829C11.2143 25.5172 10.454 24.987 9.61119 24.6247C8.76834 24.2624 7.86053 24.0756 6.94311 24.0756C6.02568 24.0756 5.11787 24.2624 4.27502 24.6247C3.43216 24.987 2.67193 25.5172 2.04067 26.1829C0.736215 27.5563 0.00891113 29.3782 0.00891113 31.2723C0.00891113 33.1665 0.736215 34.9884 2.04067 36.3618L10.0163 44.6382C10.4026 45.0425 10.867 45.3644 11.3812 45.5842C11.8954 45.8041 12.4489 45.9175 13.0081 45.9175C13.5674 45.9175 14.1209 45.8041 14.6351 45.5842C15.1493 45.3644 15.6136 45.0425 16 44.6382L23.9756 36.3618C25.2801 34.9884 26.0074 33.1665 26.0074 31.2723C26.0074 29.3782 25.2801 27.5563 23.9756 26.1829Z" fill="#4D4751"/>
</g>
<defs>
<clipPath id="clip0_88_3519">
<rect width="26" height="70" fill="white"/>
</clipPath>
</defs>
</svg>
