<svg width="22" height="22" viewBox="0 0 22 22" fill="none" xmlns="http://www.w3.org/2000/svg">
<path d="M21.7735 6.26143C21.7735 6.26143 21.5471 4.63096 20.9017 3.91197C20.6251 3.59663 20.2835 3.34483 19.9005 3.17382C19.5174 3.00282 19.1019 2.91665 18.6825 2.92123C15.631 2.69478 11 2.65515 11 2.65515C11 2.65515 6.37468 2.69478 3.30057 2.92123C2.88592 2.92778 2.47691 3.01847 2.09836 3.1878C1.7198 3.35713 1.37957 3.60157 1.0983 3.90631C0.41894 4.6253 0.226454 6.26143 0.226454 6.26143C0.0851676 7.54563 0.00958443 8.83622 0 10.1281L0 11.9115C0.00862608 13.1921 0.0842139 14.4714 0.226454 15.7442C0.226454 15.7442 0.452908 17.3747 1.0983 18.0936C1.93052 19.0448 3.03448 19.0051 3.52702 19.1184C5.27072 19.3108 11 19.3448 11 19.3448C11 19.3448 15.6253 19.3448 18.6994 19.0787C19.1141 19.0722 19.5231 18.9815 19.9016 18.8122C20.2802 18.6428 20.6204 18.3984 20.9017 18.0936C21.5471 17.3747 21.7735 15.7442 21.7735 15.7442C21.9141 14.4713 21.9896 13.1921 22 11.9115V10.1281C21.9904 8.83622 21.9148 7.54563 21.7735 6.26143ZM8.34483 15.3988V7.18423L15.5517 11.3963L8.34483 15.3988Z" fill="white"/>
</svg>
