<svg width="26" height="12" viewBox="0 0 26 12" fill="none" xmlns="http://www.w3.org/2000/svg">
<g clip-path="url(#clip0_69_1282)">
<path fill-rule="evenodd" clip-rule="evenodd" d="M6.65658 10.8334H12.3232L14.9066 1.16675H6.65658C3.98991 1.16675 1.82324 3.33341 1.82324 6.00008C1.82324 8.66675 3.98991 10.8334 6.65658 10.8334Z" fill="white"/>
<path fill-rule="evenodd" clip-rule="evenodd" d="M19.3232 0.166748H6.65658C3.40658 0.166748 0.823242 2.75008 0.823242 6.00008C0.823242 9.25008 3.40658 11.8334 6.65658 11.8334H19.3232C22.5732 11.8334 25.1566 9.25008 25.1566 6.00008C25.1566 2.75008 22.4899 0.166748 19.3232 0.166748ZM1.82324 6.00008C1.82324 3.33341 3.98991 1.16675 6.65658 1.16675H14.9066L12.3232 10.8334H6.65658C3.98991 10.8334 1.82324 8.66675 1.82324 6.00008Z" fill="#0066FF"/>
<path d="M20.99 3.5C21.1567 3.66667 21.1567 4 20.99 4.16667L19.24 6L21.0733 7.83333C21.24 8 21.24 8.33333 21.0733 8.5C20.9067 8.66667 20.5733 8.66667 20.4067 8.5L18.5733 6.66667L16.74 8.5C16.5733 8.66667 16.24 8.66667 16.0733 8.5C15.9067 8.33333 15.9067 8 16.0733 7.83333L17.8233 6L15.99 4.16667C15.8233 4 15.8233 3.66667 15.99 3.5C16.1567 3.33333 16.49 3.33333 16.6567 3.5L18.49 5.33333L20.3233 3.5C20.49 3.33333 20.8233 3.33333 20.99 3.5Z" fill="white"/>
<path d="M11.0733 3.58325C11.24 3.74992 11.3233 4.08325 11.1567 4.24992L7.65666 8.33325C7.57332 8.41659 7.48999 8.49992 7.40666 8.49992C7.23999 8.58325 6.98999 8.58325 6.82332 8.41659L4.98999 6.58325C4.82332 6.41659 4.82332 6.08325 4.98999 5.91659C5.15666 5.74992 5.48999 5.74992 5.65666 5.91659L7.15666 7.33325L10.3233 3.58325C10.49 3.41659 10.8233 3.41659 11.0733 3.58325Z" fill="#0066FF"/>
</g>
<defs>
<clipPath id="clip0_69_1282">
<rect width="25" height="12" fill="white" transform="translate(0.48999)"/>
</clipPath>
</defs>
</svg>
