<svg width="14" height="18" viewBox="0 0 14 18" fill="none" xmlns="http://www.w3.org/2000/svg">
<g clip-path="url(#clip0_69_47)">
<path d="M5.61674 12.9457C5.99077 13.2986 6.48556 13.4952 6.9998 13.4952C7.51404 13.4952 8.00883 13.2986 8.38286 12.9457L13.4071 7.92153C13.5948 7.73757 13.744 7.51799 13.8458 7.27565C13.9476 7.03332 14.0001 6.7731 14.0001 6.51024C14.0001 6.24738 13.9476 5.98716 13.8458 5.74483C13.744 5.50249 13.5948 5.28291 13.4071 5.09895C13.2231 4.91119 13.0035 4.76203 12.7612 4.6602C12.5188 4.55837 12.2586 4.50592 11.9958 4.50592C11.7329 4.50592 11.4727 4.55837 11.2304 4.6602C10.988 4.76203 10.7684 4.91119 10.5845 5.09895L6.97157 8.71185L3.41512 5.09895C3.23116 4.91119 3.01158 4.76203 2.76924 4.6602C2.52691 4.55837 2.26669 4.50592 2.00383 4.50592C1.74097 4.50592 1.48075 4.55837 1.23842 4.6602C0.996085 4.76203 0.776505 4.91119 0.592542 5.09895C0.404784 5.28291 0.255623 5.50249 0.153793 5.74483C0.0519627 5.98716 -0.000488281 6.24738 -0.000488281 6.51024C-0.000488281 6.7731 0.0519627 7.03332 0.153793 7.27565C0.255623 7.51799 0.404784 7.73757 0.592542 7.92153L5.61674 12.9457Z" fill="#4D4751"/>
</g>
<defs>
<clipPath id="clip0_69_47">
<rect width="14" height="8.9871" fill="white" transform="translate(0 4.50644)"/>
</clipPath>
</defs>
</svg>
