<svg width="15" height="18" viewBox="0 0 15 18" fill="none" xmlns="http://www.w3.org/2000/svg">
<g clip-path="url(#clip0_69_55)">
<g clip-path="url(#clip1_69_55)">
<path d="M6.41923 12.9457C6.79326 13.2986 7.28805 13.4952 7.80229 13.4952C8.31653 13.4952 8.81132 13.2986 9.18535 12.9457L14.2095 7.92153C14.3973 7.73757 14.5465 7.51799 14.6483 7.27565C14.7501 7.03332 14.8026 6.7731 14.8026 6.51024C14.8026 6.24738 14.7501 5.98716 14.6483 5.74483C14.5465 5.50249 14.3973 5.28291 14.2095 5.09895C14.0256 4.91119 13.806 4.76203 13.5637 4.6602C13.3213 4.55837 13.0611 4.50592 12.7983 4.50592C12.5354 4.50592 12.2752 4.55837 12.0328 4.6602C11.7905 4.76203 11.5709 4.91119 11.387 5.09895L7.77406 8.71185L4.21761 5.09895C4.03365 4.91119 3.81407 4.76203 3.57173 4.6602C3.3294 4.55837 3.06918 4.50592 2.80632 4.50592C2.54346 4.50592 2.28324 4.55837 2.04091 4.6602C1.79858 4.76203 1.579 4.91119 1.39503 5.09895C1.20727 5.28291 1.05811 5.50249 0.956283 5.74483C0.854453 5.98716 0.802002 6.24738 0.802002 6.51024C0.802002 6.7731 0.854453 7.03332 0.956283 7.27565C1.05811 7.51799 1.20727 7.73757 1.39503 7.92153L6.41923 12.9457Z" fill="#4D4751"/>
</g>
</g>
<defs>
<clipPath id="clip0_69_55">
<rect width="14" height="17" fill="white" transform="translate(0.80249 0.5)"/>
</clipPath>
<clipPath id="clip1_69_55">
<rect width="14" height="8.9871" fill="white" transform="translate(0.80249 4.50644)"/>
</clipPath>
</defs>
</svg>
