<svg width="24" height="25" viewBox="0 0 24 25" fill="none" xmlns="http://www.w3.org/2000/svg">
<path d="M3 3.38H21C21.2652 3.38 21.5196 3.48536 21.7071 3.6729C21.8946 3.86043 22 4.11479 22 4.38V20.38C22 20.6452 21.8946 20.8996 21.7071 21.0871C21.5196 21.2746 21.2652 21.38 21 21.38H3C2.73478 21.38 2.48043 21.2746 2.29289 21.0871C2.10536 20.8996 2 20.6452 2 20.38V4.38C2 4.11479 2.10536 3.86043 2.29289 3.6729C2.48043 3.48536 2.73478 3.38 3 3.38ZM20 7.618L12.072 14.718L4 7.596V19.38H20V7.618ZM4.511 5.38L12.061 12.042L19.502 5.38H4.511Z" fill="#4D4751"/>
</svg>
