<svg width="27" height="70" viewBox="0 0 27 70" fill="none" xmlns="http://www.w3.org/2000/svg">
<path d="M24.1454 26.1829C23.5142 25.5172 22.7539 24.9871 21.9111 24.6247C21.0682 24.2624 20.1604 24.0756 19.243 24.0756C18.3256 24.0756 17.4178 24.2624 16.5749 24.6247C15.732 24.9871 14.9718 25.5172 14.3405 26.1829C13.8787 26.6677 13.4873 27.2151 13.1779 27.8089C12.8681 27.2154 12.4768 26.6681 12.0153 26.1829C11.3841 25.5172 10.6238 24.9871 9.78099 24.6247C8.93814 24.2624 8.03033 24.0756 7.11291 24.0756C6.19548 24.0756 5.28767 24.2624 4.44482 24.6247C3.60196 24.9871 2.84173 25.5172 2.21047 26.1829C0.906015 27.5563 0.178711 29.3782 0.178711 31.2724C0.178711 33.1665 0.906015 34.9884 2.21047 36.3618L10.1861 44.6382C10.5724 45.0426 11.0368 45.3644 11.551 45.5843C12.0652 45.8041 12.6187 45.9175 13.1779 45.9175C13.7372 45.9175 14.2907 45.8041 14.8049 45.5843C15.3191 45.3644 15.7834 45.0426 16.1698 44.6382L24.1454 36.3618C25.4499 34.9884 26.1772 33.1665 26.1772 31.2724C26.1772 29.3782 25.4499 27.5563 24.1454 26.1829Z" fill="#4D4751"/>
</svg>
