<svg width="23" height="22" viewBox="0 0 23 22" fill="none" xmlns="http://www.w3.org/2000/svg">
<path d="M22.2735 6.26155C22.2735 6.26155 22.0471 4.63108 21.4017 3.91209C21.1251 3.59675 20.7835 3.34495 20.4005 3.17395C20.0174 3.00294 19.6019 2.91678 19.1825 2.92136C16.131 2.6949 11.5 2.65527 11.5 2.65527C11.5 2.65527 6.87468 2.6949 3.80057 2.92136C3.38592 2.92791 2.97691 3.01859 2.59836 3.18792C2.2198 3.35725 1.87957 3.60169 1.5983 3.90643C0.91894 4.62542 0.726454 6.26155 0.726454 6.26155C0.585168 7.54576 0.509584 8.83634 0.5 10.1283L0.5 11.9116C0.508626 13.1922 0.584214 14.4716 0.726454 15.7443C0.726454 15.7443 0.952908 17.3748 1.5983 18.0938C2.43052 19.0449 3.53448 19.0052 4.02702 19.1185C5.77072 19.311 11.5 19.3449 11.5 19.3449C11.5 19.3449 16.1253 19.3449 19.1994 19.0788C19.6141 19.0723 20.0231 18.9816 20.4016 18.8123C20.7802 18.643 21.1204 18.3985 21.4017 18.0938C22.0471 17.3748 22.2735 15.7443 22.2735 15.7443C22.4141 14.4714 22.4896 13.1922 22.5 11.9116V10.1283C22.4904 8.83634 22.4148 7.54576 22.2735 6.26155ZM8.84483 15.399V7.18435L16.0517 11.3964L8.84483 15.399Z" fill="white"/>
</svg>
