<svg width="22" height="22" viewBox="0 0 22 22" fill="none" xmlns="http://www.w3.org/2000/svg">
<path d="M15.6496 0H6.35044C4.6662 0 3.05094 0.669062 1.86 1.86C0.669062 3.05094 0 4.6662 0 6.35044L0 15.6496C0 17.3338 0.669062 18.9491 1.86 20.14C3.05094 21.3309 4.6662 22 6.35044 22H15.6496C17.3338 22 18.9491 21.3309 20.14 20.14C21.3309 18.9491 22 17.3338 22 15.6496V6.35044C22 4.6662 21.3309 3.05094 20.14 1.86C18.9491 0.669062 17.3338 0 15.6496 0ZM19.9723 15.813C19.9753 16.3682 19.8685 16.9186 19.6583 17.4325C19.4481 17.9465 19.1384 18.4139 18.7472 18.8079C18.3559 19.2019 17.8907 19.5148 17.3783 19.7286C16.8659 19.9425 16.3162 20.053 15.761 20.054H6.23903C5.12014 20.054 4.04708 19.6095 3.25591 18.8184C2.46473 18.0272 2.02026 16.9541 2.02026 15.8352V6.29845C2.01928 5.74415 2.12773 5.19512 2.3394 4.68284C2.55106 4.17055 2.86178 3.70509 3.25372 3.31314C3.64567 2.9212 4.11113 2.61048 4.62342 2.39882C5.1357 2.18715 5.68474 2.0787 6.23903 2.07968H15.761C16.3153 2.0787 16.8643 2.18715 17.3766 2.39882C17.8889 2.61048 18.3543 2.9212 18.7463 3.31314C19.1382 3.70509 19.4489 4.17055 19.6606 4.68284C19.8723 5.19512 19.9807 5.74415 19.9797 6.29845L19.9723 15.813Z" fill="white"/>
<path d="M11 5.34772C9.87035 5.34772 8.76606 5.6827 7.82677 6.31031C6.88749 6.93792 6.15541 7.82996 5.72311 8.87363C5.2908 9.91731 5.17769 11.0657 5.39808 12.1737C5.61847 13.2817 6.16245 14.2994 6.96125 15.0982C7.76004 15.897 8.77776 16.4409 9.88572 16.6613C10.9937 16.8817 12.1421 16.7686 13.1858 16.3363C14.2295 15.904 15.1215 15.1719 15.7491 14.2326C16.3767 13.2934 16.7117 12.1891 16.7117 11.0594C16.7117 10.3093 16.564 9.56661 16.2769 8.87363C15.9899 8.18066 15.5692 7.55101 15.0388 7.02063C14.5084 6.49025 13.8788 6.06953 13.1858 5.78249C12.4928 5.49545 11.7501 5.34772 11 5.34772ZM11 14.7583C10.2655 14.7583 9.5475 14.5404 8.93679 14.1324C8.32607 13.7243 7.85008 13.1443 7.569 12.4657C7.28791 11.7871 7.21437 11.0404 7.35766 10.32C7.50096 9.59965 7.85466 8.93793 8.37403 8.41856C8.8934 7.89919 9.55512 7.54549 10.2755 7.4022C10.9959 7.2589 11.7426 7.33244 12.4212 7.61353C13.0998 7.89461 13.6798 8.3706 14.0878 8.98132C14.4959 9.59203 14.7137 10.31 14.7137 11.0445C14.7137 12.0295 14.3225 12.9741 13.626 13.6705C12.9295 14.367 11.985 14.7583 11 14.7583Z" fill="white"/>
<path d="M16.8974 6.46187C17.6316 6.46187 18.2269 5.86663 18.2269 5.13236C18.2269 4.3981 17.6316 3.80286 16.8974 3.80286C16.1631 3.80286 15.5679 4.3981 15.5679 5.13236C15.5679 5.86663 16.1631 6.46187 16.8974 6.46187Z" fill="white"/>
</svg>
