<svg width="22" height="22" viewBox="0 0 22 22" fill="none" xmlns="http://www.w3.org/2000/svg">
<path d="M19.7515 6.51403V7.09452C19.7515 13.0611 15.2104 19.9389 6.90715 19.9389C4.45793 19.9392 2.06028 19.2352 0 17.9108C0.358654 17.9508 0.719286 17.9704 1.08016 17.9696C3.1123 17.9679 5.08468 17.282 6.67936 16.0224C5.73691 16.0046 4.82361 15.6926 4.06731 15.13C3.31101 14.5673 2.74957 13.7823 2.46159 12.8848C2.7402 12.9375 3.02306 12.9646 3.30661 12.9656C3.70881 12.9646 4.10909 12.9102 4.49699 12.8039C3.47824 12.5978 2.5617 12.0467 1.90184 11.2436C1.24197 10.4405 0.879112 9.43452 0.874416 8.39512V8.35104C1.50786 8.70028 2.21609 8.89183 2.93921 8.90949C1.98415 8.27081 1.30821 7.29234 1.04886 6.17306C0.789516 5.05377 0.966237 3.87773 1.54309 2.8841C2.67514 4.27814 4.08771 5.41853 5.68908 6.23124C7.29045 7.04395 9.04484 7.51082 10.8383 7.60154C10.6148 6.63401 10.7162 5.61979 11.1268 4.71564C11.5374 3.8115 12.2344 3.06778 13.1101 2.59944C13.9857 2.13109 14.9912 1.96421 15.9712 2.12457C16.9512 2.28493 17.8511 2.76362 18.5317 3.48664C19.54 3.28741 20.5068 2.91712 21.3901 2.39178C21.0539 3.43774 20.3488 4.32571 19.4061 4.89011C20.3027 4.77667 21.1771 4.52896 22 4.15531C21.3976 5.06968 20.636 5.86857 19.7515 6.51403Z" fill="white"/>
</svg>
